<svg width="546" height="938" viewBox="0 0 546 938" fill="none" xmlns="http://www.w3.org/2000/svg">
<g id="cathats">
<path id="tail" d="M237.122 741.481L237.806 738.72L234.977 739.01C225.728 739.959 212.596 737.246 203.253 726.067C193.918 714.898 188.004 694.843 194.15 660.351C194.83 656.534 195.503 652.774 196.167 649.068C210.617 568.402 220.569 512.846 194.037 446.755C179.965 411.704 143.401 387.88 106.139 380.352C68.9203 372.832 30.071 381.433 11.9531 412.492C3.03537 427.78 0.566548 441.09 2.74215 452.084C4.9219 463.098 11.7066 471.492 20.696 477.016C38.5484 487.988 65.4225 487.859 83.8475 474.624C100.857 462.406 122.014 463.605 137.213 475.274C152.365 486.906 161.835 509.179 154.733 539.545C152.444 549.333 149.773 559.359 147.062 569.536C141.258 591.322 135.269 613.801 132.446 636.124C128.287 669.025 130.907 702.054 151.002 733.087C166.879 757.606 181.524 774.404 193.42 785.453C205.26 796.45 214.502 801.866 219.6 803.414L221.615 804.026L222.122 801.981L237.122 741.481Z" fill="white" stroke="#AFAFAF" stroke-width="4"/>
<path id="tail-cwPattern" d="M73.8038 478.067C74.2919 424.403 56.4094 399.056 39.394 389.2C28.8648 394.707 19.9665 402.725 13.6807 413.5C-18.5799 468.804 37.0917 494.372 73.8038 478.067C73.8038 478.067 73.8038 478.067 73.8038 478.067Z" fill="white"/>
<path id="tail-linePattern05" d="M100.95 464.909C114.1 462.209 127.69 465.439 138.41 473.669C157.13 459.449 165.34 435.459 168.21 413.519C155.6 401.879 140.03 392.939 123.53 387.189C119 411.589 108.78 443.169 100.95 464.909Z" fill="white"/>
<path id="tail-linePattern04" d="M194.52 453.57C180.72 474.86 163.15 482.99 149.13 485.03C155.17 493.85 158.96 505.24 159.12 518.81C181.92 521.29 196.92 510.56 205.98 497.52C203.78 483.07 200.09 468.57 194.52 453.57Z" fill="white"/>
<path id="tail-linePattern03" d="M208.07 551.35C199.07 555.75 182.97 555.56 155.71 544.08C153.62 552.68 151.3 561.42 148.95 570.23C147.89 574.2 146.83 578.19 145.78 582.19C163.04 591.17 187.17 596.92 205.16 581.6C206.5 571.21 207.5 561.17 208.07 551.35Z" fill="white"/>
<path id="tail-linePattern02" d="M200.69 611.561C177.39 626.401 153.83 626.061 136.75 621.461C134.32 634.811 132.75 648.181 132.76 661.451C152.31 672.381 176.14 664.291 193.27 653.891C193.57 652.221 193.87 650.571 194.16 648.921C196.51 635.841 198.73 623.441 200.69 611.561Z" fill="white"/>
<path id="tail-linePattern01" d="M189.92 678.03C180.56 691.35 164.01 704.29 139.11 703.65C142.24 713.25 146.67 722.72 152.68 732.01C154.37 734.62 156.05 737.15 157.71 739.59C168.38 736.08 180.22 724.61 190.32 698.19C189.6 692.25 189.42 685.56 189.92 678.03Z" fill="white"/>
<path id="tail-linePattern00" d="M198.18 722.43C195.56 738.72 191.2 757.18 184.37 773.52C194.66 784.65 203.52 791.95 210.21 796.36L222 774.5L212.83 736.47C207.4 733.54 202.25 729.03 198.18 722.43Z" fill="white"/>
<path id="tail-siamesePattern" d="M237.122 741.481L237.806 738.72L234.977 739.01C225.728 739.959 212.596 737.246 203.253 726.067C193.918 714.898 188.004 694.843 194.15 660.351C194.83 656.534 195.503 652.774 196.167 649.068C210.617 568.402 220.569 512.846 194.037 446.755C179.965 411.704 143.401 387.88 106.139 380.352C68.9203 372.832 30.071 381.433 11.9531 412.492C3.03537 427.78 0.566548 441.09 2.74215 452.084C4.9219 463.098 11.7066 471.492 20.696 477.016C38.5484 487.988 65.4225 487.859 83.8475 474.624C100.857 462.406 122.014 463.605 137.213 475.274C152.365 486.906 161.835 509.179 154.733 539.545C152.444 549.333 149.773 559.359 147.062 569.536C141.258 591.322 135.269 613.801 132.446 636.124C128.287 669.025 130.907 702.054 151.002 733.087C166.879 757.606 181.524 774.404 193.42 785.453C205.26 796.45 214.502 801.866 219.6 803.414L221.615 804.026L222.122 801.981L237.122 741.481Z" fill="white" stroke="#AFAFAF" stroke-width="4"/>
<path id="tail-tricolorPattern-black03" d="M220.141 801.488C210.771 798.616 184.236 780.731 152.681 732C147.402 723.848 143.346 715.553 140.316 707.15C157.111 696.619 176.209 700.556 183.833 706.908C186.009 708.721 189.268 710.485 193.315 711.88C201.617 736.748 222.093 742.343 235.181 741L220.199 801.425C220.18 801.446 220.16 801.467 220.141 801.488Z" fill="black"/>
<path id="tail-tricolorPattern02" d="M164.533 749.241C160.682 743.978 156.722 738.242 152.681 732.001C141.914 715.373 136.236 698.151 133.968 680.639C141.239 685.374 157.717 688.889 174.195 681.11C176.716 679.92 179.089 678.709 181.345 677.558C184.544 675.926 187.507 674.414 190.318 673.254C188.117 695.304 191.432 710.645 197.388 721.091C187.166 724.57 176.689 731.753 168.458 743.894C167.192 745.762 165.884 747.544 164.533 749.241Z" fill="#E9B388"/>
<path id="tail-tricolorPattern01" d="M202.513 600.205C200.343 614.234 197.734 628.958 194.925 644.654C187.823 644.893 180.946 642.514 176.807 639.555C167.537 632.93 154.666 628.499 138.909 629.689C137.707 629.779 136.516 629.845 135.337 629.887C138.39 609.855 143.728 589.822 148.951 570.223C151.56 560.432 154.14 550.749 156.392 541.229C163.64 547.506 167.068 555.974 166.929 561.488C166.723 569.643 174.062 586.458 191.645 595.14C194.145 596.374 196.569 597.48 198.873 598.53C200.124 599.101 201.34 599.655 202.513 600.205Z" fill="#E9B388"/>
<path id="tail-tricolorPattern00" d="M155.554 403.393C171.785 414.659 185 429.613 192.181 447.5C199.842 466.584 204.438 484.775 206.746 502.972C201.626 502.984 197.214 501.892 194.352 500.267C185.418 495.197 172.28 492.897 155.116 496.557C146.268 473.096 124.184 461.094 102.813 464.569C104.313 459.669 106.526 454.189 109.49 448.113C118.278 430.094 138.321 412.18 155.554 403.393Z" fill="#E9B388"/>
<path id="tail-tricolorPattern-black02" d="M132.824 656.795C133.58 627.907 141.387 598.61 148.951 570.222C149.071 569.77 149.192 569.319 149.312 568.867C159.426 569.155 170.434 576.171 181.978 591.028C197.455 610.947 197.28 646.619 184.43 657.462C171.579 668.305 155.234 666.276 148.633 661.483C145.498 659.207 139.789 657.225 132.824 656.795Z" fill="black"/>
<path id="tail-tricolorPattern-black01" d="M200.144 470.698C209.371 503.107 210.174 533.911 206.737 567.935C206.257 567.99 205.78 568.024 205.307 568.037C188.5 568.491 176.993 556.707 174.826 548.842C173.395 543.65 167.722 535.799 158.465 530.138C161.464 506.394 154.104 488.06 142.07 476.778C142.298 476.846 142.521 476.917 142.739 476.991C153.531 480.645 167.135 481.154 181.87 475.447C188.08 473.042 194.171 471.459 200.144 470.698Z" fill="black"/>
<path id="tail-tricolorPattern-black00" d="M104.949 382.155C103.373 387.046 100.925 391.267 98.3467 394.099C89.4829 403.835 82.6745 418.102 81.9681 436.605C81.3175 453.643 76.7451 468.166 68.2509 480.174C31.8182 491.78 -16.9901 466.078 13.6807 413.5C31.0549 383.716 68.3891 375 104.949 382.155Z" fill="black"/>
<path id="tail-shadow" fill-rule="evenodd" clip-rule="evenodd" d="M222.699 791.344L220.181 801.5C210.847 798.667 184.281 780.8 152.681 732C119.498 680.756 134.657 623.865 148.951 570.222C151.672 560.01 154.362 549.915 156.681 540C171.181 478 118.181 447.5 82.6807 473C47.1807 498.5 -21.3193 473.5 13.6807 413.5C16.3899 408.856 19.5844 404.723 23.1857 401.084C13.6807 427.5 8.5 476 62.5 454C118.346 428.043 158 441 168.5 474C179 507 165.5 570.5 147.5 646.5C142 711.546 188.833 766.5 218.5 788.5L222.699 791.344Z" fill="black" fill-opacity="0.1"/>
<path id="paw-left" d="M428.681 843.5V841.857L430.291 841.538C440.9 839.433 457.262 837.48 471.894 838.492C479.203 838.997 486.209 840.25 491.88 842.678C497.442 845.059 501.926 848.667 503.943 853.995C509.344 860.638 516.198 871.308 519.398 882.106C522.634 893.023 522.286 904.795 511.83 912.136C506.783 915.68 500.275 917.745 493.198 918.819C486.104 919.896 478.305 919.995 470.568 919.508C455.097 918.535 439.649 915.202 430.12 912.419L428.681 911.999V910.5V843.5Z" fill="white" stroke="#AFAFAF" stroke-width="4"/>
<path id="paw-right" d="M317.681 843.5V841.857L316.07 841.538C305.461 839.433 289.1 837.48 274.468 838.492C267.158 838.997 260.152 840.25 254.481 842.678C248.919 845.059 244.435 848.667 242.419 853.995C237.017 860.638 230.164 871.308 226.963 882.106C223.728 893.023 224.076 904.795 234.531 912.136C239.578 915.68 246.086 917.745 253.163 918.819C260.258 919.896 268.056 919.995 275.794 919.508C291.265 918.535 306.712 915.202 316.241 912.419L317.681 911.999V910.5V843.5Z" fill="white" stroke="#AFAFAF" stroke-width="4"/>
<path id="paw-left-back-cwPattern" d="M510.681 910.5C529.481 897.3 512.847 868 502.181 855C495.381 835.8 451.681 839.333 430.681 843.5V910.5C449.514 916 491.881 923.7 510.681 910.5Z" fill="white"/>
<path id="paw-left-back-siamesePattern" d="M510.681 910.5C529.481 897.3 512.847 868 502.181 855C495.381 835.8 451.681 839.333 430.681 843.5V910.5C449.514 916 491.881 923.7 510.681 910.5Z" fill="white"/>
<path id="paw-right-back-cwPattern" d="M235.681 910.5C216.881 897.3 233.514 868 244.181 855C250.981 835.8 294.681 839.333 315.681 843.5V910.5C296.847 916 254.481 923.7 235.681 910.5Z" fill="white"/>
<path id="paw-right-back-siamesePattern" d="M235.681 910.5C216.881 897.3 233.514 868 244.181 855C250.981 835.8 294.681 839.333 315.681 843.5V910.5C296.847 916 254.481 923.7 235.681 910.5Z" fill="white"/>
<path id="paw-left-shadow" d="M510.681 910.5C529.481 897.3 512.847 868 502.181 855C495.381 835.8 451.681 839.333 430.681 843.5V910.5C449.514 916 491.881 923.7 510.681 910.5Z" fill="black" fill-opacity="0.1"/>
<path id="paw-right-shadow" d="M235.681 910.5C216.881 897.3 233.514 868 244.181 855C250.981 835.8 294.681 839.333 315.681 843.5V910.5C296.847 916 254.481 923.7 235.681 910.5Z" fill="black" fill-opacity="0.1"/>
<path id="body-back" d="M251.39 604.595L250.68 604.823L250.292 605.46C233.851 632.47 212.802 679.277 205.71 729.797C198.617 780.319 205.453 834.853 245.21 876.856C272.33 907.029 317.616 917.502 378.73 915.999C409.321 915.247 442.521 911.723 470.701 903.143C498.811 894.584 522.352 880.86 532.973 859.387C538.267 848.685 541.595 833.078 542.758 814.421C543.923 795.725 542.921 773.816 539.444 750.414C532.49 703.621 515.614 650.697 486.177 605.41L485.796 604.824L485.133 604.603L371.314 566.603L370.694 566.396L370.071 566.595L251.39 604.595Z" fill="white" stroke="#AFAFAF" stroke-width="4"/>
<path id="body-back-linePattern07" d="M513.844 879.6C510.974 881.94 507.874 884.13 504.594 886.18C497.874 882.08 489.554 872.86 487.594 852.45C485.954 835.41 476.144 817.02 470.744 810C476.464 814.75 488.954 829.05 493.094 848.24C496.674 864.79 507.094 875.14 513.844 879.6Z" fill="white"/>
<path id="body-back-linePattern06" d="M536.704 842.72C535.204 848.79 533.354 854.09 531.174 858.5C531.044 858.76 530.914 859.01 530.784 859.27C520.094 853.26 506.284 839.15 503.104 806.56C500.534 780.25 485.184 751.85 476.734 741.01C485.694 748.35 505.234 770.43 511.724 800.06C516.114 820.08 527.084 834.22 536.704 842.72Z" fill="white"/>
<path id="body-back-linePattern05" d="M540.334 776.32C541.154 787.18 541.384 797.52 541.084 807.11C527.914 795.97 516.474 780.1 513.084 758.53C504.294 702.57 501.534 693.78 486.964 675.95C492.914 675.11 508.774 686.93 524.634 740.98C529.164 756.41 534.604 767.89 540.334 776.32Z" fill="white"/>
<path id="body-back-linePattern04" d="M516.604 670.53C522.284 685.54 526.904 700.68 530.554 715.57C528.584 711.57 526.724 707.08 525.024 702.06C516.534 677.05 495.304 652.89 484.714 644.26C491.664 647.72 504.804 656.65 516.604 670.53Z" fill="white"/>
<path id="body-back-linePattern03" d="M214.554 696.1C218.714 680.22 223.934 665.15 229.544 651.49C240.614 639.34 252.344 631.46 258.774 628.26C248.184 636.9 226.954 661.05 218.464 686.06C217.234 689.68 215.924 693.02 214.554 696.1Z" fill="white"/>
<path id="body-back-linePattern02" d="M206.604 787.32C205.414 777.23 205.044 767.04 205.354 756.89C210.274 748.85 214.904 738.41 218.844 724.97C234.694 670.92 250.564 659.09 256.514 659.94C241.944 677.77 239.184 686.56 230.394 742.52C227.374 761.76 217.944 776.46 206.604 787.32Z" fill="white"/>
<path id="body-back-linePattern01" d="M220.654 837.52C217.944 831.78 215.634 825.92 213.694 819.98C221.184 811.43 228.404 799.47 231.754 784.01C238.154 754.41 257.424 732.34 266.254 725.01C257.924 735.84 242.784 764.22 240.254 790.51C237.834 815.48 229.274 829.59 220.654 837.52Z" fill="white"/>
<path id="body-back-linePattern00" d="M240.794 868.91C247.104 864.28 254.114 854.98 255.904 836.45C257.544 819.41 267.354 801.02 272.744 794C267.024 798.75 254.534 813.05 250.394 832.24C247.534 845.49 240.274 854.77 234.034 860.23C236.144 863.17 238.404 866.07 240.794 868.91Z" fill="white"/>
<path id="body-back-cwPattern" d="M308.803 908.622L285.611 595.738L370.681 568.5L447.559 594.167L417.021 911.521C404.168 912.917 391.214 913.692 378.681 914C352.25 914.65 328.916 913.047 308.803 908.622Z" fill="white"/>
<path id="back-left-tricolorPattern-black" d="M237.942 865.407C174.84 785.504 217.071 667.565 248.3 612.785L304 638.001V748.501C305.927 751.304 305.3 751.369 303.104 751.596C299.034 752.017 289.574 752.994 281 773.001C278.057 779.868 274.97 789.043 271.624 798.99C262.869 825.015 252.336 856.323 237.942 865.407Z" fill="black"/>
<path id="back-left-tricolorPattern" d="M245.118 873.825C221.778 848.416 210.343 818.478 206.643 787.639C207.242 787.662 207.813 787.717 208.351 787.801C216.535 789.09 234.423 783.924 245.456 767.356C247.024 765.001 248.453 762.705 249.811 760.522C258.007 747.35 263.625 738.322 281.738 745.543C302.863 757.059 296.123 779.739 288.244 788.202C280.365 796.664 274.227 809.048 273.372 825.085C272.517 841.123 267.654 854.602 258.784 865.524C255.305 869.807 250.759 872.631 245.118 873.825Z" fill="#E9B388"/>
<path id="back-right-tricolorPattern" d="M478.51 604.5L484.5 606.5C532.038 679.636 546.678 772.949 539.495 827.591L505.5 815L428 711L436 604.5H478.51Z" fill="#E9B388"/>
<path id="back-right-tricolorPattern-black" d="M541.074 807.799C540.34 829.26 536.893 846.951 531.181 858.5C529.916 861.057 528.46 863.503 526.825 865.844C514.152 866.883 508.453 857.725 500.849 845.503C499.267 842.962 497.604 840.288 495.778 837.546C482.932 818.255 462.105 812.24 452.575 813.741C443.046 815.242 424.76 808.586 417.097 790.242C409.433 771.898 428.503 734.2 455.531 721.53C482.56 708.861 500.968 710.529 511.296 723.246C521.624 735.962 527.286 751.657 528.281 770.33C529.106 785.798 534.152 798.346 541.074 807.799Z" fill="black"/>
<path id="body-back-shadow" d="M214.321 697.023C199.205 755.485 198.686 824.811 246.681 875.5C273.181 905 317.681 915.5 378.681 914C439.681 912.5 510.681 899.945 531.181 858.5C544.963 830.635 545.556 767.011 526.686 700.955C534.686 763.754 545.261 842.413 496 870C471 884 421 898.5 300.5 885.5C221.648 876.993 209.012 770.867 214.321 697.023Z" fill="black" fill-opacity="0.1"/>
<path id="body-front-shadow" d="M353 685.5C352.6 710.7 357.167 787 359.5 822L339 814L304 664L322 566.5L451.5 588.5L438.5 794L383.5 822C386.167 786.667 391.9 709.9 393.5 685.5C395.5 655 388.5 637.5 371.5 637.5C354.5 637.5 353.5 654 353 685.5Z" fill="black" fill-opacity="0.1"/>
<path id="body-front" d="M496.999 570.939C495.993 538 486.96 475.53 466.623 421.236C456.455 394.09 443.412 368.853 427.028 350.369C410.644 331.886 390.795 320.03 367.09 320C338.832 317.469 316.625 327.844 299.352 345.899C282.127 363.903 269.822 389.515 261.091 417.53C243.625 473.571 240.248 539.937 241 576.541C241.605 605.954 251.189 661.636 262.865 719.111C274.428 776.034 288.087 834.921 297.259 872.262C279.121 887.407 270.448 898.999 268.006 908.107C266.74 912.828 267.14 916.915 268.794 920.404C270.429 923.851 273.202 926.539 276.391 928.664C278.173 929.852 280.808 930.826 283.88 931.631C286.997 932.449 290.734 933.136 294.84 933.678C303.051 934.763 312.858 935.283 322.359 935.062C331.84 934.842 341.129 933.881 348.264 931.955C351.823 930.993 354.963 929.761 357.338 928.18C359.67 926.626 361.48 924.585 361.952 921.95C364.147 914.349 364.874 900.577 364.75 883.455C364.624 866.149 363.622 845.137 362.246 823.001C360.958 802.27 359.346 780.591 357.815 760.008C356.07 736.538 354.43 714.492 353.497 696.894C352.981 687.17 352.375 678.106 351.818 669.78C351.432 664.007 351.07 658.588 350.778 653.549C350.059 641.151 349.756 630.924 350.492 622.742C351.23 614.53 352.993 608.688 356.144 604.818C359.216 601.046 363.857 598.854 371.098 598.498C378.065 598.155 382.917 600.704 386.396 605.442C389.976 610.319 392.186 617.647 393.327 626.932C395.608 645.484 393.515 670.752 391.009 696.809C388.509 722.809 383.383 776.573 379.506 825.028C377.568 849.253 375.941 872.169 375.112 889.632C374.697 898.359 374.48 905.752 374.525 911.276C374.548 914.034 374.636 916.36 374.804 918.169C374.887 919.073 374.993 919.878 375.129 920.558C375.258 921.206 375.439 921.878 375.73 922.432C377.328 925.467 381.192 928.036 386.084 930.046C391.098 932.105 397.622 933.75 405.131 934.673C420.152 936.519 439.335 935.5 458.647 928.893C466.598 926.172 471.085 921.967 472.365 916.558C473.608 911.304 471.643 905.585 468.359 900.186C462.015 889.76 449.877 879.108 440.299 872.186C455.425 817.293 470.036 758.645 480.649 705.517C491.34 651.999 498.006 603.933 496.999 570.939Z" fill="white" stroke="#AFAFAF" stroke-width="4"/>
<path id="paw-front-left-cwPattern" d="M362.347 864.934C349.237 857.438 321.718 863.421 299.049 871.165C299.201 871.783 299.351 872.395 299.5 873.001C262 904.001 265.5 919.001 277.5 927.001C289.5 935.001 357.5 937.001 360 921.501C362.838 911.817 363.224 890.925 362.347 864.934Z" fill="white"/>
<path id="paw-front-right-cwPattern" d="M438.377 871.632C410.848 860.579 390.461 860.567 378.673 863.164C376.571 894.396 375.686 918.053 377.5 921.5C382.5 931 420 940 458 927C488.4 916.6 457.333 886.667 438 873C438.126 872.544 438.252 872.088 438.377 871.632Z" fill="white"/>
<path id="body-front-linePattern16" d="M486.382 663.12C481.962 660.7 472.162 661.19 455.102 675.29C433.822 692.89 414.492 686.96 407.492 681.79C414.962 695.62 435.502 718.49 457.902 699.29C468.322 690.36 476.452 686.5 482.482 685.36C483.882 677.79 485.182 670.37 486.382 663.12Z" fill="white"/>
<path id="body-front-linePattern15" d="M466.562 761C461.112 760.98 452.552 764.05 440.162 774.29C418.882 791.89 399.552 785.96 392.552 780.79C400.022 794.62 420.562 817.49 442.962 798.29C449.752 792.47 455.572 788.8 460.462 786.64C462.562 778.06 464.592 769.5 466.562 761Z" fill="white"/>
<path id="body-front-linePattern14" d="M380.092 843.12C383.692 844.45 388.402 847.16 394.422 852C410.852 865.2 426.162 856.17 431.762 850C415.372 858.38 407.602 848.61 400.152 839.24C398.262 836.87 396.402 834.52 394.422 832.5C390.102 828.09 385.382 826.31 381.432 825.83C380.962 831.7 380.512 837.48 380.092 843.12Z" fill="white"/>
<path id="body-front-linePattern13" d="M389.372 735.12C393.082 735.78 396.012 737.63 399.062 739.55C403.972 742.64 409.192 745.92 418.432 744.78C434.442 742.8 443.322 727.47 445.762 720.05C426.642 732.66 415.502 725.22 405.232 718.37C400.722 715.36 396.372 712.46 391.602 711.42C390.932 718.46 390.172 726.45 389.372 735.12Z" fill="white"/>
<path id="body-front-linePattern12" d="M396.182 652.579C400.142 653.369 403.402 655.079 406.782 656.849C412.732 659.969 419.072 663.289 430.272 662.139C449.692 660.139 460.452 644.639 463.412 637.139C440.232 649.889 426.722 642.369 414.272 635.439C408.172 632.049 402.332 628.789 395.732 628.139C395.642 628.129 395.552 628.119 395.452 628.109C396.262 635.429 396.422 643.699 396.182 652.579Z" fill="white"/>
<path id="body-front-linePattern11" d="M359.702 599.3C344.912 557.4 303.712 552.14 281.082 560.17C267.542 564.97 253.042 565.72 242.902 565.23C242.892 569.24 242.922 573.01 242.992 576.5C243.072 580.3 243.302 584.54 243.662 589.17C256.242 591.09 267.062 587.02 278.762 582.63C289.362 578.65 300.682 574.4 314.662 574.09C337.122 573.6 351.802 588.63 358.642 599.92C358.972 599.71 359.332 599.5 359.702 599.3Z" fill="white"/>
<path id="body-front-linePattern10" d="M348.052 633.791C342.152 636.551 334.362 636.481 324.882 629.511C305.842 615.511 277.742 634.341 266.072 645.511C273.692 641.511 293.802 635.911 313.212 645.511C326.022 651.841 339.602 658.311 348.892 655.811C348.392 647.611 348.052 640.271 348.052 633.791Z" fill="white"/>
<path id="body-front-linePattern09" d="M352.982 721.241C347.582 720.921 338.802 723.761 325.812 734.501C304.532 752.101 285.202 746.171 278.202 741.001C285.672 754.831 306.212 777.701 328.612 758.501C339.882 748.841 348.482 745.101 354.632 744.351C354.042 736.341 353.482 728.591 352.982 721.241Z" fill="white"/>
<path id="body-front-linePattern08" d="M360.642 829.87C355.882 830.56 349.562 832.42 342.152 836.51C334.212 840.88 330.612 847.47 327.182 853.74C323.152 861.12 319.352 868.07 309.012 870.51C314.612 870.18 327.032 867.61 331.882 860.01C337.272 851.58 349.272 841.18 361.362 842.79C361.142 838.55 360.902 834.24 360.642 829.87Z" fill="white"/>
<path id="body-front-linePattern07" d="M285.532 814.17C291.982 815.85 301.612 818.3 318.942 818.5C352.922 818.9 358.302 798.33 356.752 788C354.422 794 339.482 807 304.942 796C295.042 792.85 286.802 791.96 280.642 792.6C282.292 799.97 283.932 807.18 285.532 814.17Z" fill="white"/>
<path id="body-front-linePattern06" d="M261.842 703.93C273.692 700.52 279.842 703.75 286.452 707.21C292.402 710.33 298.742 713.65 309.942 712.5C329.362 710.5 340.122 695 343.082 687.5C319.902 700.25 306.392 692.73 293.942 685.8C287.842 682.41 282.002 679.15 275.402 678.5C268.652 677.83 262.652 679.61 257.682 682.36C259.012 689.45 260.402 696.66 261.842 703.93Z" fill="white"/>
<path id="body-front-linePattern05" d="M243.502 540.6C248.722 539.44 253.942 538.05 259.292 536.63C274.282 532.65 290.292 528.4 310.072 528.09C348.062 527.5 370.322 549.11 376.692 559.99C358.882 511.95 296.222 505.72 262.582 514.15C256.772 515.61 250.842 516.69 244.992 517.48C244.312 525.52 243.832 533.26 243.502 540.6Z" fill="white"/>
<path id="body-front-linePattern04" d="M247.552 492.59C261.892 501.51 287.252 499.9 323.892 483.94C366.682 465.3 376.752 468.4 417.862 481.08C420.802 481.99 423.902 482.94 427.182 483.94C449.902 489.27 468.452 489.59 483.472 486.7C483.012 484.6 482.542 482.49 482.052 480.37C467.392 481.87 448.442 478.95 423.312 468.96C373.782 449.26 356.402 454.65 329.362 463.02C319.912 465.95 309.292 469.24 295.702 471.95C266.492 477.79 254.482 475.42 250.562 471.65C249.422 478.68 248.412 485.69 247.552 492.59Z" fill="white"/>
<path id="body-front-linePattern03" d="M257.602 437.43C274.512 448.98 299.122 457.13 325.812 443.8C358.542 427.45 375.862 432.93 393.072 438.39C401.632 441.1 410.172 443.8 420.562 443.8C440.832 443.8 457.972 440.86 469.172 434.43C467.312 428.92 465.352 423.45 463.262 418.08C458.792 423.81 446.992 428.73 420.562 425.8C409.192 424.54 399.972 423.06 391.962 421.78C365.132 417.49 352.022 415.39 317.872 430.8C295.222 441.01 274.162 438.19 258.942 432.2C258.482 433.93 258.032 435.68 257.602 437.43Z" fill="white"/>
<path id="body-front-linePattern02" d="M267.462 404.88C274.482 408.43 283.442 411.39 294.422 412.53C308.312 413.98 316.962 411.84 326.122 409.57C339.122 406.35 353.152 402.87 384.702 409.03C419.962 414.18 440.822 405.37 452.462 393.3C450.832 389.98 449.142 386.73 447.402 383.55C432.812 393.49 411.572 399.53 387.092 393.52C384.822 392.96 382.742 392.41 380.732 391.88C366.892 388.22 356.952 385.58 317.942 389.52C295.132 391.82 282.452 388.53 276.022 384.42C272.902 390.94 270.052 397.79 267.462 404.88Z" fill="white"/>
<path id="body-front-linePattern01" d="M490.002 521.69C489.292 517.06 488.492 512.3 487.622 507.45C480.402 509.81 472.172 510.96 463.332 510.58C434.812 509.36 395.932 517.69 390.052 567.45C393.252 555.8 407.232 531.11 437.602 525.52C451.382 522.98 460.632 523.17 468.692 523.33C475.942 523.47 482.242 523.59 490.002 521.69Z" fill="white"/>
<path id="body-front-linePattern00" d="M493.992 554.51C494.472 560.17 494.792 565.37 494.952 570C485.062 573.53 478.072 573.28 469.682 572.98C462.162 572.71 453.532 572.4 440.712 574.74C412.462 579.9 399.712 604.34 396.872 615.91C401.752 566.35 437.922 558.58 464.532 560.18C475.752 560.87 485.872 558.72 493.992 554.51Z" fill="white"/>
<path id="body-front-cwPattern" d="M283.938 369.709C291.853 384.369 298.09 402.52 299.289 423.681C302.624 482.515 310.479 598.353 348.172 640.354C347.353 611.96 351.036 597.482 371 596.5C390.89 595.522 396.321 616.447 396.305 645.545C414.835 622.409 439.685 558.366 433.793 429.492C432.626 405.968 435.895 387.603 441.527 373.432C422.664 343.048 398.158 322 367 322C329.182 318.578 302.551 338.757 283.938 369.709Z" fill="white"/>
<path id="leg-front-right-siamesePattern" d="M493.751 606.576C468.837 626.412 426.687 636.136 396.234 639.881C396.681 656.643 394.955 676.669 393 697.001C388 749.001 372.5 912.001 377.5 921.501C382.5 931.001 420 940.001 458 927.001C488.4 916.601 457.333 886.668 438 873.001C463.645 780.092 487.875 676.226 493.751 606.576Z" fill="white"/>
<path id="leg-front-left-siamesePattern" d="M348.171 640.307C304.426 634.177 267.642 618.128 245.299 605.352C253.821 677.358 283.636 808.535 299.5 873C262 904 265.5 919 277.5 927C289.5 935 357.5 937 360 921.5C366.235 900.229 360.633 824.889 355.824 760.197C354.076 736.691 352.433 714.59 351.5 697C350.984 687.268 350.381 678.254 349.825 669.953C349.078 658.785 348.418 648.907 348.171 640.307Z" fill="white"/>
<path id="body-front-tricolorPattern-black00" d="M360.64 321.643C365.697 324.161 370.813 328.635 376.23 335.716C396.134 369.455 367.576 395.408 349.403 400.598C331.229 405.789 312.191 417.9 297.479 439.527C284.184 459.071 268.063 472.964 249.114 481.204C260.365 404.35 289.883 320.146 360.64 321.643Z" fill="black"/>
<path id="body-front-tricolorPattern-black01" d="M477.374 461.548C460.882 400.427 431.833 338.334 385.962 324.736C383.289 327.093 380.57 330.057 377.77 333.717C357.866 367.455 386.424 393.408 404.597 398.598C422.771 403.789 441.809 415.9 456.521 437.528C462.835 446.809 469.786 454.816 477.374 461.548Z" fill="black"/>
<path id="body-front-tricolorPattern00" d="M263.445 418.824C264.724 416.688 266.069 414.441 267.549 412.135C277.958 395.908 295.186 390.544 303.128 391.615C311.07 392.687 326.177 386.838 332.291 371.489C336.267 361.51 330.734 344.95 320.152 331.834C292.032 348.168 273.767 382.306 262.101 421.061C262.542 420.331 262.989 419.584 263.445 418.824Z" fill="#E9B388"/>
<path id="body-front-tricolorPattern01" d="M400.614 365.683C402.988 366.434 405.484 367.225 408.07 368.132C426.261 374.515 435.457 390.04 436.247 398.015C437.038 405.99 446.216 419.339 462.561 421.746C463.27 421.85 463.998 421.906 464.742 421.917C447.629 376.239 422.485 336.41 387.348 325.164C383.541 328.22 380.449 332.792 378.814 339.346C376.476 358.038 386.292 361.147 400.614 365.683Z" fill="#E9B388"/>
<path id="necklace-base" d="M272.621 387.018L271.895 388.608L273.373 389.54C292.787 401.788 323.712 412.17 369.074 410.499C404.633 409.189 431.178 400.011 450.213 388.537L451.831 387.561L450.949 385.891C431.15 348.346 403.772 320.047 367.09 320C344.216 317.951 325.271 324.359 309.695 336.509C294.147 348.638 282.035 366.422 272.621 387.018Z" fill="#67D26B" stroke="#053B6D" stroke-width="4"/>
<circle id="necklace-round" cx="367" cy="422" r="30" fill="#C4C4C4" stroke="#818181" stroke-width="2"/>
<path id="necklace-round-light" fill-rule="evenodd" clip-rule="evenodd" d="M351.1 398.76C355.012 396.185 360.186 394.5 367 394.5C367.276 394.5 367.5 394.724 367.5 395C367.5 395.276 367.276 395.5 367 395.5C360.358 395.5 355.381 397.14 351.65 399.596C347.917 402.053 345.403 405.348 343.722 408.699C342.04 412.053 341.197 415.455 340.804 418.108C340.608 419.433 340.525 420.566 340.505 421.407C340.495 421.827 340.501 422.171 340.516 422.426C340.523 422.553 340.533 422.655 340.543 422.731C340.552 422.801 340.56 422.833 340.562 422.839C340.562 422.84 340.562 422.841 340.562 422.84C340.65 423.102 340.509 423.386 340.248 423.474C339.986 423.562 339.702 423.421 339.614 423.16C339.56 423 339.533 422.751 339.518 422.484C339.501 422.196 339.495 421.824 339.505 421.383C339.526 420.501 339.613 419.326 339.815 417.961C340.219 415.232 341.087 411.722 342.828 408.251C344.57 404.777 347.191 401.334 351.1 398.76Z" fill="white"/>
<g id="necklace-heart">
<path d="M394.997 413.784C394.732 429.007 375.926 444.223 366.5 449.965C357.074 444.223 338.268 429.007 338.003 413.784C337.679 395.21 365.085 392.482 366.5 408.521C367.915 392.482 395.321 395.21 394.997 413.784Z" fill="#C4C4C4"/>
<path d="M366.443 450C375.851 444.284 394.732 429.038 394.997 413.784C395.329 394.717 366.443 392.348 366.443 409.836M366.557 450C357.149 444.284 338.268 429.038 338.003 413.784C337.671 394.717 366.557 392.348 366.557 409.836" stroke="#818181" stroke-width="2"/>
</g>
<path id="necklace-heart-light" fill-rule="evenodd" clip-rule="evenodd" d="M346.457 402.351C348.972 400.93 352.298 400 356.679 400C356.856 400 357 400.124 357 400.276C357 400.428 356.856 400.552 356.679 400.552C352.409 400.552 349.209 401.456 346.811 402.811C344.411 404.167 342.795 405.985 341.714 407.834C340.633 409.684 340.091 411.561 339.838 413.025C339.712 413.756 339.659 414.381 339.646 414.845C339.64 415.077 339.643 415.266 339.653 415.407C339.658 415.478 339.664 415.534 339.67 415.575C339.676 415.614 339.681 415.632 339.682 415.635C339.683 415.636 339.683 415.636 339.683 415.636C339.739 415.78 339.649 415.937 339.481 415.985C339.312 416.034 339.13 415.957 339.073 415.812C339.039 415.724 339.021 415.587 339.011 415.439C339 415.28 338.997 415.075 339.003 414.832C339.017 414.345 339.072 413.697 339.202 412.944C339.462 411.439 340.02 409.502 341.139 407.587C342.259 405.67 343.944 403.77 346.457 402.351Z" fill="white"/>
<path id="necklace-text" d="M349.568 424.61L349.311 417.457L350.736 417.405L352.611 422.41C352.784 422.876 352.911 423.225 352.991 423.456C353.063 423.193 353.176 422.806 353.33 422.296L354.864 417.257L356.138 417.211L356.395 424.365L355.482 424.398L355.267 418.41L353.403 424.472L352.549 424.503L350.262 418.488L350.48 424.577L349.568 424.61ZM361.168 423.553C360.853 423.842 360.546 424.048 360.248 424.173C359.952 424.297 359.632 424.366 359.288 424.378C358.718 424.399 358.276 424.276 357.96 424.011C357.644 423.742 357.478 423.391 357.463 422.958C357.454 422.705 357.502 422.472 357.609 422.259C357.718 422.044 357.864 421.869 358.044 421.736C358.229 421.602 358.437 421.498 358.668 421.425C358.839 421.373 359.098 421.32 359.444 421.265C360.151 421.155 360.669 421.036 361 420.906C360.999 420.786 360.998 420.709 360.997 420.677C360.984 420.319 360.892 420.07 360.721 419.929C360.489 419.739 360.152 419.652 359.71 419.668C359.296 419.683 358.993 419.767 358.8 419.92C358.61 420.07 358.474 420.331 358.393 420.702L357.53 420.616C357.595 420.245 357.713 419.945 357.884 419.714C358.055 419.48 358.307 419.296 358.641 419.164C358.975 419.028 359.365 418.952 359.81 418.936C360.253 418.92 360.614 418.959 360.894 419.053C361.175 419.148 361.383 419.272 361.518 419.427C361.654 419.578 361.752 419.773 361.813 420.012C361.848 420.161 361.872 420.43 361.886 420.821L361.928 421.992C361.958 422.808 361.994 423.325 362.038 423.542C362.084 423.755 362.167 423.959 362.284 424.153L361.367 424.186C361.269 424.007 361.203 423.796 361.168 423.553ZM361.025 421.594C360.711 421.736 360.236 421.864 359.602 421.978C359.243 422.043 358.989 422.11 358.842 422.181C358.695 422.251 358.583 422.351 358.506 422.481C358.429 422.608 358.393 422.748 358.399 422.9C358.407 423.135 358.502 423.327 358.683 423.477C358.868 423.626 359.131 423.695 359.473 423.683C359.811 423.671 360.109 423.587 360.367 423.431C360.626 423.272 360.812 423.061 360.926 422.8C361.013 422.598 361.05 422.304 361.036 421.916L361.025 421.594ZM363.363 424.115L363.177 418.932L363.967 418.904L363.995 419.69C364.184 419.315 364.36 419.066 364.525 418.943C364.694 418.819 364.88 418.754 365.085 418.747C365.381 418.736 365.686 418.819 365.998 418.997L365.725 419.823C365.506 419.704 365.289 419.648 365.074 419.656C364.882 419.663 364.712 419.727 364.563 419.85C364.414 419.969 364.311 420.133 364.253 420.34C364.167 420.656 364.13 420.999 364.144 421.37L364.241 424.083L363.363 424.115ZM370.014 421.975L370.882 422.056C370.809 422.655 370.583 423.13 370.205 423.483C369.83 423.832 369.359 424.016 368.793 424.037C368.084 424.062 367.505 423.852 367.055 423.405C366.609 422.956 366.371 422.298 366.34 421.433C366.32 420.873 366.395 420.38 366.565 419.954C366.735 419.528 367.005 419.204 367.375 418.982C367.748 418.757 368.158 418.636 368.603 418.62C369.166 418.6 369.632 418.727 370 419C370.368 419.27 370.612 419.665 370.731 420.185L369.882 420.348C369.788 420.003 369.634 419.746 369.42 419.578C369.208 419.41 368.956 419.331 368.664 419.341C368.221 419.357 367.867 419.529 367.602 419.858C367.337 420.184 367.217 420.69 367.242 421.376C367.267 422.072 367.418 422.573 367.696 422.879C367.974 423.185 368.328 423.33 368.757 423.315C369.102 423.303 369.386 423.187 369.61 422.967C369.833 422.747 369.968 422.416 370.014 421.975ZM375.185 422.019L376.096 422.099C375.972 422.634 375.722 423.055 375.345 423.362C374.969 423.668 374.48 423.833 373.878 423.854C373.12 423.881 372.51 423.67 372.047 423.221C371.588 422.769 371.343 422.121 371.313 421.279C371.282 420.407 371.482 419.722 371.913 419.224C372.345 418.727 372.919 418.465 373.634 418.439C374.327 418.415 374.902 418.63 375.358 419.086C375.814 419.542 376.057 420.198 376.088 421.053C376.09 421.105 376.091 421.183 376.092 421.288L372.227 421.426C372.28 421.995 372.457 422.425 372.757 422.717C373.057 423.009 373.424 423.147 373.857 423.132C374.179 423.12 374.451 423.026 374.672 422.848C374.894 422.671 375.065 422.395 375.185 422.019ZM372.25 420.703L375.144 420.599C375.089 420.164 374.966 419.841 374.776 419.63C374.485 419.301 374.116 419.145 373.67 419.161C373.267 419.176 372.932 419.323 372.665 419.603C372.401 419.883 372.263 420.249 372.25 420.703ZM377.24 423.616L376.984 416.462L377.862 416.431L378.119 423.585L377.24 423.616ZM379.065 420.956C379.031 419.996 379.272 419.276 379.789 418.795C380.221 418.395 380.757 418.184 381.398 418.161C382.11 418.135 382.701 418.348 383.17 418.8C383.639 419.249 383.888 419.885 383.918 420.708C383.942 421.375 383.86 421.904 383.672 422.295C383.487 422.683 383.207 422.99 382.83 423.215C382.457 423.44 382.045 423.561 381.592 423.577C380.867 423.603 380.271 423.392 379.806 422.942C379.343 422.493 379.097 421.831 379.065 420.956ZM379.968 420.924C379.992 421.587 380.154 422.08 380.456 422.401C380.757 422.719 381.127 422.871 381.567 422.855C382.002 422.839 382.359 422.66 382.637 422.318C382.914 421.976 383.041 421.465 383.017 420.785C382.994 420.144 382.83 419.664 382.525 419.346C382.224 419.025 381.857 418.872 381.424 418.888C380.985 418.903 380.626 419.081 380.349 419.42C380.071 419.759 379.944 420.26 379.968 420.924Z" fill="#6B6B6B"/>
<path id="necklace-ribbon02" d="M357.191 405.659L357.151 404.757L356.335 404.37C348.115 400.472 330.11 391.983 323.972 389.266C321.685 388.254 319.35 388.264 317.199 389.209C315.088 390.136 313.261 391.913 311.795 394.262C308.868 398.949 307.176 406.221 307.557 415.088L307.557 415.091C307.955 423.957 310.278 431.052 313.604 435.465C315.271 437.675 317.246 439.286 319.431 440.024C321.656 440.777 323.983 440.582 326.172 439.374C332.049 436.13 349.241 426.094 357.087 421.491L357.866 421.034L357.826 420.132L357.511 412.952L357.506 412.838L357.191 405.659Z" fill="#0160B8" stroke="#053B6D" stroke-width="3"/>
<path id="necklace-ribbon01" d="M375.173 404.869L375.134 403.966L375.913 403.509C383.759 398.906 400.951 388.871 406.828 385.627C409.017 384.418 411.344 384.224 413.569 384.976C415.753 385.715 417.729 387.325 419.396 389.536C422.722 393.949 425.045 401.044 425.443 409.91L425.443 409.913C425.824 418.78 424.132 426.051 421.205 430.739C419.739 433.087 417.912 434.864 415.801 435.792C413.65 436.737 411.315 436.747 409.028 435.735C402.89 433.018 384.884 424.529 376.665 420.631L375.849 420.244L375.809 419.342L375.494 412.162L375.489 412.048L375.173 404.869Z" fill="#0160B8" stroke="#053B6D" stroke-width="3"/>
<rect id="necklace-ribbon00" x="351.855" y="398.129" width="28" height="32" rx="11.5" transform="rotate(-2.51463 351.855 398.129)" fill="#0160B8" stroke="#053B6D" stroke-width="3"/>
<path id="neck-shadow" d="M279.921 376.781C280.796 375.152 281.69 373.548 282.604 371.97C301.271 339.745 328.27 318.495 367 322C396.926 322 420.716 341.417 439.263 369.873C421.511 381.445 396.209 392.03 359.5 395C333.24 397.125 309.75 391.157 290.472 382.195C273.6 400.889 247.443 462.406 250 595C250 614.818 268.554 722.312 283.774 806.397C265.438 725.812 243.911 620.838 243 576.5C242.051 530.34 247.7 436.797 279.921 376.781Z" fill="black" fill-opacity="0.1"/>
<path id="paws-front-left-shadow" d="M362.279 905.312C356.705 911.807 344.409 917.995 320.5 920.5C293.849 923.292 278.405 916.232 269.952 908.57C267.609 917.226 271.487 922.992 277.5 927C289.5 935 357.5 937 360 921.5C361.113 917.704 361.848 912.185 362.279 905.312Z" fill="black" fill-opacity="0.1"/>
<path id="paws-front-right-shadow" d="M470.012 908.532C455.845 919.472 440.22 919.333 409 918.5C389.006 917.967 380.042 910.001 376.633 902.181C376.352 912.749 376.576 919.745 377.5 921.5C382.5 931 420 940 458 927C469.61 923.028 472.255 916.208 470.012 908.532Z" fill="black" fill-opacity="0.1"/>
<path id="ear-left-outside" d="M196.414 138.479L194.935 138.749L194.783 140.245C188.914 197.974 217.451 247.601 232.522 265.297L234.082 267.129L235.598 265.26L307.553 176.555L308.677 175.169L307.428 173.895C270.355 136.082 218.02 134.538 196.414 138.479Z" fill="white" stroke="#AFAFAF" stroke-width="4"/>
<path id="ear-left-linePattern" d="M196.415 138.478L194.936 138.748L194.784 140.243C188.912 197.968 217.449 247.6 232.521 265.293L234.081 267.124L235.597 265.256L307.557 176.556L308.681 175.17L307.432 173.896C270.362 136.084 218.026 134.539 196.415 138.478Z" fill="white" stroke="#AFAFAF" stroke-width="4"/>
<path id="ear-left-siamesePattern" d="M196.415 138.478L194.936 138.748L194.784 140.243C188.912 197.968 217.449 247.6 232.521 265.293L234.081 267.124L235.597 265.256L307.557 176.556L308.681 175.17L307.432 173.896C270.362 136.084 218.026 134.539 196.415 138.478Z" fill="white" stroke="#AFAFAF" stroke-width="4"/>
<path id="ear-left-outside-tricolorPattern" d="M196.414 138.479L194.935 138.749L194.783 140.245C188.914 197.974 217.451 247.601 232.522 265.297L234.082 267.129L235.598 265.26L307.553 176.555L308.677 175.169L307.428 173.895C270.355 136.082 218.02 134.538 196.414 138.479Z" fill="#E9B388" stroke="#AFAFAF" stroke-width="4"/>
<path id="ear-left-outside-shadow" d="M202.831 139.594C205.624 207.725 224.761 242.726 239.443 257.345L234.045 264C219.205 246.576 190.975 197.471 196.773 140.447C198.582 140.117 200.61 139.826 202.831 139.594Z" fill="black" fill-opacity="0.1"/>
<path id="ear-left-inside" d="M203.383 158C199.883 203 221.217 236.666 232.383 255C243.583 212.6 270.55 188.166 281.383 181.5C245.783 157.5 214.55 155.833 203.383 158Z" fill="#FFC4F9"/>
<path id="ear-left-inside-shadow" d="M216.5 180.5C233.007 160.42 265.608 189.609 277 200.177L238.311 255C226.06 242.891 199.993 200.58 216.5 180.5Z" fill="black" fill-opacity="0.05"/>
<path id="ear-right-outside" d="M373.04 179.237L372.795 180.44L373.756 181.204L458.607 248.566L461.247 250.663L461.821 247.34C465.312 227.137 468.406 195.654 466.329 166.814C465.291 152.397 462.954 138.542 458.671 127.057C454.395 115.591 448.091 106.257 438.965 101.247L438.076 100.759L437.157 101.187C428.218 105.357 414.399 114.212 401.723 127.309C389.04 140.415 377.406 157.868 373.04 179.237Z" fill="white" stroke="#AFAFAF" stroke-width="4"/>
<g id="ear-right-linePattern">
<path d="M375 179.64C383.54 137.86 420.56 111.14 438 103C472.14 121.74 466.79 206.81 459.85 247L375 179.64Z" fill="white"/>
<path d="M373.041 179.239L372.795 180.443L373.756 181.206L458.606 248.566L461.247 250.663L461.821 247.34C465.31 227.137 468.402 195.653 466.325 166.813C465.286 152.395 462.95 138.54 458.667 127.055C454.391 115.589 448.087 106.256 438.962 101.247L438.073 100.759L437.154 101.188C428.217 105.359 414.4 114.216 401.725 127.314C389.043 140.42 377.408 157.872 373.041 179.239Z" stroke="black" stroke-opacity="0.1" stroke-width="4"/>
</g>
<path id="ear-right-siamesePattern" d="M373.04 179.237L372.795 180.44L373.756 181.204L458.607 248.566L461.247 250.663L461.821 247.34C465.312 227.137 468.406 195.654 466.329 166.814C465.291 152.397 462.954 138.542 458.671 127.057C454.395 115.591 448.091 106.257 438.965 101.247L438.076 100.759L437.157 101.187C428.218 105.357 414.399 114.212 401.723 127.309C389.04 140.415 377.406 157.868 373.04 179.237Z" fill="white" stroke="#AFAFAF" stroke-width="4"/>
<path id="ear-right-outside-tricolorPattern-black" d="M373.04 179.237L372.795 180.44L373.756 181.204L458.607 248.566L461.247 250.663L461.821 247.34C465.312 227.137 468.406 195.654 466.329 166.814C465.291 152.397 462.954 138.542 458.671 127.057C454.395 115.591 448.091 106.257 438.965 101.247L438.076 100.759L437.157 101.187C428.218 105.357 414.399 114.212 401.723 127.309C389.04 140.415 377.406 157.868 373.04 179.237Z" fill="black" stroke="#AFAFAF" stroke-width="4"/>
<path id="ear-right-inside" d="M399.383 171.5C438.383 184 454.217 216.167 458.383 229.5C465.583 157.5 450.383 132.5 439.883 123C422.883 135.5 406.883 155.5 399.383 171.5Z" fill="#FFC3F9"/>
<path id="ear-right-inside-shadow" d="M440.026 146.547C425.04 139.483 412.431 158.321 408 168.622L454.528 201C455.938 185.792 455.012 153.611 440.026 146.547Z" fill="black" fill-opacity="0.05"/>
<path id="head" d="M346.867 157.264C269.818 161.116 227.371 218.086 232.78 279.948C235.23 314.991 248.108 343.371 272.646 361.247C297.152 379.1 332.924 386.21 380.612 379.525C428.531 372.807 452.85 352.205 464.743 329.231C476.538 306.447 475.91 281.696 474.699 266.896C474.688 261.696 473.678 255.839 471.928 248.26C470.834 243.525 469.433 238.038 467.776 231.553C466.769 227.612 465.668 223.301 464.484 218.567C457.921 192.312 423.548 153.43 346.867 157.264Z" fill="white" stroke="#AFAFAF" stroke-width="4"/>
<path id="head-linePattern08" d="M271.27 187.4C275.2 184.03 279.43 180.91 283.94 178.07C299.98 181.18 315.02 189.36 324.78 206.12C319.55 197.28 302.62 183.98 271.27 187.4Z" fill="white"/>
<path id="head-linePattern07" d="M235.71 289.19C235.31 286.12 235 282.98 234.78 279.79C234.59 277.65 234.46 275.52 234.39 273.4C238.66 266.56 241.42 259.13 244.18 251.68C247.56 242.57 250.94 233.46 257.09 225.41C267.72 211.51 285.4 208.91 292.91 209.35C292.53 209.4 292.1 209.44 291.64 209.49C285.49 210.16 272.69 211.55 259.48 227.22C254.98 232.56 252.58 240.42 249.75 249.72C247.34 257.63 244.61 266.58 240.01 275.89C246.09 275.04 253.22 274.69 261.28 275.29C276.69 276.45 286.95 279.04 297.52 282.99C306.63 286.39 306.02 284.69 315.52 286.99C336 286.01 352.86 280.7 357.13 276.22C357.45 275.88 357.75 275.57 358.02 275.3C353.81 281.53 341.01 294 323.51 294C313.38 294 304.08 291.15 294.8 288.3C284.04 285 273.29 281.7 261.29 282.86C250.65 283.88 241.91 286.56 235.71 289.19Z" fill="white"/>
<path id="head-linePattern06" d="M422.44 173.33C426.08 175.25 429.45 177.3 432.57 179.45C412.67 182.55 401.33 196.48 397.22 206.45C403.71 190.45 412.54 179.91 422.44 173.33Z" fill="white"/>
<path id="head-linePattern05" d="M381.97 160.7C384.95 161.13 387.85 161.64 390.65 162.21C383.79 171.51 381.05 183.57 385.93 200.26C390.73 216.66 383.93 229.43 379.93 233.76C383.61 217.2 382.78 214.75 380.77 208.86C379.51 205.15 377.78 200.08 376.43 189.26C374.84 176.55 377.9 167.11 381.97 160.7Z" fill="white"/>
<path id="head-linePattern04" d="M333.72 160.49C329.43 161.08 325.26 161.85 321.22 162.78C330.48 169.42 341.4 181.01 342.78 196.89C344.32 214.66 359.05 232 366.96 239.17C367.25 239.44 367.52 239.68 367.78 239.89C367.52 239.66 367.25 239.42 366.96 239.17C362.04 234.49 353.04 220.71 350.78 196.89C349.13 179.57 341.08 167.56 333.72 160.49Z" fill="white"/>
<path id="head-linePattern03" d="M397 207C397.07 206.82 397.15 206.64 397.22 206.46C397.14 206.64 397.07 206.82 397 207Z" fill="white"/>
<path id="head-linePattern02" d="M457.33 206.08C458.65 208.48 459.76 210.85 460.65 213.15C459.18 211.48 457.64 210.03 455.97 208.83C439.34 196.85 426.59 198.61 420.46 199.46C420 199.52 419.57 199.58 419.19 199.63C426.28 197.41 443.7 195.64 457.33 206.08Z" fill="white"/>
<path id="head-linePattern01" d="M472.84 268.74C472.98 270.66 473.11 272.72 473.2 274.9C465.26 275.68 457.75 277.99 450.23 280.3C440.95 283.15 431.65 286 421.52 286C404.02 286 392.33 272.31 388.12 266.08C388.39 266.36 388.69 266.67 389.01 267C393.28 271.48 404.04 279.32 424.51 280.3C431.48 280.63 437.9 278.3 447.01 274.9C454.96 271.93 462.29 270.72 472.84 268.74Z" fill="white"/>
<path id="head-linePattern00" d="M324.78 206.12C324.86 206.25 324.93 206.37 325 206.5C324.93 206.38 324.85 206.25 324.78 206.12Z" fill="white"/>
<path id="head-cwPattern" d="M247.138 328.003C266.976 367.148 310.336 387.357 380.334 377.544C429.009 370.721 452.687 349.506 463.878 326.496C461.908 325.061 460.245 322.328 459 318C448.5 281.5 426.5 282.5 406 284.5C385.5 286.5 380.5 261.001 380.5 247.001C380.5 233.001 361.5 236.001 364 248.001C366.5 260.001 367.5 280.001 349 286.001C340.784 288.783 334.113 289.74 328.429 290.555C312.667 292.815 304.494 293.987 292 330.001C283.811 353.605 265.057 345.035 247.138 328.003Z" fill="white"/>
<path id="head-siamesePattern" d="M259.5 313.5C245 264 232 187.5 362 173.5H362C382.5 173.5 463.5 173.5 463.5 246C471 326 458.5 350.106 382.5 359C335.5 364.5 274 363 259.5 313.5Z" fill="white"/>
<path id="head-tricolorPattern00" d="M414.56 169.586C424.218 181.908 431.778 196.084 426 205.5C421.268 213.211 408.49 215.762 394.813 218.493C369.468 223.554 341.036 229.231 355 269.5C341.167 272.834 311.4 271.3 303 238.5C296.349 212.531 303.339 198.998 311.518 183.164C314.686 177.031 318.033 170.552 320.834 162.872C329.023 160.954 337.741 159.722 346.966 159.261C375.065 157.856 397.335 162.236 414.56 169.586Z" fill="#E9B388"/>
<path id="head-tricolorPattern01" d="M460.002 211.562C461.103 214.147 461.946 216.66 462.544 219.052C463.735 223.818 464.839 228.14 465.847 232.084C470.158 248.955 472.699 258.903 472.699 266.979C473.044 271.175 473.34 276.152 473.318 281.642C456.325 279.81 433.484 271.296 431.5 246.501C429.739 224.492 445.452 214.952 460.002 211.562Z" fill="#E9B388"/>
<path id="head-tricolorPattern-black" d="M347 162.5C335 165.167 304.6 185.7 301 216.5C300.54 220.436 300.242 225.083 299.912 230.228C297.931 261.111 294.799 309.939 248.572 330.725C240.666 316.284 236.122 299.107 234.774 279.791C229.455 219.052 271.043 163.057 346.966 159.261C422.89 155.465 456.257 193.902 462.544 219.052C463.735 223.817 464.839 228.14 465.847 232.084C469.233 245.335 471.527 254.314 472.356 261.471C463.462 263.065 452.915 263.167 440.5 261.5C424.278 261.5 419.404 243.079 413.84 222.046C405.683 191.215 396.042 154.772 347 162.5Z" fill="black"/>
<path id="head-shadow-left" d="M234.774 279.791C239.61 349.072 285.551 390.831 380.334 377.544C389.516 376.257 397.809 374.457 405.296 372.23C375.416 378.491 326.912 382.306 285.5 361C233.759 334.379 234.353 265.117 241.082 230.874C235.478 246.11 233.283 262.764 234.774 279.791Z" fill="black" fill-opacity="0.1"/>
<path id="whisker-left-1" d="M206.319 332.125C235.519 300.925 263.819 293.625 280.819 291.625C291.319 290.625 296.319 290.625 298.319 293.125C300.193 295.467 302.819 299.625 284.819 299.125C253.619 299.125 219.486 321.125 206.319 332.125Z" fill="#AFAFAF"/>
<path id="whisker-left-2" d="M215.819 350.625C235.819 319.125 271.319 306.397 288.319 304.397C298.819 303.397 303.319 303.125 305.319 304.397C307.845 306.004 310.319 312.397 292.319 311.897C261.119 311.897 228.986 339.625 215.819 350.625Z" fill="#AFAFAF"/>
<path id="whisker-left-3" d="M226.819 367.124C249.362 330.821 273.724 324.698 290.006 319.416C300.108 316.384 305.012 315.407 307.462 317.469C309.757 319.4 313.145 322.964 295.394 325.99C264.795 332.085 237.583 353.764 226.819 367.124Z" fill="#AFAFAF"/>
<path id="whisker-right-1" d="M516.883 316C492.167 291.723 468.213 286.042 453.824 284.486C444.937 283.708 440.704 283.708 439.012 285.653C437.425 287.476 435.203 290.711 450.438 290.322C476.847 290.322 505.739 307.441 516.883 316Z" fill="#AFAFAF"/>
<path id="whisker-right-2" d="M508.883 331C492.008 306.246 462.054 296.244 447.71 294.672C438.851 293.886 435.054 293.672 433.366 294.672C431.235 295.935 429.147 300.959 444.335 300.566C470.661 300.566 497.774 322.356 508.883 331Z" fill="#AFAFAF"/>
<path id="whisker-right-3" d="M499.562 344C480.516 315.387 459.931 310.561 446.174 306.397C437.639 304.008 433.496 303.238 431.426 304.862C429.486 306.385 426.624 309.194 441.622 311.579C467.476 316.383 490.467 333.47 499.562 344Z" fill="#AFAFAF"/>
<path id="mouth" d="M372.383 317.5C374.383 309.9 373.217 295.333 372.383 289L377.383 288C377.217 295.167 377.383 311.5 379.383 319.5C381.883 329.5 400.383 331 410.383 327.5C420.981 323.791 429.717 318.833 432.383 315C431.55 318.667 425.983 327.4 410.383 333C394.783 338.6 380.883 330.667 375.883 326C374.883 328.5 365.383 341.5 342.883 343.5C324.883 345.1 312.717 331.833 308.883 325C313.717 330.333 327.283 340.7 342.883 339.5C362.383 338 369.883 327 372.383 317.5Z" fill="#AFAFAF"/>
<path id="nose" d="M361.883 277C357.483 282.2 368.717 290.167 374.883 293.5C383.883 289.5 388.983 281.4 387.383 277C385.383 271.5 367.383 270.5 361.883 277Z" fill="#FFC3F9"/>
<path id="eye-right-shadow" d="M438.961 201.652C403.111 190.367 389.596 239.66 387.319 265.717C404.295 284.636 430.984 282.177 443.559 265.717C453.802 252.31 465.849 212.819 438.961 201.652Z" fill="#AFAFAF"/>
<path id="eye-right-base" d="M436.69 211.401C405.584 201.83 393.858 243.635 391.883 265.734C406.612 281.78 429.768 279.694 440.68 265.734C449.567 254.364 460.019 220.872 436.69 211.401Z" fill="white"/>
<path id="eye-right-color" d="M396.821 241.61C396.82 241.74 396 243.87 396 244C396 259.464 405.44 270 416.075 270C426.709 270 435.33 257.464 435.33 242C435.33 226.536 426.709 214 416.075 214C415.583 214 415.095 214.027 414.612 214.08C406.164 219.721 400.447 230.474 396.821 241.61Z" fill="#0BF86A"/>
<path id="right-pupil-expanded" class="pupil-expanded" d="M396.516 242.563C397.745 253.574 404.576 262 412.819 262C421.932 262 429.319 251.703 429.319 239C429.319 226.297 421.932 216 412.819 216C412.556 216 412.294 216.009 412.034 216.026C404.759 222.179 399.754 232.265 396.516 242.563Z" fill="black"/>
<ellipse id="right-pupil-normal" class="pupil-normal" cx="413.5" cy="240" rx="12.5" ry="21" fill="black"/>
<path id="right-pupil-contracted" class="pupil-contracted" fill-rule="evenodd" clip-rule="evenodd" d="M411.522 223.091C410.915 225.276 409.814 231.329 410.26 238.056C410.705 244.784 412.786 250.827 413.771 253.008C414.446 251.019 415.687 245.178 415.247 237.726C414.698 228.411 411.723 223.077 411.522 223.091Z" fill="black"/>
<path id="eye-right-light" d="M400.215 232.795C401.345 234.713 403.432 236 405.819 236C409.409 236 412.319 233.09 412.319 229.5C412.319 225.91 409.409 223 405.819 223C405.794 223 405.769 223 405.744 223C403.637 225.97 401.802 229.292 400.215 232.795Z" fill="white"/>
<path id="eye-left-shadow" d="M292.085 209.673C339.784 198.245 356.291 248.162 359.319 274.549C336.734 293.707 302.699 291.217 285.966 274.549C272.338 260.972 256.31 220.981 292.085 209.673Z" fill="#AFAFAF"/>
<path id="eye-left-base" d="M295.048 220.405C337.048 210.805 352.881 252.739 355.548 274.905C335.661 291 304.394 288.908 289.661 274.905C277.661 263.5 263.548 229.905 295.048 220.405Z" fill="white"/>
<path id="eye-left-color" d="M324.828 223.077C336.253 228.732 343.982 239.528 348.882 250.71C348.883 250.806 348.883 250.903 348.883 251C348.883 266.464 337.243 279 322.883 279C308.524 279 296.883 266.464 296.883 251C296.883 235.536 308.524 223 322.883 223C323.538 223 324.186 223.026 324.828 223.077Z" fill="#0BF86A"/>
<path id="left-pupil-expanded" class="pupil-expanded" d="M329.801 226.007C338.088 231.719 344.076 240.28 348.214 249.226C347.208 259.777 339.132 268 329.319 268C318.826 268 310.319 258.598 310.319 247C310.319 235.402 318.826 226 329.319 226C329.48 226 329.641 226.002 329.801 226.007Z" fill="black"/>
<ellipse id="left-pupil-normal" class="pupil-normal" cx="327.5" cy="249" rx="13.5" ry="22" fill="black"/>
<path id="left-pupil-contracted" class="pupil-contracted" fill-rule="evenodd" clip-rule="evenodd" d="M324.394 230.217C323.747 232.549 322.572 239.009 323.047 246.189C323.522 253.369 325.743 259.819 326.794 262.146C327.515 260.023 328.839 253.79 328.37 245.837C327.784 235.895 324.608 230.202 324.394 230.217Z" fill="black"/>
<circle id="eye-left-light" cx="317.819" cy="235.5" r="6.5" fill="white"/>
<path id="party" d="M289.5 175V175.713L290.052 176.163C292.608 178.245 298.721 180.874 308.879 182.653C319.109 184.444 333.61 185.403 353.108 183.996C372.62 182.588 385.517 179.187 393.735 175.44C397.845 173.566 400.814 171.591 402.856 169.709C404.875 167.847 406.075 165.993 406.461 164.341L406.545 163.982L406.452 163.625C398.767 133.887 374.062 63.6778 336.628 21.0107L335.212 19.3974L334.183 21.2812C326.725 34.9416 315.564 58.9729 306.265 86.7615C296.97 114.538 289.5 146.17 289.5 175Z" fill="white" stroke="#AFAFAF" stroke-width="3"/>
<path id="party-color02" d="M381.906 99.0876C358.998 101.686 330.673 101.022 306.418 91.0919C311.297 76.0405 316.784 61.9833 322.019 49.9434C332.429 53.9181 345.355 56.9127 360.808 57.6189C368.79 71.1151 375.849 85.3356 381.906 99.0876Z" fill="#FFC3F9"/>
<path id="party-color03" d="M404.078 160.54C376.595 167.066 328.555 171.157 292.402 152.266C294.229 136.686 297.707 120.789 302.027 105.538C319.369 115.99 348.764 125.099 390.316 119.436C396.559 135.554 401.196 150.019 404.078 160.54Z" fill="#FFC3F9"/>
<circle id="party-color01" cx="335" cy="13" r="11.5" fill="#FFC3F9" stroke="#AFAFAF" stroke-width="3"/>
<path id="party-shadow" d="M334.539 23.7793C319.425 52.0651 291 119.01 291 175C292.639 176.336 296.163 178.066 301.856 179.589C303.572 129.84 322.147 61.6914 334.539 23.7793Z" fill="black" fill-opacity="0.1"/>
<path id="tophat-00" d="M301.193 163.084L301.006 163.101L300.829 163.163C286.395 168.246 270.501 174.548 256.937 181.089C250.155 184.359 243.935 187.699 238.762 190.988C233.609 194.263 229.408 197.542 226.742 200.711C224.111 203.836 222.667 207.247 224.002 210.537C225.283 213.695 228.889 216.06 234.453 217.836C245.701 221.428 266.814 223.188 301.368 222.252L301.383 222.251L301.399 222.251C330.357 220.86 360.036 214.498 385.53 206.139C410.999 197.789 432.418 187.405 444.796 177.896C447.898 175.513 450.467 173.16 452.395 170.879C454.315 168.609 455.665 166.337 456.22 164.113C456.787 161.838 456.512 159.633 455.217 157.675C453.956 155.769 451.828 154.247 448.971 153.059C443.277 150.692 434.134 149.427 421.093 149.503C408.007 149.58 390.841 151.012 368.997 154.157L368.984 154.158L368.971 154.16C337.409 159.262 310.62 162.236 301.193 163.084Z" fill="black" stroke="#505050" stroke-width="3"/>
<path id="tophat-base-shadow" d="M301.327 164.578C243.729 184.863 163.091 224.497 301.327 220.752C311.687 220.254 322.144 219.117 332.469 217.476C362.513 205.202 376.685 191.629 380.5 184L308.971 163.813C305.797 164.153 303.216 164.408 301.327 164.578Z" fill="black" fill-opacity="0.1"/>
<path id="tophat-01" d="M277.967 194.989L278.217 196.055L279.309 196.142C292.675 197.198 314.784 197.302 337.779 194.192C360.739 191.087 384.783 184.751 401.86 172.796L402.589 172.286L402.491 171.403C400.148 150.216 396.724 117.932 393.551 88.0181C389.687 51.5946 386.197 18.6851 385.486 13.6014C385.281 12.1396 384.134 11.2108 382.968 10.6278C381.759 10.0235 380.148 9.58934 378.277 9.27304C374.516 8.63689 369.304 8.41481 363.161 8.52847C350.85 8.75626 334.515 10.3397 317.906 12.8549C301.297 15.3701 284.354 18.8259 270.833 22.8148C264.076 24.8083 258.132 26.9468 253.497 29.1864C248.937 31.3902 245.378 33.8138 243.722 36.5039L243.5 36.8655V37.29C243.5 38.5017 243.89 41.1304 244.532 44.7172C245.185 48.3694 246.13 53.1703 247.296 58.8356C249.63 70.1685 252.859 84.9955 256.446 101.083C263.62 133.261 272.228 170.508 277.967 194.989Z" fill="black" stroke="#505050" stroke-width="3"/>
<path id="tophat-line" d="M279.427 194.647C305.965 196.745 367.433 195.066 401 171.568C399.765 160.4 398.231 146.161 396.592 130.815C352.978 149.807 303.159 153.044 269.359 151.251C273.069 167.395 276.597 182.573 279.427 194.647Z" fill="#505050"/>
<path id="tophat-top-shadow" d="M289.289 195.175C285.64 195.06 282.325 194.876 279.428 194.647C267.952 145.691 245 45.6826 245 37.2904C246.339 35.1137 249.293 32.9608 253.461 30.876C261.994 76.5703 275.52 142.452 289.289 195.175Z" fill="black" fill-opacity="0.1"/>
</g>
</svg>
