<svg width="546" height="840" viewBox="0 0 546 840" fill="none" xmlns="http://www.w3.org/2000/svg">
<g id="catrenderfixed">
<path id="tail" d="M237.122 643.481L237.806 640.72L234.977 641.01C225.728 641.959 212.596 639.246 203.253 628.067C193.918 616.898 188.004 596.843 194.15 562.351C194.83 558.534 195.503 554.774 196.167 551.068C210.617 470.402 220.569 414.846 194.037 348.755C179.965 313.704 143.401 289.88 106.139 282.352C68.9203 274.832 30.071 283.433 11.9531 314.492C3.03537 329.78 0.566548 343.09 2.74215 354.084C4.9219 365.098 11.7066 373.492 20.696 379.016C38.5484 389.988 65.4225 389.859 83.8475 376.624C100.857 364.406 122.014 365.605 137.213 377.274C152.365 388.906 161.835 411.179 154.733 441.545C152.444 451.333 149.773 461.359 147.062 471.536C141.258 493.322 135.269 515.801 132.446 538.124C128.287 571.025 130.907 604.054 151.002 635.087C166.879 659.606 181.524 676.404 193.42 687.453C205.26 698.45 214.502 703.866 219.6 705.414L221.615 706.026L222.122 703.981L237.122 643.481Z" fill="white" stroke="#AFAFAF" stroke-width="4"/>
<path id="tail-linePattern05" d="M100.95 366.91C114.1 364.21 127.69 367.44 138.41 375.67C157.13 361.45 165.34 337.46 168.21 315.52C155.6 303.88 140.03 294.94 123.53 289.19C119 313.59 108.78 345.17 100.95 366.91Z" fill="white"/>
<path id="tail-linePattern04" d="M194.52 355.57C180.72 376.86 163.15 384.99 149.13 387.03C155.17 395.85 158.96 407.24 159.12 420.81C181.92 423.29 196.92 412.56 205.98 399.52C203.78 385.07 200.09 370.57 194.52 355.57Z" fill="white"/>
<path id="tail-linePattern03" d="M208.07 453.35C199.07 457.75 182.97 457.56 155.71 446.08C153.62 454.68 151.3 463.42 148.95 472.23C147.89 476.2 146.83 480.19 145.78 484.19C163.04 493.17 187.17 498.92 205.16 483.6C206.5 473.21 207.5 463.17 208.07 453.35Z" fill="white"/>
<path id="tail-linePattern02" d="M200.69 513.56C177.39 528.4 153.83 528.06 136.75 523.46C134.32 536.81 132.75 550.18 132.76 563.45C152.31 574.38 176.14 566.29 193.27 555.89C193.57 554.22 193.87 552.57 194.16 550.92C196.51 537.84 198.73 525.44 200.69 513.56Z" fill="white"/>
<path id="tail-linePattern01" d="M189.92 580.03C180.56 593.35 164.01 606.29 139.11 605.65C142.24 615.25 146.67 624.72 152.68 634.01C154.37 636.62 156.05 639.15 157.71 641.59C168.38 638.08 180.22 626.61 190.32 600.19C189.6 594.25 189.42 587.56 189.92 580.03Z" fill="white"/>
<path id="tail-linePattern00" d="M198.18 624.43C195.56 640.72 191.2 659.18 184.37 675.52C194.66 686.65 203.52 693.95 210.21 698.36L222 676.5L212.83 638.47C207.4 635.54 202.25 631.03 198.18 624.43Z" fill="white"/>
<path id="tail-shadow" fill-rule="evenodd" clip-rule="evenodd" d="M222.699 693.344L220.181 703.5C210.847 700.667 184.281 682.8 152.681 634C119.498 582.756 134.657 525.865 148.951 472.222C151.672 462.01 154.362 451.915 156.681 442C171.181 380 118.181 349.5 82.6807 375C47.1807 400.5 -21.3193 375.5 13.6807 315.5C16.3899 310.856 19.5844 306.723 23.1857 303.084C13.6807 329.5 8.5 378 62.5 356C118.346 330.043 158 343 168.5 376C179 409 165.5 472.5 147.5 548.5C142 613.546 188.833 668.5 218.5 690.5L222.699 693.344Z" fill="black" fill-opacity="0.1"/>
<path id="paw-left" d="M430.12 814.42L428.681 814V812.5V745.5V743.858L430.291 743.538C440.9 741.433 457.262 739.48 471.894 740.492C479.203 740.998 486.209 742.251 491.88 744.679C497.442 747.06 501.926 750.667 503.943 755.996C509.344 762.639 516.198 773.308 519.398 784.107C522.634 795.024 522.286 806.796 511.83 814.137C506.783 817.68 500.275 819.746 493.198 820.82C486.104 821.896 478.305 821.996 470.568 821.509C455.097 820.535 439.649 817.203 430.12 814.42Z" fill="white" stroke="#AFAFAF" stroke-width="4"/>
<path id="paw-right" d="M316.241 814.42L317.681 814V812.5V745.5V743.858L316.07 743.538C305.461 741.433 289.1 739.48 274.468 740.492C267.158 740.998 260.152 742.251 254.481 744.679C248.919 747.06 244.435 750.667 242.419 755.996C237.017 762.639 230.164 773.308 226.963 784.107C223.728 795.024 224.076 806.796 234.531 814.137C239.578 817.68 246.086 819.746 253.163 820.82C260.258 821.896 268.056 821.996 275.794 821.509C291.265 820.535 306.712 817.203 316.241 814.42Z" fill="white" stroke="#AFAFAF" stroke-width="4"/>
<path id="paw-left-shadow" d="M510.681 812.5C529.481 799.3 512.847 770 502.181 757C495.381 737.8 451.681 741.333 430.681 745.5V812.5C449.514 818 491.881 825.7 510.681 812.5Z" fill="black" fill-opacity="0.1"/>
<path id="paw-right-shadow" d="M235.681 812.5C216.881 799.3 233.514 770 244.181 757C250.981 737.8 294.681 741.333 315.681 745.5V812.5C296.847 818 254.481 825.7 235.681 812.5Z" fill="black" fill-opacity="0.1"/>
<path id="body-back" d="M251.39 506.595L250.68 506.823L250.292 507.46C233.851 534.47 212.802 581.277 205.71 631.797C198.617 682.319 205.453 736.853 245.21 778.856C272.33 809.029 317.616 819.502 378.73 817.999C409.321 817.247 442.521 813.723 470.701 805.143C498.811 796.584 522.352 782.86 532.973 761.387C538.267 750.685 541.595 735.078 542.758 716.421C543.923 697.725 542.921 675.816 539.444 652.414C532.49 605.621 515.614 552.697 486.177 507.41L485.796 506.824L485.133 506.603L371.314 468.603L370.694 468.396L370.071 468.595L251.39 506.595Z" fill="white" stroke="#AFAFAF" stroke-width="4"/>
<path id="body-back-linePattern07" d="M513.844 781.6C510.974 783.94 507.874 786.13 504.594 788.18C497.874 784.08 489.554 774.86 487.594 754.45C485.954 737.41 476.144 719.02 470.744 712C476.464 716.75 488.954 731.05 493.094 750.24C496.674 766.79 507.094 777.14 513.844 781.6Z" fill="white"/>
<path id="body-back-linePattern06" d="M536.704 744.72C535.204 750.79 533.354 756.09 531.174 760.5C531.044 760.76 530.914 761.01 530.784 761.27C520.094 755.26 506.284 741.15 503.104 708.56C500.534 682.25 485.184 653.85 476.734 643.01C485.694 650.35 505.234 672.43 511.724 702.06C516.114 722.08 527.084 736.22 536.704 744.72Z" fill="white"/>
<path id="body-back-linePattern05" d="M540.334 678.32C541.154 689.18 541.384 699.52 541.084 709.11C527.914 697.97 516.474 682.1 513.084 660.53C504.294 604.57 501.534 595.78 486.964 577.95C492.914 577.11 508.774 588.93 524.634 642.98C529.164 658.41 534.604 669.89 540.334 678.32Z" fill="white"/>
<path id="body-back-linePattern04" d="M516.604 572.53C522.284 587.54 526.904 602.68 530.554 617.57C528.584 613.57 526.724 609.08 525.024 604.06C516.534 579.05 495.304 554.89 484.714 546.26C491.664 549.72 504.804 558.65 516.604 572.53Z" fill="white"/>
<path id="body-back-linePattern03" d="M214.554 598.1C218.714 582.22 223.934 567.15 229.544 553.49C240.614 541.34 252.344 533.46 258.774 530.26C248.184 538.9 226.954 563.05 218.464 588.06C217.234 591.68 215.924 595.02 214.554 598.1Z" fill="white"/>
<path id="body-back-linePattern02" d="M206.604 689.32C205.414 679.23 205.044 669.04 205.354 658.89C210.274 650.85 214.904 640.41 218.844 626.97C234.694 572.92 250.564 561.09 256.514 561.94C241.944 579.77 239.184 588.56 230.394 644.52C227.374 663.76 217.944 678.46 206.604 689.32Z" fill="white"/>
<path id="body-back-linePattern01" d="M220.654 739.52C217.944 733.78 215.634 727.92 213.694 721.98C221.184 713.43 228.404 701.47 231.754 686.01C238.154 656.41 257.424 634.34 266.254 627.01C257.924 637.84 242.784 666.22 240.254 692.51C237.834 717.48 229.274 731.59 220.654 739.52Z" fill="white"/>
<path id="body-back-linePattern00" d="M240.794 770.91C247.104 766.28 254.114 756.98 255.904 738.45C257.544 721.41 267.354 703.02 272.744 696C267.024 700.75 254.534 715.05 250.394 734.24C247.534 747.49 240.274 756.77 234.034 762.23C236.144 765.17 238.404 768.07 240.794 770.91Z" fill="white"/>
<path id="body-back-shadow" d="M214.321 599.023C199.205 657.485 198.686 726.811 246.681 777.5C273.181 807 317.681 817.5 378.681 816C439.681 814.5 510.681 801.945 531.181 760.5C544.963 732.635 545.556 669.011 526.686 602.955C534.686 665.754 545.261 744.413 496 772C471 786 421 800.5 300.5 787.5C221.648 778.993 209.012 672.867 214.321 599.023Z" fill="black" fill-opacity="0.1"/>
<path id="body-front-shadow" d="M353 587.5C352.6 612.7 357.167 689 359.5 724L339 716L304 566L322 468.5L451.5 490.5L438.5 696L383.5 724C386.167 688.667 391.9 611.9 393.5 587.5C395.5 557 388.5 539.5 371.5 539.5C354.5 539.5 353.5 556 353 587.5Z" fill="black" fill-opacity="0.1"/>
<path id="body-front" d="M496.999 472.939C495.993 440 486.96 377.53 466.623 323.236C456.455 296.09 443.412 270.852 427.028 252.369C410.644 233.886 390.795 222.03 367.09 222C338.832 219.469 316.625 229.843 299.352 247.899C282.127 265.903 269.822 291.515 261.091 319.53C243.625 375.57 240.248 441.937 241 478.541C241.605 507.954 251.189 563.635 262.865 621.111C274.428 678.033 288.087 736.92 297.259 774.262C279.121 789.406 270.448 800.998 268.006 810.107C266.74 814.828 267.14 818.914 268.794 822.404C270.429 825.851 273.202 828.539 276.391 830.664C278.173 831.852 280.808 832.825 283.88 833.631C286.997 834.448 290.734 835.136 294.84 835.678C303.051 836.763 312.858 837.283 322.359 837.062C331.84 836.842 341.129 835.881 348.264 833.954C351.823 832.993 354.963 831.761 357.338 830.179C359.67 828.626 361.48 826.585 361.952 823.949C364.147 816.349 364.874 802.576 364.75 785.454C364.624 768.149 363.622 747.137 362.246 725.001C360.958 704.27 359.346 682.591 357.815 662.007C356.07 638.538 354.43 616.491 353.497 598.894C352.981 589.169 352.375 580.106 351.818 571.779C351.432 566.006 351.07 560.588 350.778 555.548C350.059 543.151 349.756 532.923 350.492 524.742C351.23 516.53 352.993 510.688 356.144 506.818C359.216 503.046 363.857 500.854 371.098 500.498C378.065 500.155 382.917 502.703 386.396 507.441C389.976 512.319 392.186 519.646 393.327 528.932C395.608 547.484 393.515 572.752 391.009 598.809C388.509 624.809 383.383 678.573 379.506 727.028C377.568 751.253 375.941 774.169 375.112 791.632C374.697 800.359 374.48 807.752 374.525 813.275C374.548 816.034 374.636 818.36 374.804 820.169C374.887 821.072 374.993 821.877 375.129 822.558C375.258 823.206 375.439 823.878 375.73 824.432C377.328 827.467 381.192 830.036 386.084 832.045C391.098 834.105 397.622 835.75 405.131 836.673C420.152 838.518 439.335 837.499 458.647 830.892C466.598 828.172 471.085 823.967 472.365 818.557C473.608 813.303 471.643 807.584 468.359 802.185C462.015 791.76 449.877 781.107 440.299 774.185C455.425 719.293 470.036 660.644 480.649 607.517C491.34 553.999 498.006 505.933 496.999 472.939Z" fill="white" stroke="#AFAFAF" stroke-width="4"/>
<path id="body-front-linePattern16" d="M486.382 565.12C481.962 562.7 472.162 563.19 455.102 577.29C433.822 594.89 414.492 588.96 407.492 583.79C414.962 597.62 435.502 620.49 457.902 601.29C468.322 592.36 476.452 588.5 482.482 587.36C483.882 579.79 485.182 572.37 486.382 565.12Z" fill="white"/>
<path id="body-front-linePattern15" d="M466.562 663C461.112 662.98 452.552 666.05 440.162 676.29C418.882 693.89 399.552 687.96 392.552 682.79C400.022 696.62 420.562 719.49 442.962 700.29C449.752 694.47 455.572 690.8 460.462 688.64C462.562 680.06 464.592 671.5 466.562 663Z" fill="white"/>
<path id="body-front-linePattern14" d="M380.092 745.12C383.692 746.45 388.402 749.16 394.422 754C410.852 767.2 426.162 758.17 431.762 752C415.372 760.38 407.602 750.61 400.152 741.24C398.262 738.87 396.402 736.52 394.422 734.5C390.102 730.09 385.382 728.31 381.432 727.83C380.962 733.7 380.512 739.48 380.092 745.12Z" fill="white"/>
<path id="body-front-linePattern13" d="M389.372 637.12C393.082 637.78 396.012 639.63 399.062 641.55C403.972 644.64 409.192 647.92 418.432 646.78C434.442 644.8 443.322 629.47 445.762 622.05C426.642 634.66 415.502 627.22 405.232 620.37C400.722 617.36 396.372 614.46 391.602 613.42C390.932 620.46 390.172 628.45 389.372 637.12Z" fill="white"/>
<path id="body-front-linePattern12" d="M396.182 554.58C400.142 555.37 403.402 557.08 406.782 558.85C412.732 561.97 419.072 565.29 430.272 564.14C449.692 562.14 460.452 546.64 463.412 539.14C440.232 551.89 426.722 544.37 414.272 537.44C408.172 534.05 402.332 530.79 395.732 530.14C395.642 530.13 395.552 530.12 395.452 530.11C396.262 537.43 396.422 545.7 396.182 554.58Z" fill="white"/>
<path id="body-front-linePattern11" d="M359.702 501.3C344.912 459.4 303.712 454.14 281.082 462.17C267.542 466.97 253.042 467.72 242.902 467.23C242.892 471.24 242.922 475.01 242.992 478.5C243.072 482.3 243.302 486.54 243.662 491.17C256.242 493.09 267.062 489.02 278.762 484.63C289.362 480.65 300.682 476.4 314.662 476.09C337.122 475.6 351.802 490.63 358.642 501.92C358.972 501.71 359.332 501.5 359.702 501.3Z" fill="white"/>
<path id="body-front-linePattern10" d="M348.052 535.79C342.152 538.55 334.362 538.48 324.882 531.51C305.842 517.51 277.742 536.34 266.072 547.51C273.692 543.51 293.802 537.91 313.212 547.51C326.022 553.84 339.602 560.31 348.892 557.81C348.392 549.61 348.052 542.27 348.052 535.79Z" fill="white"/>
<path id="body-front-linePattern09" d="M352.982 623.24C347.582 622.92 338.802 625.76 325.812 636.5C304.532 654.1 285.202 648.17 278.202 643C285.672 656.83 306.212 679.7 328.612 660.5C339.882 650.84 348.482 647.1 354.632 646.35C354.042 638.34 353.482 630.59 352.982 623.24Z" fill="white"/>
<path id="body-front-linePattern08" d="M360.642 731.87C355.882 732.56 349.562 734.42 342.152 738.51C334.212 742.88 330.612 749.47 327.182 755.74C323.152 763.12 319.352 770.07 309.012 772.51C314.612 772.18 327.032 769.61 331.882 762.01C337.272 753.58 349.272 743.18 361.362 744.79C361.142 740.55 360.902 736.24 360.642 731.87Z" fill="white"/>
<path id="body-front-linePattern07" d="M285.532 716.17C291.982 717.85 301.612 720.3 318.942 720.5C352.922 720.9 358.302 700.33 356.752 690C354.422 696 339.482 709 304.942 698C295.042 694.85 286.802 693.96 280.642 694.6C282.292 701.97 283.932 709.18 285.532 716.17Z" fill="white"/>
<path id="body-front-linePattern06" d="M261.842 605.93C273.692 602.52 279.842 605.75 286.452 609.21C292.402 612.33 298.742 615.65 309.942 614.5C329.362 612.5 340.122 597 343.082 589.5C319.902 602.25 306.392 594.73 293.942 587.8C287.842 584.41 282.002 581.15 275.402 580.5C268.652 579.83 262.652 581.61 257.682 584.36C259.012 591.45 260.402 598.66 261.842 605.93Z" fill="white"/>
<path id="body-front-linePattern05" d="M243.502 442.6C248.722 441.44 253.942 440.05 259.292 438.63C274.282 434.65 290.292 430.4 310.072 430.09C348.062 429.5 370.322 451.11 376.692 461.99C358.882 413.95 296.222 407.72 262.582 416.15C256.772 417.61 250.842 418.69 244.992 419.48C244.312 427.52 243.832 435.26 243.502 442.6Z" fill="white"/>
<path id="body-front-linePattern04" d="M247.552 394.59C261.892 403.51 287.252 401.9 323.892 385.94C366.682 367.3 376.752 370.4 417.862 383.08C420.802 383.99 423.902 384.94 427.182 385.94C449.902 391.27 468.452 391.59 483.472 388.7C483.012 386.6 482.542 384.49 482.052 382.37C467.392 383.87 448.442 380.95 423.312 370.96C373.782 351.26 356.402 356.65 329.362 365.02C319.912 367.95 309.292 371.24 295.702 373.95C266.492 379.79 254.482 377.42 250.562 373.65C249.422 380.68 248.412 387.69 247.552 394.59Z" fill="white"/>
<path id="body-front-linePattern03" d="M257.602 339.43C274.512 350.98 299.122 359.13 325.812 345.8C358.542 329.45 375.862 334.93 393.072 340.39C401.632 343.1 410.172 345.8 420.562 345.8C440.832 345.8 457.972 342.86 469.172 336.43C467.312 330.92 465.352 325.45 463.262 320.08C458.792 325.81 446.992 330.73 420.562 327.8C409.192 326.54 399.972 325.06 391.962 323.78C365.132 319.49 352.022 317.39 317.872 332.8C295.222 343.01 274.162 340.19 258.942 334.2C258.482 335.93 258.032 337.68 257.602 339.43Z" fill="white"/>
<path id="body-front-linePattern02" d="M267.462 306.88C274.482 310.43 283.442 313.39 294.422 314.53C308.312 315.98 316.962 313.84 326.122 311.57C339.122 308.35 353.152 304.87 384.702 311.03C419.962 316.18 440.822 307.37 452.462 295.3C450.832 291.98 449.142 288.73 447.402 285.55C432.812 295.49 411.572 301.53 387.092 295.52C384.822 294.96 382.742 294.41 380.732 293.88C366.892 290.22 356.952 287.58 317.942 291.52C295.132 293.82 282.452 290.53 276.022 286.42C272.902 292.94 270.052 299.79 267.462 306.88Z" fill="white"/>
<path id="body-front-linePattern01" d="M490.002 423.69C489.292 419.06 488.492 414.3 487.622 409.45C480.402 411.81 472.172 412.96 463.332 412.58C434.812 411.36 395.932 419.69 390.052 469.45C393.252 457.8 407.232 433.11 437.602 427.52C451.382 424.98 460.632 425.17 468.692 425.33C475.942 425.47 482.242 425.59 490.002 423.69Z" fill="white"/>
<path id="body-front-linePattern00" d="M493.992 456.51C494.472 462.17 494.792 467.37 494.952 472C485.062 475.53 478.072 475.28 469.682 474.98C462.162 474.71 453.532 474.4 440.712 476.74C412.462 481.9 399.712 506.34 396.872 517.91C401.752 468.35 437.922 460.58 464.532 462.18C475.752 462.87 485.872 460.72 493.992 456.51Z" fill="white"/>
<path id="neck-shadow" fill-rule="evenodd" clip-rule="evenodd" d="M279.921 278.781C280.796 277.152 281.69 275.547 282.604 273.969C301.271 241.745 328.27 220.495 367 224C396.926 224 420.716 243.417 439.263 271.872C421.511 283.445 396.209 294.029 359.5 297C333.24 299.125 309.75 293.157 290.472 284.195C273.6 302.888 247.443 364.406 250 497C250 516.818 268.554 624.312 283.774 708.396C265.438 627.812 243.911 522.838 243 478.5C242.051 432.34 247.7 338.797 279.921 278.781Z" fill="black" fill-opacity="0.1"/>
<g id="paws-front-shadow">
<path d="M470.012 810.532C455.845 821.472 440.22 821.333 409 820.5C389.006 819.967 380.042 812.001 376.633 804.181C376.352 814.749 376.576 821.745 377.5 823.5C382.5 833 420 842 458 829C469.61 825.028 472.255 818.208 470.012 810.532Z" fill="black" fill-opacity="0.1"/>
<path d="M362.279 807.312C356.705 813.807 344.409 819.995 320.5 822.5C293.849 825.292 278.405 818.232 269.952 810.57C267.609 819.226 271.487 824.992 277.5 829C289.5 837 357.5 839 360 823.5C361.113 819.704 361.848 814.185 362.279 807.312Z" fill="black" fill-opacity="0.1"/>
</g>
<path id="ear-left-outside" d="M232.522 167.297L234.082 169.129L235.598 167.26L307.553 78.5551L308.677 77.1693L307.428 75.895C270.355 38.0816 218.02 36.5378 196.414 40.4794L194.935 40.7491L194.783 42.2446C188.914 99.9737 217.451 149.601 232.522 167.297Z" fill="white" stroke="#AFAFAF" stroke-width="4"/>
<path id="ear-left-linePattern" d="M196.774 42.4457C190.974 99.4657 219.204 148.576 234.044 165.996L306.004 77.2957C269.564 40.1257 218.004 38.5757 196.774 42.4457Z" fill="white"/>
<path id="ear-left-outside-shadow" d="M202.831 41.594C205.624 109.726 224.761 144.726 239.443 159.345L234.045 166C219.205 148.576 190.975 99.4715 196.773 42.447C198.582 42.1171 200.61 41.8265 202.831 41.594Z" fill="black" fill-opacity="0.1"/>
<path id="ear-left-inside" d="M203.383 60C199.883 105 221.217 138.667 232.383 157C243.583 114.6 270.55 90.1667 281.383 83.5C245.783 59.5 214.55 57.8334 203.383 60Z" fill="#FFC4F9"/>
<path id="ear-left-inside-shadow" d="M216.5 82.4999C233.007 62.4203 265.608 91.609 277 102.177L238.311 157C226.06 144.891 199.993 102.58 216.5 82.4999Z" fill="#F7B1F0"/>
<path id="ear-right-outside" d="M438.965 3.24682L438.076 2.75885L437.157 3.18743C428.218 7.35667 414.399 16.2116 401.723 29.3095C389.04 42.4146 377.406 59.8676 373.04 81.237L372.795 82.4401L373.756 83.2037L458.607 150.566L461.247 152.663L461.821 149.34C465.312 129.137 468.406 97.6544 466.329 68.8143C465.291 54.3972 462.954 40.5425 458.671 29.0573C454.395 17.591 448.091 8.25664 438.965 3.24682Z" fill="white" stroke="#AFAFAF" stroke-width="4"/>
<path id="ear-right-linePattern" d="M375 81.64C383.54 39.86 420.56 13.14 438 5C472.14 23.74 466.79 108.81 459.85 149L375 81.64Z" fill="white"/>
<path id="ear-right-inside" d="M399.383 73.5C438.383 86 454.217 118.167 458.383 131.5C465.583 59.5 450.383 34.5 439.883 25C422.883 37.5 406.883 57.5 399.383 73.5Z" fill="#FFC3F9"/>
<path id="ear-right-inside-shadow" d="M440.026 48.5469C425.04 41.4827 412.431 60.3205 408 70.6225L454.528 103C455.938 87.7924 455.012 55.6111 440.026 48.5469Z" fill="#F7B1F0"/>
<path id="head" d="M346.867 59.2637C269.818 63.1162 227.371 120.086 232.78 181.948C235.23 216.991 248.108 245.371 272.646 263.247C297.152 281.1 332.924 288.21 380.612 281.525C428.531 274.807 452.85 254.205 464.743 231.231C476.538 208.447 475.91 183.696 474.699 168.896C474.688 163.696 473.678 157.839 471.928 150.26C470.834 145.525 469.433 140.038 467.776 133.553C466.769 129.612 465.668 125.301 464.484 120.567C457.921 94.3123 423.548 55.4296 346.867 59.2637Z" fill="white" stroke="#AFAFAF" stroke-width="4"/>
<path id="head-linePattern08" d="M271.27 89.4001C275.2 86.0301 279.43 82.9101 283.94 80.0701C299.98 83.1801 315.02 91.3601 324.78 108.12C319.55 99.2801 302.62 85.9801 271.27 89.4001Z" fill="white"/>
<path id="head-linePattern07" d="M235.71 191.19C235.31 188.12 235 184.98 234.78 181.79C234.59 179.65 234.46 177.52 234.39 175.4C238.66 168.56 241.42 161.13 244.18 153.68C247.56 144.57 250.94 135.46 257.09 127.41C267.72 113.51 285.4 110.91 292.91 111.35C292.53 111.4 292.1 111.44 291.64 111.49C285.49 112.16 272.69 113.55 259.48 129.22C254.98 134.56 252.58 142.42 249.75 151.72C247.34 159.63 244.61 168.58 240.01 177.89C246.09 177.04 253.22 176.69 261.28 177.29C276.69 178.45 286.95 181.04 297.52 184.99C306.63 188.39 306.02 186.69 315.52 188.99C336 188.01 352.86 182.7 357.13 178.22C357.45 177.88 357.75 177.57 358.02 177.3C353.81 183.53 341.01 196 323.51 196C313.38 196 304.08 193.15 294.8 190.3C284.04 187 273.29 183.7 261.29 184.86C250.65 185.88 241.91 188.56 235.71 191.19Z" fill="white"/>
<path id="head-linePattern06" d="M422.44 75.3301C426.08 77.2501 429.45 79.3001 432.57 81.4501C412.67 84.5501 401.33 98.4801 397.22 108.45C403.71 92.4501 412.54 81.9101 422.44 75.3301Z" fill="white"/>
<path id="head-linePattern05" d="M381.97 62.7C384.95 63.13 387.85 63.6399 390.65 64.2099C383.79 73.5099 381.05 85.5699 385.93 102.26C390.73 118.66 383.93 131.43 379.93 135.76C383.61 119.2 382.78 116.75 380.77 110.86C379.51 107.15 377.78 102.08 376.43 91.2599C374.84 78.5499 377.9 69.11 381.97 62.7Z" fill="white"/>
<path id="head-linePattern04" d="M333.72 62.49C329.43 63.08 325.26 63.85 321.22 64.78C330.48 71.42 341.4 83.01 342.78 98.89C344.32 116.66 359.05 134 366.96 141.17C367.25 141.44 367.52 141.68 367.78 141.89C367.52 141.66 367.25 141.42 366.96 141.17C362.04 136.49 353.04 122.71 350.78 98.89C349.13 81.57 341.08 69.56 333.72 62.49Z" fill="white"/>
<path id="head-linePattern03" d="M397 109C397.07 108.82 397.15 108.64 397.22 108.46C397.14 108.64 397.07 108.82 397 109Z" fill="white"/>
<path id="head-linePattern02" d="M457.33 108.08C458.65 110.48 459.76 112.85 460.65 115.15C459.18 113.48 457.64 112.03 455.97 110.83C439.34 98.85 426.59 100.61 420.46 101.46C420 101.52 419.57 101.58 419.19 101.63C426.28 99.41 443.7 97.64 457.33 108.08Z" fill="white"/>
<path id="head-linePattern01" d="M472.84 170.74C472.98 172.66 473.11 174.72 473.2 176.9C465.26 177.68 457.75 179.99 450.23 182.3C440.95 185.15 431.65 188 421.52 188C404.02 188 392.33 174.31 388.12 168.08C388.39 168.36 388.69 168.67 389.01 169C393.28 173.48 404.04 181.32 424.51 182.3C431.48 182.63 437.9 180.3 447.01 176.9C454.96 173.93 462.29 172.72 472.84 170.74Z" fill="white"/>
<path id="head-linePattern00" d="M324.78 108.12C324.86 108.25 324.93 108.37 325 108.5C324.93 108.38 324.85 108.25 324.78 108.12Z" fill="white"/>
<path id="head-shadow-left" d="M234.774 181.791C239.61 251.072 285.551 292.831 380.334 279.544C389.516 278.257 397.809 276.457 405.296 274.231C375.416 280.492 326.912 284.306 285.5 263C233.759 236.38 234.353 167.117 241.082 132.874C235.478 148.11 233.283 164.764 234.774 181.791Z" fill="black" fill-opacity="0.1"/>
<path id="whisker-left-1" d="M206.319 234.125C235.519 202.925 263.819 195.625 280.819 193.625C291.319 192.625 296.319 192.625 298.319 195.125C300.193 197.467 302.819 201.625 284.819 201.125C253.619 201.125 219.486 223.125 206.319 234.125Z" fill="#AFAFAF"/>
<path id="whisker-left-2" d="M215.819 252.625C235.819 221.125 271.319 208.397 288.319 206.397C298.819 205.397 303.319 205.125 305.319 206.397C307.845 208.004 310.319 214.397 292.319 213.897C261.119 213.897 228.986 241.625 215.819 252.625Z" fill="#AFAFAF"/>
<path id="whisker-left-3" d="M226.819 269.125C249.362 232.822 273.724 226.699 290.006 221.416C300.108 218.384 305.012 217.408 307.462 219.469C309.757 221.4 313.145 224.965 295.394 227.99C264.795 234.085 237.583 255.764 226.819 269.125Z" fill="#AFAFAF"/>
<path id="whisker-right-1" d="M516.883 218C492.167 193.723 468.213 188.042 453.824 186.486C444.937 185.708 440.704 185.708 439.012 187.653C437.425 189.476 435.203 192.711 450.438 192.322C476.847 192.322 505.739 209.441 516.883 218Z" fill="#AFAFAF"/>
<path id="whisker-right-2" d="M508.883 233C492.008 208.246 462.054 198.244 447.71 196.672C438.851 195.886 435.054 195.672 433.366 196.672C431.235 197.935 429.147 202.959 444.335 202.566C470.661 202.566 497.774 224.356 508.883 233Z" fill="#AFAFAF"/>
<path id="whisker-right-3" d="M499.562 246C480.516 217.387 459.931 212.561 446.174 208.397C437.639 206.008 433.496 205.238 431.426 206.862C429.486 208.385 426.624 211.194 441.622 213.579C467.476 218.383 490.467 235.47 499.562 246Z" fill="#AFAFAF"/>
<path id="mouth" d="M372.383 219.5C374.383 211.9 373.217 197.333 372.383 191L377.383 190C377.217 197.167 377.383 213.5 379.383 221.5C381.883 231.5 400.383 233 410.383 229.5C420.981 225.791 429.717 220.833 432.383 217C431.55 220.667 425.983 229.4 410.383 235C394.783 240.6 380.883 232.667 375.883 228C374.883 230.5 365.383 243.5 342.883 245.5C324.883 247.1 312.717 233.833 308.883 227C313.717 232.333 327.283 242.7 342.883 241.5C362.383 240 369.883 229 372.383 219.5Z" fill="#AFAFAF"/>
<path id="nose" d="M361.883 179C357.483 184.2 368.717 192.167 374.883 195.5C383.883 191.5 388.983 183.4 387.383 179C385.383 173.5 367.383 172.5 361.883 179Z" fill="#FFC3F9"/>
<path id="eye-right-shadow" d="M438.961 103.652C403.111 92.3671 389.596 141.66 387.319 167.717C404.295 186.636 430.984 184.177 443.559 167.717C453.802 154.31 465.849 114.819 438.961 103.652Z" fill="#AFAFAF"/>
<path id="eye-right-base" d="M436.69 113.401C405.584 103.83 393.858 145.635 391.883 167.734C406.612 183.78 429.768 181.694 440.68 167.734C449.567 156.364 460.019 122.872 436.69 113.401Z" fill="white"/>
<path id="eye-right-color" d="M396.821 143.61C396.82 143.74 396 145.87 396 146C396 161.464 405.44 172 416.075 172C426.709 172 435.33 159.464 435.33 144C435.33 128.536 426.709 116 416.075 116C415.583 116 415.095 116.027 414.612 116.08C406.164 121.721 400.447 132.474 396.821 143.61Z" fill="#0BF86A"/>
<path id="eye-right-pupil" d="M396.516 144.563C397.745 155.574 404.576 164 412.819 164C421.932 164 429.319 153.703 429.319 141C429.319 128.297 421.932 118 412.819 118C412.556 118 412.294 118.009 412.034 118.026C404.759 124.179 399.754 134.265 396.516 144.563Z" fill="black"/>
<path id="eye-right-light" fill-rule="evenodd" clip-rule="evenodd" d="M400.215 134.795C401.345 136.713 403.432 138 405.819 138C409.409 138 412.319 135.09 412.319 131.5C412.319 127.91 409.409 125 405.819 125C405.794 125 405.769 125 405.744 125C403.638 127.97 401.802 131.292 400.215 134.795Z" fill="white"/>
<path id="eye-left-shadow" d="M292.085 111.673C339.784 100.245 356.291 150.162 359.319 176.549C336.734 195.707 302.699 193.217 285.966 176.549C272.338 162.972 256.31 122.981 292.085 111.673Z" fill="#AFAFAF"/>
<path id="eye-left-base" d="M295.048 122.405C337.048 112.805 352.881 154.739 355.548 176.905C335.661 193 304.394 190.908 289.661 176.905C277.661 165.5 263.548 131.905 295.048 122.405Z" fill="white"/>
<path id="eye-left-color" d="M324.828 125.077C336.253 130.732 343.982 141.528 348.882 152.71C348.883 152.806 348.883 152.903 348.883 153C348.883 168.464 337.243 181 322.883 181C308.524 181 296.883 168.464 296.883 153C296.883 137.536 308.524 125 322.883 125C323.538 125 324.186 125.026 324.828 125.077Z" fill="#0BF86A"/>
<path id="eye-left-pupil" fill-rule="evenodd" clip-rule="evenodd" d="M329.801 128.007C338.088 133.719 344.076 142.28 348.214 151.226C347.208 161.777 339.132 170 329.319 170C318.826 170 310.319 160.598 310.319 149C310.319 137.402 318.826 128 329.319 128C329.48 128 329.641 128.002 329.801 128.007Z" fill="black"/>
<circle id="eye-left-light" cx="317.819" cy="137.5" r="6.5" fill="white"/>
</g>
</svg>
