<svg width="546" height="840" viewBox="0 0 546 840" fill="none" xmlns="http://www.w3.org/2000/svg">
<g id="catrenderpupils">
<path id="tail" d="M237.122 643.481L237.806 640.72L234.977 641.01C225.728 641.959 212.596 639.246 203.253 628.067C193.918 616.898 188.004 596.843 194.15 562.351C194.83 558.534 195.503 554.774 196.167 551.068C210.617 470.402 220.569 414.846 194.037 348.755C179.965 313.704 143.401 289.88 106.139 282.352C68.9203 274.832 30.071 283.433 11.9531 314.492C3.03537 329.78 0.566548 343.09 2.74215 354.084C4.9219 365.098 11.7066 373.492 20.696 379.016C38.5484 389.988 65.4225 389.859 83.8475 376.624C100.857 364.406 122.014 365.605 137.213 377.274C152.365 388.906 161.835 411.179 154.733 441.545C152.444 451.333 149.773 461.359 147.062 471.536C141.258 493.322 135.269 515.801 132.446 538.124C128.287 571.025 130.907 604.054 151.002 635.087C166.879 659.606 181.524 676.404 193.42 687.453C205.26 698.45 214.502 703.866 219.6 705.414L221.615 706.026L222.122 703.981L237.122 643.481Z" fill="white" stroke="#AFAFAF" stroke-width="4"/>
<path id="tail-cwPattern" d="M73.8038 380.067C74.2919 326.403 56.4094 301.056 39.394 291.2C28.8648 296.707 19.9665 304.725 13.6807 315.5C-18.5799 370.804 37.0917 396.372 73.8038 380.067C73.8038 380.067 73.8038 380.067 73.8038 380.067Z" fill="white"/>
<path id="tail-linePattern05" d="M100.95 366.909C114.1 364.209 127.69 367.439 138.41 375.669C157.13 361.449 165.34 337.459 168.21 315.519C155.6 303.879 140.03 294.939 123.53 289.189C119 313.589 108.78 345.169 100.95 366.909Z" fill="white"/>
<path id="tail-linePattern04" d="M194.52 355.57C180.72 376.86 163.15 384.99 149.13 387.03C155.17 395.85 158.96 407.24 159.12 420.81C181.92 423.29 196.92 412.56 205.98 399.52C203.78 385.07 200.09 370.57 194.52 355.57Z" fill="white"/>
<path id="tail-linePattern03" d="M208.07 453.35C199.07 457.75 182.97 457.56 155.71 446.08C153.62 454.68 151.3 463.42 148.95 472.23C147.89 476.2 146.83 480.19 145.78 484.19C163.04 493.17 187.17 498.92 205.16 483.6C206.5 473.21 207.5 463.17 208.07 453.35Z" fill="white"/>
<path id="tail-linePattern02" d="M200.69 513.561C177.39 528.401 153.83 528.061 136.75 523.461C134.32 536.811 132.75 550.181 132.76 563.451C152.31 574.381 176.14 566.291 193.27 555.891C193.57 554.221 193.87 552.571 194.16 550.921C196.51 537.841 198.73 525.441 200.69 513.561Z" fill="white"/>
<path id="tail-linePattern01" d="M189.92 580.03C180.56 593.35 164.01 606.29 139.11 605.65C142.24 615.25 146.67 624.72 152.68 634.01C154.37 636.62 156.05 639.15 157.71 641.59C168.38 638.08 180.22 626.61 190.32 600.19C189.6 594.25 189.42 587.56 189.92 580.03Z" fill="white"/>
<path id="tail-linePattern00" d="M198.18 624.43C195.56 640.72 191.2 659.18 184.37 675.52C194.66 686.65 203.52 693.95 210.21 698.36L222 676.5L212.83 638.47C207.4 635.54 202.25 631.03 198.18 624.43Z" fill="white"/>
<path id="tail-siamesePattern" d="M237.122 643.481L237.806 640.72L234.977 641.01C225.728 641.959 212.596 639.246 203.253 628.067C193.918 616.898 188.004 596.843 194.15 562.351C194.83 558.534 195.503 554.774 196.167 551.068C210.617 470.402 220.569 414.846 194.037 348.755C179.965 313.704 143.401 289.88 106.139 282.352C68.9203 274.832 30.071 283.433 11.9531 314.492C3.03537 329.78 0.566548 343.09 2.74215 354.084C4.9219 365.098 11.7066 373.492 20.696 379.016C38.5484 389.988 65.4225 389.859 83.8475 376.624C100.857 364.406 122.014 365.605 137.213 377.274C152.365 388.906 161.835 411.179 154.733 441.545C152.444 451.333 149.773 461.359 147.062 471.536C141.258 493.322 135.269 515.801 132.446 538.124C128.287 571.025 130.907 604.054 151.002 635.087C166.879 659.606 181.524 676.404 193.42 687.453C205.26 698.45 214.502 703.866 219.6 705.414L221.615 706.026L222.122 703.981L237.122 643.481Z" fill="white" stroke="#AFAFAF" stroke-width="4"/>
<path id="tail-tricolorPattern-black03" d="M220.141 703.488C210.772 700.616 184.236 682.731 152.681 634C147.402 625.848 143.346 617.553 140.316 609.15C157.111 598.619 176.209 602.556 183.833 608.908C186.009 610.721 189.268 612.485 193.315 613.88C201.617 638.748 222.093 644.343 235.181 643L220.199 703.425C220.18 703.446 220.16 703.467 220.141 703.488Z" fill="black"/>
<path id="tail-tricolorPattern02" d="M164.533 651.241C160.682 645.978 156.722 640.242 152.681 634.001C141.914 617.373 136.236 600.151 133.968 582.639C141.239 587.374 157.717 590.889 174.195 583.11C176.716 581.92 179.089 580.709 181.345 579.558C184.544 577.926 187.507 576.414 190.318 575.254C188.117 597.304 191.432 612.645 197.388 623.091C187.166 626.57 176.689 633.753 168.458 645.894C167.192 647.762 165.884 649.544 164.533 651.241Z" fill="#E9B388"/>
<path id="tail-tricolorPattern01" d="M202.513 502.205C200.343 516.234 197.734 530.958 194.925 546.654C187.823 546.893 180.946 544.514 176.806 541.555C167.537 534.93 154.666 530.499 138.909 531.689C137.707 531.779 136.516 531.845 135.337 531.887C138.39 511.855 143.728 491.822 148.951 472.223C151.56 462.432 154.14 452.749 156.392 443.229C163.64 449.506 167.068 457.974 166.929 463.488C166.723 471.643 174.062 488.458 191.645 497.14C194.145 498.374 196.569 499.48 198.873 500.53C200.124 501.101 201.34 501.655 202.513 502.205Z" fill="#E9B388"/>
<path id="tail-tricolorPattern00" d="M155.554 305.393C171.785 316.659 185 331.613 192.181 349.5C199.842 368.584 204.438 386.775 206.746 404.972C201.626 404.984 197.214 403.892 194.352 402.267C185.418 397.197 172.28 394.897 155.116 398.557C146.268 375.096 124.184 363.094 102.813 366.569C104.313 361.669 106.526 356.189 109.489 350.113C118.278 332.094 138.321 314.18 155.554 305.393Z" fill="#E9B388"/>
<path id="tail-tricolorPattern-black02" d="M132.824 558.795C133.58 529.907 141.387 500.61 148.951 472.222C149.071 471.77 149.192 471.319 149.312 470.867C159.426 471.155 170.434 478.171 181.978 493.028C197.455 512.947 197.28 548.619 184.429 559.462C171.579 570.305 155.234 568.276 148.633 563.483C145.498 561.207 139.789 559.225 132.824 558.795Z" fill="black"/>
<path id="tail-tricolorPattern-black01" d="M200.144 372.698C209.371 405.107 210.174 435.911 206.737 469.935C206.257 469.99 205.78 470.024 205.307 470.037C188.5 470.491 176.993 458.707 174.826 450.842C173.395 445.65 167.722 437.799 158.465 432.138C161.464 408.394 154.104 390.06 142.07 378.778C142.298 378.846 142.521 378.917 142.739 378.991C153.531 382.645 167.135 383.154 181.87 377.447C188.08 375.042 194.171 373.459 200.144 372.698Z" fill="black"/>
<path id="tail-tricolorPattern-black00" d="M104.949 284.155C103.373 289.046 100.925 293.267 98.3467 296.099C89.4829 305.835 82.6745 320.102 81.9681 338.605C81.3175 355.643 76.7451 370.166 68.2509 382.174C31.8182 393.78 -16.9901 368.078 13.6807 315.5C31.0549 285.716 68.3891 277 104.949 284.155Z" fill="black"/>
<path id="tail-shadow" fill-rule="evenodd" clip-rule="evenodd" d="M222.699 693.344L220.181 703.5C210.847 700.667 184.281 682.8 152.681 634C119.498 582.756 134.657 525.865 148.951 472.222C151.672 462.01 154.362 451.915 156.681 442C171.181 380 118.181 349.5 82.6807 375C47.1807 400.5 -21.3193 375.5 13.6807 315.5C16.3899 310.856 19.5844 306.723 23.1857 303.084C13.6807 329.5 8.5 378 62.5 356C118.346 330.043 158 343 168.5 376C179 409 165.5 472.5 147.5 548.5C142 613.546 188.833 668.5 218.5 690.5L222.699 693.344Z" fill="black" fill-opacity="0.1"/>
<path id="paw-left" d="M430.12 814.419L428.681 813.999V812.5V745.5V743.857L430.291 743.538C440.9 741.433 457.262 739.48 471.894 740.492C479.203 740.997 486.209 742.25 491.88 744.678C497.442 747.059 501.926 750.667 503.943 755.995C509.344 762.638 516.198 773.308 519.398 784.106C522.634 795.023 522.286 806.795 511.83 814.136C506.783 817.68 500.275 819.745 493.198 820.819C486.104 821.896 478.305 821.995 470.568 821.508C455.097 820.535 439.649 817.202 430.12 814.419Z" fill="white" stroke="#AFAFAF" stroke-width="4"/>
<path id="paw-right" d="M316.241 814.419L317.681 813.999V812.5V745.5V743.857L316.07 743.538C305.461 741.433 289.1 739.48 274.468 740.492C267.158 740.997 260.152 742.25 254.481 744.678C248.919 747.059 244.435 750.667 242.419 755.995C237.017 762.638 230.164 773.308 226.963 784.106C223.728 795.023 224.076 806.795 234.531 814.136C239.578 817.68 246.086 819.745 253.163 820.819C260.258 821.896 268.056 821.995 275.794 821.508C291.265 820.535 306.712 817.202 316.241 814.419Z" fill="white" stroke="#AFAFAF" stroke-width="4"/>
<path id="paw-left-back-cwPattern" d="M510.681 812.5C529.481 799.3 512.847 770 502.181 757C495.381 737.8 451.681 741.333 430.681 745.5V812.5C449.514 818 491.881 825.7 510.681 812.5Z" fill="white"/>
<path id="paw-left-back-siamesePattern" d="M510.681 812.5C529.481 799.3 512.847 770 502.181 757C495.381 737.8 451.681 741.333 430.681 745.5V812.5C449.514 818 491.881 825.7 510.681 812.5Z" fill="white"/>
<path id="paw-right-back-cwPattern" d="M235.681 812.5C216.881 799.3 233.514 770 244.181 757C250.981 737.8 294.681 741.333 315.681 745.5V812.5C296.847 818 254.481 825.7 235.681 812.5Z" fill="white"/>
<path id="paw-right-back-siamesePattern" d="M235.681 812.5C216.881 799.3 233.514 770 244.181 757C250.981 737.8 294.681 741.333 315.681 745.5V812.5C296.847 818 254.481 825.7 235.681 812.5Z" fill="white"/>
<path id="paw-left-shadow" d="M510.681 812.5C529.481 799.3 512.847 770 502.181 757C495.381 737.8 451.681 741.333 430.681 745.5V812.5C449.514 818 491.881 825.7 510.681 812.5Z" fill="black" fill-opacity="0.1"/>
<path id="paw-right-shadow" d="M235.681 812.5C216.881 799.3 233.514 770 244.181 757C250.981 737.8 294.681 741.333 315.681 745.5V812.5C296.847 818 254.481 825.7 235.681 812.5Z" fill="black" fill-opacity="0.1"/>
<path id="body-back" d="M251.39 506.595L250.68 506.823L250.292 507.46C233.851 534.47 212.802 581.277 205.71 631.797C198.617 682.319 205.453 736.853 245.21 778.856C272.33 809.029 317.616 819.502 378.73 817.999C409.321 817.247 442.521 813.723 470.701 805.143C498.811 796.584 522.352 782.86 532.973 761.387C538.267 750.685 541.595 735.078 542.758 716.421C543.923 697.725 542.921 675.816 539.444 652.414C532.49 605.621 515.614 552.697 486.177 507.41L485.796 506.824L485.133 506.603L371.314 468.603L370.694 468.396L370.071 468.595L251.39 506.595Z" fill="white" stroke="#AFAFAF" stroke-width="4"/>
<path id="body-back-linePattern07" d="M513.844 781.6C510.974 783.94 507.874 786.13 504.594 788.18C497.874 784.08 489.554 774.86 487.594 754.45C485.954 737.41 476.144 719.02 470.744 712C476.464 716.75 488.954 731.05 493.094 750.24C496.674 766.79 507.094 777.14 513.844 781.6Z" fill="white"/>
<path id="body-back-linePattern06" d="M536.704 744.72C535.204 750.79 533.354 756.09 531.174 760.5C531.044 760.76 530.914 761.01 530.784 761.27C520.094 755.26 506.284 741.15 503.104 708.56C500.534 682.25 485.184 653.85 476.734 643.01C485.694 650.35 505.234 672.43 511.724 702.06C516.114 722.08 527.084 736.22 536.704 744.72Z" fill="white"/>
<path id="body-back-linePattern05" d="M540.334 678.32C541.154 689.18 541.384 699.52 541.084 709.11C527.914 697.97 516.474 682.1 513.084 660.53C504.294 604.57 501.534 595.78 486.964 577.95C492.914 577.11 508.774 588.93 524.634 642.98C529.164 658.41 534.604 669.89 540.334 678.32Z" fill="white"/>
<path id="body-back-linePattern04" d="M516.604 572.53C522.284 587.54 526.904 602.68 530.554 617.57C528.584 613.57 526.724 609.08 525.024 604.06C516.534 579.05 495.304 554.89 484.714 546.26C491.664 549.72 504.804 558.65 516.604 572.53Z" fill="white"/>
<path id="body-back-linePattern03" d="M214.554 598.1C218.714 582.22 223.934 567.15 229.544 553.49C240.614 541.34 252.344 533.46 258.774 530.26C248.184 538.9 226.954 563.05 218.464 588.06C217.234 591.68 215.924 595.02 214.554 598.1Z" fill="white"/>
<path id="body-back-linePattern02" d="M206.604 689.32C205.414 679.23 205.044 669.04 205.354 658.89C210.274 650.85 214.904 640.41 218.844 626.97C234.694 572.92 250.564 561.09 256.514 561.94C241.944 579.77 239.184 588.56 230.394 644.52C227.374 663.76 217.944 678.46 206.604 689.32Z" fill="white"/>
<path id="body-back-linePattern01" d="M220.654 739.52C217.944 733.78 215.634 727.92 213.694 721.98C221.184 713.43 228.404 701.47 231.754 686.01C238.154 656.41 257.424 634.34 266.254 627.01C257.924 637.84 242.784 666.22 240.254 692.51C237.834 717.48 229.274 731.59 220.654 739.52Z" fill="white"/>
<path id="body-back-linePattern00" d="M240.794 770.91C247.104 766.28 254.114 756.98 255.904 738.45C257.544 721.41 267.354 703.02 272.744 696C267.024 700.75 254.534 715.05 250.394 734.24C247.534 747.49 240.274 756.77 234.034 762.23C236.144 765.17 238.404 768.07 240.794 770.91Z" fill="white"/>
<path id="body-back-cwPattern" d="M308.803 810.622L285.611 497.738L370.681 470.5L447.559 496.167L417.021 813.521C404.168 814.917 391.214 815.692 378.681 816C352.25 816.65 328.916 815.047 308.803 810.622Z" fill="white"/>
<path id="back-left-tricolorPattern-black" d="M237.942 767.407C174.84 687.504 217.071 569.565 248.3 514.785L304 540.001V650.501C305.927 653.304 305.3 653.369 303.104 653.596C299.034 654.017 289.574 654.994 281 675.001C278.057 681.868 274.97 691.043 271.624 700.99C262.869 727.015 252.336 758.323 237.942 767.407Z" fill="black"/>
<path id="back-left-tricolorPattern" d="M245.118 775.825C221.778 750.416 210.343 720.478 206.643 689.639C207.242 689.662 207.813 689.717 208.351 689.801C216.535 691.09 234.423 685.924 245.456 669.356C247.024 667.001 248.453 664.705 249.811 662.522C258.007 649.35 263.625 640.322 281.738 647.543C302.863 659.059 296.123 681.739 288.244 690.202C280.365 698.664 274.226 711.048 273.372 727.085C272.517 743.123 267.654 756.602 258.784 767.524C255.305 771.807 250.759 774.631 245.118 775.825Z" fill="#E9B388"/>
<path id="back-right-tricolorPattern" d="M478.51 506.5L484.5 508.5C532.038 581.636 546.678 674.949 539.495 729.591L505.5 717L428 613L436 506.5H478.51Z" fill="#E9B388"/>
<path id="back-right-tricolorPattern-black" d="M541.074 709.799C540.34 731.26 536.893 748.951 531.181 760.5C529.916 763.057 528.459 765.503 526.825 767.844C514.151 768.883 508.453 759.725 500.849 747.503C499.267 744.962 497.604 742.288 495.778 739.546C482.932 720.255 462.104 714.24 452.575 715.741C443.046 717.242 424.76 710.586 417.097 692.242C409.433 673.898 428.503 636.2 455.531 623.53C482.56 610.861 500.968 612.529 511.296 625.246C521.624 637.962 527.286 653.657 528.281 672.33C529.106 687.798 534.152 700.346 541.074 709.799Z" fill="black"/>
<path id="body-back-shadow" d="M214.321 599.023C199.205 657.485 198.686 726.811 246.681 777.5C273.181 807 317.681 817.5 378.681 816C439.681 814.5 510.681 801.945 531.181 760.5C544.963 732.635 545.556 669.011 526.686 602.955C534.686 665.754 545.261 744.413 496 772C471 786 421 800.5 300.5 787.5C221.648 778.993 209.012 672.867 214.321 599.023Z" fill="black" fill-opacity="0.1"/>
<path id="body-front-shadow" d="M353 587.5C352.6 612.7 357.167 689 359.5 724L339 716L304 566L322 468.5L451.5 490.5L438.5 696L383.5 724C386.167 688.667 391.9 611.9 393.5 587.5C395.5 557 388.5 539.5 371.5 539.5C354.5 539.5 353.5 556 353 587.5Z" fill="black" fill-opacity="0.1"/>
<path id="body-front" d="M496.999 472.939C495.993 440 486.96 377.53 466.623 323.236C456.455 296.09 443.412 270.853 427.028 252.369C410.644 233.886 390.795 222.03 367.09 222C338.832 219.469 316.625 229.844 299.352 247.899C282.127 265.903 269.822 291.515 261.091 319.53C243.625 375.571 240.248 441.937 241 478.541C241.605 507.954 251.189 563.636 262.865 621.111C274.428 678.034 288.087 736.921 297.259 774.262C279.121 789.407 270.448 800.999 268.006 810.107C266.74 814.828 267.14 818.915 268.794 822.404C270.429 825.851 273.202 828.539 276.391 830.664C278.173 831.852 280.808 832.826 283.88 833.631C286.997 834.449 290.734 835.136 294.84 835.678C303.051 836.763 312.858 837.283 322.359 837.062C331.84 836.842 341.129 835.881 348.264 833.955C351.823 832.993 354.963 831.761 357.338 830.18C359.67 828.626 361.48 826.585 361.952 823.95C364.147 816.349 364.874 802.577 364.75 785.455C364.624 768.149 363.622 747.137 362.246 725.001C360.958 704.27 359.346 682.591 357.815 662.008C356.07 638.538 354.43 616.492 353.497 598.894C352.981 589.17 352.375 580.106 351.818 571.78C351.432 566.007 351.07 560.588 350.778 555.549C350.059 543.151 349.756 532.924 350.492 524.742C351.23 516.53 352.993 510.688 356.144 506.818C359.216 503.046 363.857 500.854 371.098 500.498C378.065 500.155 382.917 502.704 386.396 507.442C389.976 512.319 392.186 519.647 393.327 528.932C395.608 547.484 393.515 572.752 391.009 598.809C388.509 624.809 383.383 678.573 379.506 727.028C377.568 751.253 375.941 774.169 375.112 791.632C374.697 800.359 374.48 807.752 374.525 813.276C374.548 816.034 374.636 818.36 374.804 820.169C374.887 821.073 374.993 821.878 375.129 822.558C375.258 823.206 375.439 823.878 375.73 824.432C377.328 827.467 381.192 830.036 386.084 832.046C391.098 834.105 397.622 835.75 405.131 836.673C420.152 838.519 439.335 837.5 458.647 830.893C466.598 828.172 471.085 823.967 472.365 818.558C473.608 813.304 471.643 807.585 468.359 802.186C462.015 791.76 449.877 781.108 440.299 774.186C455.425 719.293 470.036 660.645 480.649 607.517C491.34 553.999 498.006 505.933 496.999 472.939Z" fill="white" stroke="#AFAFAF" stroke-width="4"/>
<path id="paw-front-left-cwPattern" d="M362.347 766.934C349.237 759.438 321.718 765.421 299.049 773.165C299.2 773.783 299.351 774.395 299.5 775.001C262 806.001 265.5 821.001 277.5 829.001C289.5 837.001 357.5 839.001 360 823.501C362.838 813.817 363.224 792.925 362.347 766.934Z" fill="white"/>
<path id="paw-front-right-cwPattern" d="M438.377 773.632C410.848 762.579 390.461 762.567 378.673 765.164C376.571 796.396 375.686 820.053 377.5 823.5C382.5 833 420 842 458 829C488.4 818.6 457.333 788.667 438 775C438.126 774.544 438.252 774.088 438.377 773.632Z" fill="white"/>
<path id="body-front-linePattern16" d="M486.382 565.12C481.962 562.7 472.162 563.19 455.102 577.29C433.822 594.89 414.492 588.96 407.492 583.79C414.962 597.62 435.502 620.49 457.902 601.29C468.322 592.36 476.452 588.5 482.482 587.36C483.882 579.79 485.182 572.37 486.382 565.12Z" fill="white"/>
<path id="body-front-linePattern15" d="M466.562 663C461.112 662.98 452.552 666.05 440.162 676.29C418.882 693.89 399.552 687.96 392.552 682.79C400.022 696.62 420.562 719.49 442.962 700.29C449.752 694.47 455.572 690.8 460.462 688.64C462.562 680.06 464.592 671.5 466.562 663Z" fill="white"/>
<path id="body-front-linePattern14" d="M380.092 745.12C383.692 746.45 388.402 749.16 394.422 754C410.852 767.2 426.162 758.17 431.762 752C415.372 760.38 407.602 750.61 400.152 741.24C398.262 738.87 396.402 736.52 394.422 734.5C390.102 730.09 385.382 728.31 381.432 727.83C380.962 733.7 380.512 739.48 380.092 745.12Z" fill="white"/>
<path id="body-front-linePattern13" d="M389.372 637.12C393.082 637.78 396.012 639.63 399.062 641.55C403.972 644.64 409.192 647.92 418.432 646.78C434.442 644.8 443.322 629.47 445.762 622.05C426.642 634.66 415.502 627.22 405.232 620.37C400.722 617.36 396.372 614.46 391.602 613.42C390.932 620.46 390.172 628.45 389.372 637.12Z" fill="white"/>
<path id="body-front-linePattern12" d="M396.182 554.579C400.142 555.369 403.402 557.079 406.782 558.849C412.732 561.969 419.072 565.289 430.272 564.139C449.692 562.139 460.452 546.639 463.412 539.139C440.232 551.889 426.722 544.369 414.272 537.439C408.172 534.049 402.332 530.789 395.732 530.139C395.642 530.129 395.552 530.119 395.452 530.109C396.262 537.429 396.422 545.699 396.182 554.579Z" fill="white"/>
<path id="body-front-linePattern11" d="M359.702 501.3C344.912 459.4 303.712 454.14 281.082 462.17C267.542 466.97 253.042 467.72 242.902 467.23C242.892 471.24 242.922 475.01 242.992 478.5C243.072 482.3 243.302 486.54 243.662 491.17C256.242 493.09 267.062 489.02 278.762 484.63C289.362 480.65 300.682 476.4 314.662 476.09C337.122 475.6 351.802 490.63 358.642 501.92C358.972 501.71 359.332 501.5 359.702 501.3Z" fill="white"/>
<path id="body-front-linePattern10" d="M348.052 535.791C342.152 538.551 334.362 538.481 324.882 531.511C305.842 517.511 277.742 536.341 266.072 547.511C273.692 543.511 293.802 537.911 313.212 547.511C326.022 553.841 339.602 560.311 348.892 557.811C348.392 549.611 348.052 542.271 348.052 535.791Z" fill="white"/>
<path id="body-front-linePattern09" d="M352.982 623.241C347.582 622.921 338.802 625.761 325.812 636.501C304.532 654.101 285.202 648.171 278.202 643.001C285.672 656.831 306.212 679.701 328.612 660.501C339.882 650.841 348.482 647.101 354.632 646.351C354.042 638.341 353.482 630.591 352.982 623.241Z" fill="white"/>
<path id="body-front-linePattern08" d="M360.642 731.87C355.882 732.56 349.562 734.42 342.152 738.51C334.212 742.88 330.612 749.47 327.182 755.74C323.152 763.12 319.352 770.07 309.012 772.51C314.612 772.18 327.032 769.61 331.882 762.01C337.272 753.58 349.272 743.18 361.362 744.79C361.142 740.55 360.902 736.24 360.642 731.87Z" fill="white"/>
<path id="body-front-linePattern07" d="M285.532 716.17C291.982 717.85 301.612 720.3 318.942 720.5C352.922 720.9 358.302 700.33 356.752 690C354.422 696 339.482 709 304.942 698C295.042 694.85 286.802 693.96 280.642 694.6C282.292 701.97 283.932 709.18 285.532 716.17Z" fill="white"/>
<path id="body-front-linePattern06" d="M261.842 605.93C273.692 602.52 279.842 605.75 286.452 609.21C292.402 612.33 298.742 615.65 309.942 614.5C329.362 612.5 340.122 597 343.082 589.5C319.902 602.25 306.392 594.73 293.942 587.8C287.842 584.41 282.002 581.15 275.402 580.5C268.652 579.83 262.652 581.61 257.682 584.36C259.012 591.45 260.402 598.66 261.842 605.93Z" fill="white"/>
<path id="body-front-linePattern05" d="M243.502 442.6C248.722 441.44 253.942 440.05 259.292 438.63C274.282 434.65 290.292 430.4 310.072 430.09C348.062 429.5 370.322 451.11 376.692 461.99C358.882 413.95 296.222 407.72 262.582 416.15C256.772 417.61 250.842 418.69 244.992 419.48C244.312 427.52 243.832 435.26 243.502 442.6Z" fill="white"/>
<path id="body-front-linePattern04" d="M247.552 394.59C261.892 403.51 287.252 401.9 323.892 385.94C366.682 367.3 376.752 370.4 417.862 383.08C420.802 383.99 423.902 384.94 427.182 385.94C449.902 391.27 468.452 391.59 483.472 388.7C483.012 386.6 482.542 384.49 482.052 382.37C467.392 383.87 448.442 380.95 423.312 370.96C373.782 351.26 356.402 356.65 329.362 365.02C319.912 367.95 309.292 371.24 295.702 373.95C266.492 379.79 254.482 377.42 250.562 373.65C249.422 380.68 248.412 387.69 247.552 394.59Z" fill="white"/>
<path id="body-front-linePattern03" d="M257.602 339.43C274.512 350.98 299.122 359.13 325.812 345.8C358.542 329.45 375.862 334.93 393.072 340.39C401.632 343.1 410.172 345.8 420.562 345.8C440.832 345.8 457.972 342.86 469.172 336.43C467.312 330.92 465.352 325.45 463.262 320.08C458.792 325.81 446.992 330.73 420.562 327.8C409.192 326.54 399.972 325.06 391.962 323.78C365.132 319.49 352.022 317.39 317.872 332.8C295.222 343.01 274.162 340.19 258.942 334.2C258.482 335.93 258.032 337.68 257.602 339.43Z" fill="white"/>
<path id="body-front-linePattern02" d="M267.462 306.88C274.482 310.43 283.442 313.39 294.422 314.53C308.312 315.98 316.962 313.84 326.122 311.57C339.122 308.35 353.152 304.87 384.702 311.03C419.962 316.18 440.822 307.37 452.462 295.3C450.832 291.98 449.142 288.73 447.402 285.55C432.812 295.49 411.572 301.53 387.092 295.52C384.822 294.96 382.742 294.41 380.732 293.88C366.892 290.22 356.952 287.58 317.942 291.52C295.132 293.82 282.452 290.53 276.022 286.42C272.902 292.94 270.052 299.79 267.462 306.88Z" fill="white"/>
<path id="body-front-linePattern01" d="M490.002 423.69C489.292 419.06 488.492 414.3 487.622 409.45C480.402 411.81 472.172 412.96 463.332 412.58C434.812 411.36 395.932 419.69 390.052 469.45C393.252 457.8 407.232 433.11 437.602 427.52C451.382 424.98 460.632 425.17 468.692 425.33C475.942 425.47 482.242 425.59 490.002 423.69Z" fill="white"/>
<path id="body-front-linePattern00" d="M493.992 456.51C494.472 462.17 494.792 467.37 494.952 472C485.062 475.53 478.072 475.28 469.682 474.98C462.162 474.71 453.532 474.4 440.712 476.74C412.462 481.9 399.712 506.34 396.872 517.91C401.752 468.35 437.922 460.58 464.532 462.18C475.752 462.87 485.872 460.72 493.992 456.51Z" fill="white"/>
<path id="body-front-cwPattern" d="M283.938 271.709C291.853 286.369 298.09 304.52 299.289 325.681C302.624 384.515 310.479 500.353 348.172 542.354C347.353 513.96 351.036 499.482 371 498.5C390.89 497.522 396.321 518.447 396.305 547.545C414.835 524.409 439.685 460.366 433.793 331.492C432.626 307.968 435.895 289.603 441.527 275.432C422.664 245.048 398.158 224 367 224C329.182 220.578 302.551 240.757 283.938 271.709Z" fill="white"/>
<path id="leg-front-right-siamesePattern" d="M493.751 508.576C468.837 528.412 426.687 538.136 396.234 541.881C396.681 558.643 394.955 578.669 393 599.001C388 651.001 372.5 814.001 377.5 823.501C382.5 833.001 420 842.001 458 829.001C488.4 818.601 457.333 788.668 438 775.001C463.645 682.092 487.875 578.226 493.751 508.576Z" fill="white"/>
<path id="leg-front-left-siamesePattern" d="M348.171 542.307C304.426 536.177 267.642 520.128 245.299 507.352C253.821 579.358 283.636 710.535 299.5 775C262 806 265.5 821 277.5 829C289.5 837 357.5 839 360 823.5C366.235 802.229 360.633 726.889 355.824 662.197C354.076 638.691 352.433 616.59 351.5 599C350.984 589.268 350.381 580.254 349.825 571.953C349.078 560.785 348.418 550.907 348.171 542.307Z" fill="white"/>
<path id="body-front-tricolorPattern-black00" d="M360.64 223.643C365.697 226.161 370.813 230.635 376.23 237.716C396.134 271.455 367.576 297.408 349.403 302.598C331.229 307.789 312.191 319.9 297.479 341.527C284.184 361.071 268.063 374.964 249.114 383.204C260.365 306.35 289.883 222.146 360.64 223.643Z" fill="black"/>
<path id="body-front-tricolorPattern-black01" d="M477.374 363.548C460.882 302.427 431.833 240.334 385.962 226.736C383.289 229.093 380.57 232.057 377.77 235.717C357.866 269.455 386.424 295.408 404.597 300.598C422.771 305.789 441.809 317.9 456.521 339.528C462.835 348.809 469.786 356.816 477.374 363.548Z" fill="black"/>
<path id="body-front-tricolorPattern00" d="M263.445 320.824C264.724 318.688 266.069 316.441 267.549 314.135C277.958 297.908 295.186 292.544 303.128 293.615C311.07 294.687 326.177 288.838 332.291 273.489C336.267 263.51 330.734 246.95 320.152 233.834C292.032 250.168 273.767 284.306 262.101 323.061C262.542 322.331 262.989 321.584 263.445 320.824Z" fill="#E9B388"/>
<path id="body-front-tricolorPattern01" d="M400.614 267.683C402.988 268.434 405.485 269.225 408.07 270.132C426.262 276.515 435.457 292.04 436.247 300.015C437.038 307.99 446.216 321.339 462.561 323.746C463.27 323.85 463.998 323.906 464.742 323.917C447.629 278.239 422.485 238.41 387.348 227.164C383.541 230.22 380.449 234.792 378.814 241.346C376.476 260.038 386.292 263.147 400.614 267.683Z" fill="#E9B388"/>
<path id="necklace-base" d="M272.621 289.018L271.895 290.608L273.373 291.54C292.787 303.788 323.712 314.17 369.074 312.499C404.633 311.189 431.178 302.011 450.213 290.537L451.831 289.561L450.949 287.891C431.15 250.346 403.772 222.047 367.09 222C344.216 219.951 325.271 226.359 309.695 238.509C294.147 250.638 282.035 268.422 272.621 289.018Z" fill="#0160B8" stroke="#053B6D" stroke-width="4"/>
<circle id="necklace-round" cx="367" cy="324" r="30" fill="#C4C4C4" stroke="#818181" stroke-width="2"/>
<path id="necklace-round-light" fill-rule="evenodd" clip-rule="evenodd" d="M351.1 300.76C355.012 298.185 360.186 296.5 367 296.5C367.276 296.5 367.5 296.724 367.5 297C367.5 297.276 367.276 297.5 367 297.5C360.358 297.5 355.381 299.14 351.65 301.596C347.917 304.053 345.403 307.348 343.722 310.699C342.04 314.053 341.197 317.455 340.804 320.108C340.608 321.433 340.525 322.566 340.505 323.407C340.495 323.827 340.501 324.171 340.516 324.426C340.523 324.553 340.533 324.655 340.543 324.731C340.552 324.801 340.56 324.833 340.562 324.839C340.562 324.84 340.562 324.841 340.562 324.84C340.65 325.102 340.509 325.386 340.248 325.474C339.986 325.562 339.702 325.421 339.614 325.16C339.56 325 339.533 324.751 339.518 324.484C339.501 324.196 339.495 323.824 339.505 323.383C339.526 322.501 339.613 321.326 339.815 319.961C340.219 317.232 341.087 313.722 342.828 310.251C344.57 306.777 347.191 303.334 351.1 300.76Z" fill="white"/>
<g id="necklace-heart">
<path d="M394.997 315.784C394.732 331.007 375.926 346.223 366.5 351.965C357.074 346.223 338.268 331.007 338.003 315.784C337.679 297.21 365.085 294.482 366.5 310.521C367.915 294.482 395.321 297.21 394.997 315.784Z" fill="#C4C4C4"/>
<path d="M366.443 352C375.851 346.284 394.732 331.038 394.997 315.784C395.329 296.717 366.443 294.348 366.443 311.836M366.557 352C357.149 346.284 338.268 331.038 338.003 315.784C337.671 296.717 366.557 294.348 366.557 311.836" stroke="#818181" stroke-width="2"/>
</g>
<path id="necklace-heart-light" fill-rule="evenodd" clip-rule="evenodd" d="M346.457 304.351C348.972 302.93 352.298 302 356.679 302C356.856 302 357 302.124 357 302.276C357 302.428 356.856 302.552 356.679 302.552C352.409 302.552 349.209 303.456 346.811 304.811C344.411 306.167 342.795 307.985 341.714 309.834C340.633 311.684 340.091 313.561 339.838 315.025C339.712 315.756 339.659 316.381 339.646 316.845C339.64 317.077 339.643 317.266 339.653 317.407C339.658 317.478 339.664 317.534 339.67 317.575C339.676 317.614 339.681 317.632 339.682 317.635C339.683 317.636 339.683 317.636 339.683 317.636C339.739 317.78 339.649 317.937 339.481 317.985C339.312 318.034 339.13 317.957 339.073 317.812C339.039 317.724 339.021 317.587 339.011 317.439C339 317.28 338.997 317.075 339.003 316.832C339.017 316.345 339.072 315.697 339.202 314.944C339.462 313.439 340.02 311.502 341.139 309.587C342.259 307.67 343.944 305.77 346.457 304.351Z" fill="white"/>
<text id="necklace-text" transform="translate(337.839 319.026) rotate(-2.05739)" fill="#6B6B6B" xml:space="preserve" style="white-space: pre" font-family="Arial" font-size="10" letter-spacing="0em"><tspan id="necklace-text" x="10.707" y="8.4668">Marcelo</tspan></text>
<path id="necklace-ribbon02" d="M311.795 296.262C308.874 300.939 307.183 308.191 307.554 317.032L307.554 317.032L307.557 317.088L307.557 317.091L307.559 317.146L307.559 317.146C307.965 325.986 310.285 333.061 313.604 337.465C315.271 339.675 317.246 341.286 319.431 342.024C321.656 342.777 323.983 342.582 326.172 341.374C332.049 338.13 349.241 328.094 357.087 323.491L357.866 323.034L357.826 322.132L357.511 314.952L357.506 314.838L357.191 307.659L357.151 306.757L356.335 306.37C348.115 302.472 330.11 293.983 323.972 291.266C321.685 290.254 319.35 290.264 317.199 291.209C315.088 292.136 313.261 293.913 311.795 296.262Z" fill="#0160B8" stroke="#053B6D" stroke-width="3"/>
<path id="necklace-ribbon01" d="M419.396 291.536C422.715 295.94 425.035 303.015 425.44 311.855L425.441 311.855L425.443 311.91L425.443 311.913L425.446 311.969L425.446 311.969C425.817 320.81 424.126 328.061 421.205 332.739C419.739 335.087 417.912 336.864 415.801 337.792C413.65 338.737 411.315 338.747 409.028 337.735C402.89 335.018 384.884 326.529 376.665 322.631L375.849 322.244L375.809 321.342L375.494 314.162L375.489 314.048L375.173 306.869L375.134 305.966L375.913 305.509C383.759 300.906 400.951 290.871 406.828 287.627C409.017 286.418 411.344 286.224 413.569 286.976C415.753 287.715 417.729 289.325 419.396 291.536Z" fill="#0160B8" stroke="#053B6D" stroke-width="3"/>
<rect id="necklace-ribbon00" x="351.855" y="300.129" width="28" height="32" rx="11.5" transform="rotate(-2.51463 351.855 300.129)" fill="#0160B8" stroke="#053B6D" stroke-width="3"/>
<path id="neck-shadow" d="M279.921 278.781C280.796 277.152 281.69 275.548 282.604 273.97C301.271 241.745 328.27 220.495 367 224C396.926 224 420.716 243.417 439.263 271.873C421.511 283.445 396.209 294.03 359.5 297C333.24 299.125 309.75 293.157 290.472 284.195C273.6 302.889 247.443 364.406 250 497C250 516.818 268.554 624.312 283.774 708.397C265.438 627.812 243.911 522.838 243 478.5C242.051 432.34 247.7 338.797 279.921 278.781Z" fill="black" fill-opacity="0.1"/>
<path id="paws-front-left-shadow" d="M362.279 807.312C356.705 813.807 344.409 819.995 320.5 822.5C293.849 825.292 278.405 818.232 269.952 810.57C267.609 819.226 271.487 824.992 277.5 829C289.5 837 357.5 839 360 823.5C361.113 819.704 361.848 814.185 362.279 807.312Z" fill="black" fill-opacity="0.1"/>
<path id="paws-front-right-shadow" d="M470.012 810.532C455.845 821.472 440.22 821.333 409 820.5C389.006 819.967 380.042 812.001 376.633 804.181C376.352 814.749 376.576 821.745 377.5 823.5C382.5 833 420 842 458 829C469.61 825.028 472.255 818.208 470.012 810.532Z" fill="black" fill-opacity="0.1"/>
<path id="ear-left-outside" d="M232.522 167.297L234.082 169.129L235.598 167.26L307.553 78.5551L308.677 77.1693L307.428 75.895C270.355 38.0816 218.02 36.5378 196.414 40.4794L194.935 40.7491L194.783 42.2446C188.914 99.9737 217.451 149.601 232.522 167.297Z" fill="white" stroke="#AFAFAF" stroke-width="4"/>
<path id="ear-left-linePattern" d="M196.415 40.4781L194.936 40.7477L194.784 42.2433C188.912 99.9679 217.449 149.6 232.521 167.293L234.081 169.124L235.597 167.256L307.557 78.5557L308.681 77.1699L307.432 75.8956C270.363 38.0836 218.026 36.5387 196.415 40.4781Z" fill="white" stroke="#AFAFAF" stroke-width="4"/>
<path id="ear-left-siamesePattern" d="M196.415 40.4781L194.936 40.7477L194.784 42.2433C188.912 99.9679 217.449 149.6 232.521 167.293L234.081 169.124L235.597 167.256L307.557 78.5557L308.681 77.1699L307.432 75.8956C270.363 38.0836 218.026 36.5387 196.415 40.4781Z" fill="white" stroke="#AFAFAF" stroke-width="4"/>
<path id="ear-left-outside-tricolorPattern" d="M232.522 167.297L234.082 169.129L235.598 167.26L307.553 78.5551L308.677 77.1693L307.428 75.895C270.355 38.0816 218.02 36.5378 196.414 40.4794L194.935 40.7491L194.783 42.2446C188.914 99.9737 217.451 149.601 232.522 167.297Z" fill="#E9B388" stroke="#AFAFAF" stroke-width="4"/>
<path id="ear-left-outside-shadow" d="M202.831 41.5938C205.624 109.725 224.761 144.726 239.443 159.345L234.045 166C219.205 148.576 190.975 99.4712 196.773 42.4467C198.582 42.1168 200.61 41.8263 202.831 41.5938Z" fill="black" fill-opacity="0.1"/>
<path id="ear-left-inside" d="M203.383 59.9998C199.883 105 221.217 138.666 232.383 157C243.583 114.6 270.55 90.1664 281.383 83.4998C245.783 59.4998 214.55 57.8331 203.383 59.9998Z" fill="#FFC4F9"/>
<path id="ear-left-inside-shadow" d="M216.5 82.5002C233.007 62.4205 265.608 91.6092 277 102.177L238.311 157C226.06 144.891 199.993 102.58 216.5 82.5002Z" fill="black" fill-opacity="0.05"/>
<path id="ear-right-outside" d="M438.965 3.24682L438.076 2.75885L437.157 3.18743C428.218 7.35667 414.399 16.2116 401.723 29.3095C389.04 42.4146 377.406 59.8676 373.04 81.237L372.795 82.4401L373.756 83.2037L458.607 150.566L461.247 152.663L461.821 149.34C465.312 129.137 468.406 97.6544 466.329 68.8143C465.291 54.3972 462.954 40.5425 458.671 29.0573C454.395 17.591 448.091 8.25664 438.965 3.24682Z" fill="white" stroke="#AFAFAF" stroke-width="4"/>
<g id="ear-right-linePattern">
<path d="M375 81.64C383.54 39.86 420.56 13.14 438 5C472.14 23.74 466.79 108.81 459.85 149L375 81.64Z" fill="white"/>
<path d="M373.041 81.2395L372.795 82.4428L373.756 83.2064L458.606 150.566L461.247 152.663L461.821 149.34C465.31 129.137 468.402 97.6531 466.325 68.8126C465.286 54.3952 462.95 40.5404 458.667 29.0554C454.391 17.5894 448.087 8.2555 438.962 3.24677L438.073 2.7587L437.154 3.18769C428.217 7.35909 414.4 16.2157 401.725 29.3142C389.043 42.42 377.408 59.8724 373.041 81.2395Z" stroke="black" stroke-opacity="0.1" stroke-width="4"/>
</g>
<path id="ear-right-siamesePattern" d="M438.965 3.24682L438.076 2.75885L437.157 3.18743C428.218 7.35667 414.399 16.2116 401.723 29.3095C389.04 42.4146 377.406 59.8676 373.04 81.237L372.795 82.4401L373.756 83.2037L458.607 150.566L461.247 152.663L461.821 149.34C465.312 129.137 468.406 97.6544 466.329 68.8143C465.291 54.3972 462.954 40.5425 458.671 29.0573C454.395 17.591 448.091 8.25664 438.965 3.24682Z" fill="white" stroke="#AFAFAF" stroke-width="4"/>
<path id="ear-right-outside-tricolorPattern-black" d="M438.965 3.24682L438.076 2.75885L437.157 3.18743C428.218 7.35667 414.399 16.2116 401.723 29.3095C389.04 42.4146 377.406 59.8676 373.04 81.237L372.795 82.4401L373.756 83.2037L458.607 150.566L461.247 152.663L461.821 149.34C465.312 129.137 468.406 97.6544 466.329 68.8143C465.291 54.3972 462.954 40.5425 458.671 29.0573C454.395 17.591 448.091 8.25664 438.965 3.24682Z" fill="black" stroke="#AFAFAF" stroke-width="4"/>
<path id="ear-right-inside" d="M399.383 73.5C438.383 86 454.217 118.167 458.383 131.5C465.583 59.5 450.383 34.5 439.883 25C422.883 37.5 406.883 57.5 399.383 73.5Z" fill="#FFC3F9"/>
<path id="ear-right-inside-shadow" d="M440.026 48.5469C425.04 41.4827 412.431 60.3205 408 70.6225L454.528 103C455.938 87.7924 455.012 55.6111 440.026 48.5469Z" fill="black" fill-opacity="0.05"/>
<path id="head" d="M346.867 59.2637C269.818 63.1162 227.371 120.086 232.78 181.948C235.23 216.991 248.108 245.371 272.646 263.247C297.152 281.1 332.924 288.21 380.612 281.525C428.531 274.807 452.85 254.205 464.743 231.231C476.538 208.447 475.91 183.696 474.699 168.896C474.688 163.696 473.678 157.839 471.928 150.26C470.834 145.525 469.433 140.038 467.776 133.553C466.769 129.612 465.668 125.301 464.484 120.567C457.921 94.3123 423.548 55.4296 346.867 59.2637Z" fill="white" stroke="#AFAFAF" stroke-width="4"/>
<path id="head-linePattern08" d="M271.27 89.4003C275.2 86.0303 279.43 82.9103 283.94 80.0703C299.98 83.1803 315.02 91.3603 324.78 108.12C319.55 99.2803 302.62 85.9803 271.27 89.4003Z" fill="white"/>
<path id="head-linePattern07" d="M235.71 191.19C235.31 188.12 235 184.98 234.78 181.79C234.59 179.65 234.46 177.52 234.39 175.4C238.66 168.56 241.42 161.13 244.18 153.68C247.56 144.57 250.94 135.46 257.09 127.41C267.72 113.51 285.4 110.91 292.91 111.35C292.53 111.4 292.1 111.44 291.64 111.49C285.49 112.16 272.69 113.55 259.48 129.22C254.98 134.56 252.58 142.42 249.75 151.72C247.34 159.63 244.61 168.58 240.01 177.89C246.09 177.04 253.22 176.69 261.28 177.29C276.69 178.45 286.95 181.04 297.52 184.99C306.63 188.39 306.02 186.69 315.52 188.99C336 188.01 352.86 182.7 357.13 178.22C357.45 177.88 357.75 177.57 358.02 177.3C353.81 183.53 341.01 196 323.51 196C313.38 196 304.08 193.15 294.8 190.3C284.04 187 273.29 183.7 261.29 184.86C250.65 185.88 241.91 188.56 235.71 191.19Z" fill="white"/>
<path id="head-linePattern06" d="M422.44 75.3301C426.08 77.2501 429.45 79.3001 432.57 81.4501C412.67 84.5501 401.33 98.4801 397.22 108.45C403.71 92.4501 412.54 81.9101 422.44 75.3301Z" fill="white"/>
<path id="head-linePattern05" d="M381.97 62.7002C384.95 63.1302 387.85 63.6402 390.65 64.2102C383.79 73.5102 381.05 85.5702 385.93 102.26C390.73 118.66 383.93 131.43 379.93 135.76C383.61 119.2 382.78 116.75 380.77 110.86C379.51 107.15 377.78 102.08 376.43 91.2602C374.84 78.5502 377.9 69.1102 381.97 62.7002Z" fill="white"/>
<path id="head-linePattern04" d="M333.72 62.4902C329.43 63.0802 325.26 63.8502 321.22 64.7802C330.48 71.4202 341.4 83.0102 342.78 98.8902C344.32 116.66 359.05 134 366.96 141.17C367.25 141.44 367.52 141.68 367.78 141.89C367.52 141.66 367.25 141.42 366.96 141.17C362.04 136.49 353.04 122.71 350.78 98.8902C349.13 81.5702 341.08 69.5602 333.72 62.4902Z" fill="white"/>
<path id="head-linePattern03" d="M397 109C397.07 108.82 397.15 108.64 397.22 108.46C397.14 108.64 397.07 108.82 397 109Z" fill="white"/>
<path id="head-linePattern02" d="M457.33 108.08C458.65 110.48 459.76 112.85 460.65 115.15C459.18 113.48 457.64 112.03 455.97 110.83C439.34 98.85 426.59 100.61 420.46 101.46C420 101.52 419.57 101.58 419.19 101.63C426.28 99.41 443.7 97.64 457.33 108.08Z" fill="white"/>
<path id="head-linePattern01" d="M472.84 170.74C472.98 172.66 473.11 174.72 473.2 176.9C465.26 177.68 457.75 179.99 450.23 182.3C440.95 185.15 431.65 188 421.52 188C404.02 188 392.33 174.31 388.12 168.08C388.39 168.36 388.69 168.67 389.01 169C393.28 173.48 404.04 181.32 424.51 182.3C431.48 182.63 437.9 180.3 447.01 176.9C454.96 173.93 462.29 172.72 472.84 170.74Z" fill="white"/>
<path id="head-linePattern00" d="M324.78 108.12C324.86 108.25 324.93 108.37 325 108.5C324.93 108.38 324.85 108.25 324.78 108.12Z" fill="white"/>
<path id="head-cwPattern" d="M247.138 230.003C266.976 269.148 310.336 289.357 380.334 279.544C429.009 272.721 452.687 251.506 463.878 228.496C461.908 227.061 460.245 224.328 459 220C448.5 183.5 426.5 184.5 406 186.5C385.5 188.5 380.5 163.001 380.5 149.001C380.5 135.001 361.5 138.001 364 150.001C366.5 162.001 367.5 182.001 349 188.001C340.784 190.783 334.113 191.74 328.429 192.555C312.667 194.815 304.494 195.987 292 232.001C283.811 255.605 265.057 247.035 247.138 230.003Z" fill="white"/>
<path id="head-siamesePattern" d="M259.5 215.5C245 166 232 89.5 362 75.5H362C382.5 75.5 463.5 75.5 463.5 148C471 228 458.5 252.106 382.5 261C335.5 266.5 274 265 259.5 215.5Z" fill="white"/>
<path id="head-tricolorPattern00" d="M414.56 71.5857C424.218 83.9079 431.778 98.0843 426 107.5C421.268 115.211 408.49 117.762 394.813 120.493C369.468 125.554 341.036 131.231 355 171.5C341.167 174.834 311.4 173.3 303 140.5C296.349 114.531 303.339 100.998 311.518 85.1644C314.686 79.0311 318.033 72.5525 320.834 64.8719C329.023 62.9544 337.741 61.7225 346.966 61.2612C375.065 59.8563 397.335 64.2359 414.56 71.5857Z" fill="#E9B388"/>
<path id="head-tricolorPattern01" d="M460.002 113.562C461.103 116.147 461.946 118.66 462.544 121.052C463.735 125.818 464.839 130.14 465.847 134.084C470.158 150.955 472.699 160.903 472.699 168.979C473.044 173.175 473.34 178.152 473.318 183.642C456.325 181.81 433.484 173.296 431.5 148.501C429.739 126.492 445.452 116.952 460.002 113.562Z" fill="#E9B388"/>
<path id="head-tricolorPattern-black" d="M347 64.5C335 67.1667 304.6 87.7 301 118.5C300.54 122.436 300.242 127.083 299.912 132.228C297.931 163.111 294.799 211.939 248.572 232.725C240.666 218.284 236.122 201.107 234.774 181.791C229.455 121.052 271.043 65.0574 346.966 61.2612C422.89 57.465 456.257 95.9017 462.544 121.052C463.735 125.817 464.839 130.14 465.847 134.084C469.233 147.335 471.527 156.314 472.356 163.471C463.462 165.065 452.915 165.167 440.5 163.5C424.278 163.5 419.404 145.079 413.84 124.046C405.683 93.2153 396.042 56.7722 347 64.5Z" fill="black"/>
<path id="head-shadow-left" d="M234.774 181.791C239.61 251.072 285.551 292.831 380.334 279.544C389.516 278.257 397.809 276.457 405.296 274.23C375.416 280.491 326.912 284.306 285.5 263C233.759 236.379 234.353 167.117 241.082 132.874C235.478 148.11 233.283 164.764 234.774 181.791Z" fill="black" fill-opacity="0.1"/>
<path id="whisker-left-1" d="M206.319 234.125C235.519 202.925 263.819 195.625 280.819 193.625C291.319 192.625 296.319 192.625 298.319 195.125C300.193 197.467 302.819 201.625 284.819 201.125C253.619 201.125 219.486 223.125 206.319 234.125Z" fill="#AFAFAF"/>
<path id="whisker-left-2" d="M215.819 252.625C235.819 221.125 271.319 208.397 288.319 206.397C298.819 205.397 303.319 205.125 305.319 206.397C307.845 208.004 310.319 214.397 292.319 213.897C261.119 213.897 228.986 241.625 215.819 252.625Z" fill="#AFAFAF"/>
<path id="whisker-left-3" d="M226.819 269.124C249.362 232.821 273.724 226.698 290.006 221.416C300.108 218.384 305.012 217.407 307.462 219.469C309.757 221.4 313.145 224.964 295.394 227.99C264.795 234.085 237.583 255.764 226.819 269.124Z" fill="#AFAFAF"/>
<path id="whisker-right-1" d="M516.883 218C492.167 193.723 468.213 188.042 453.824 186.486C444.937 185.708 440.704 185.708 439.012 187.653C437.425 189.476 435.203 192.711 450.438 192.322C476.847 192.322 505.739 209.441 516.883 218Z" fill="#AFAFAF"/>
<path id="whisker-right-2" d="M508.883 233C492.008 208.246 462.054 198.244 447.71 196.672C438.851 195.886 435.054 195.672 433.366 196.672C431.235 197.935 429.147 202.959 444.335 202.566C470.661 202.566 497.774 224.356 508.883 233Z" fill="#AFAFAF"/>
<path id="whisker-right-3" d="M499.562 246C480.516 217.387 459.931 212.561 446.174 208.397C437.639 206.008 433.496 205.238 431.426 206.862C429.486 208.385 426.624 211.194 441.622 213.579C467.476 218.383 490.467 235.47 499.562 246Z" fill="#AFAFAF"/>
<path id="mouth" d="M372.383 219.5C374.383 211.9 373.217 197.333 372.383 191L377.383 190C377.217 197.167 377.383 213.5 379.383 221.5C381.883 231.5 400.383 233 410.383 229.5C420.981 225.791 429.717 220.833 432.383 217C431.55 220.667 425.983 229.4 410.383 235C394.783 240.6 380.883 232.667 375.883 228C374.883 230.5 365.383 243.5 342.883 245.5C324.883 247.1 312.717 233.833 308.883 227C313.717 232.333 327.283 242.7 342.883 241.5C362.383 240 369.883 229 372.383 219.5Z" fill="#AFAFAF"/>
<path id="nose" d="M361.883 179C357.483 184.2 368.717 192.167 374.883 195.5C383.883 191.5 388.983 183.4 387.383 179C385.383 173.5 367.383 172.5 361.883 179Z" fill="#FFC3F9"/>
<path id="eye-right-shadow" d="M438.961 103.652C403.111 92.3671 389.596 141.66 387.319 167.717C404.295 186.636 430.984 184.177 443.559 167.717C453.802 154.31 465.849 114.819 438.961 103.652Z" fill="#AFAFAF"/>
<path id="eye-right-base" d="M436.69 113.401C405.584 103.83 393.858 145.635 391.883 167.734C406.612 183.78 429.768 181.694 440.68 167.734C449.567 156.364 460.019 122.872 436.69 113.401Z" fill="white"/>
<path id="eye-right-color" d="M396.821 143.61C396.82 143.74 396 145.87 396 146C396 161.464 405.44 172 416.075 172C426.709 172 435.33 159.464 435.33 144C435.33 128.536 426.709 116 416.075 116C415.583 116 415.095 116.027 414.612 116.08C406.164 121.721 400.447 132.474 396.821 143.61Z" fill="#0BF86A"/>
<path id="right-pupil-expanded" class="pupil-expanded" d="M396.516 144.563C397.745 155.574 404.576 164 412.819 164C421.932 164 429.319 153.703 429.319 141C429.319 128.297 421.932 118 412.819 118C412.556 118 412.294 118.009 412.034 118.026C404.759 124.179 399.754 134.265 396.516 144.563Z" fill="black"/>
<ellipse id="right-pupil-normal" class="pupil-normal" cx="413.5" cy="142" rx="12.5" ry="21" fill="black"/>
<path id="right-pupil-contracted" class="pupil-contracted" fill-rule="evenodd" clip-rule="evenodd" d="M411.522 125.091C410.915 127.276 409.814 133.329 410.26 140.056C410.705 146.784 412.786 152.827 413.771 155.008C414.446 153.019 415.687 147.178 415.247 139.726C414.698 130.411 411.723 125.077 411.522 125.091Z" fill="black"/>
<path id="eye-right-light" d="M400.215 134.795C401.345 136.713 403.432 138 405.819 138C409.409 138 412.319 135.09 412.319 131.5C412.319 127.91 409.409 125 405.819 125C405.794 125 405.769 125 405.744 125C403.638 127.97 401.802 131.292 400.215 134.795Z" fill="white"/>
<path id="eye-left-shadow" d="M292.085 111.673C339.784 100.245 356.291 150.162 359.319 176.549C336.734 195.707 302.699 193.217 285.966 176.549C272.338 162.972 256.31 122.981 292.085 111.673Z" fill="#AFAFAF"/>
<path id="eye-left-base" d="M295.048 122.405C337.048 112.805 352.881 154.739 355.548 176.905C335.661 193 304.394 190.908 289.661 176.905C277.661 165.5 263.548 131.905 295.048 122.405Z" fill="white"/>
<path id="eye-left-color" d="M324.828 125.077C336.253 130.732 343.982 141.528 348.882 152.71C348.883 152.806 348.883 152.903 348.883 153C348.883 168.464 337.243 181 322.883 181C308.524 181 296.883 168.464 296.883 153C296.883 137.536 308.524 125 322.883 125C323.538 125 324.186 125.026 324.828 125.077Z" fill="#0BF86A"/>
<path id="left-pupil-expanded" class="pupil-expanded" d="M329.801 128.007C338.088 133.719 344.076 142.28 348.214 151.226C347.208 161.777 339.132 170 329.319 170C318.826 170 310.319 160.598 310.319 149C310.319 137.402 318.826 128 329.319 128C329.48 128 329.641 128.002 329.801 128.007Z" fill="black"/>
<ellipse id="left-pupil-normal" class="pupil-normal" cx="327.5" cy="151" rx="13.5" ry="22" fill="black"/>
<path id="left-pupil-contracted" class="pupil-contracted" fill-rule="evenodd" clip-rule="evenodd" d="M324.394 132.217C323.747 134.549 322.572 141.009 323.047 148.189C323.522 155.369 325.743 161.819 326.794 164.146C327.515 162.023 328.839 155.79 328.37 147.837C327.784 137.895 324.608 132.202 324.394 132.217Z" fill="black"/>
<circle id="eye-left-light" cx="317.819" cy="137.5" r="6.5" fill="white"/>
<path id="tophat-00" d="M192.904 248.284C187.575 230.097 207.602 224.767 218.281 224.374L316.38 143.028C318.015 131.036 325.155 109.208 340.635 117.83C359.984 128.609 367.033 177.272 311.843 226.237C256.653 275.202 199.566 271.016 192.904 248.284Z" fill="black"/>
<path id="tophat-light" d="M315.443 142.505L217.903 223.389C212.483 223.636 204.81 225.105 199.048 228.816C196.092 230.72 193.592 233.245 192.199 236.541C190.8 239.85 190.559 243.834 191.945 248.565C193.724 254.637 198.836 259.349 206.17 262.245C213.507 265.143 223.161 266.27 234.276 265.142C256.517 262.885 284.778 251.586 312.507 226.985C340.237 202.382 352.424 177.772 355.182 157.851C357.93 137.998 351.299 122.626 341.121 116.957C337.051 114.69 333.402 114.366 330.209 115.501C327.058 116.622 324.511 119.108 322.484 122.143C318.524 128.075 316.31 136.467 315.443 142.505Z" fill="white" fill-opacity="0.2" stroke="#505050" stroke-width="2"/>
<path id="tophat-01" d="M153.357 165.42C188.142 184.043 234.63 254.072 240.237 260.511C305.597 242.366 336.526 192.516 343.82 169.859C318.697 155.051 267.15 77.6524 262.258 67.8728C257.365 58.0932 228.242 70.4906 194.041 102.99C159.84 135.489 143.312 160.127 153.357 165.42Z" fill="black" stroke="#505050" stroke-width="2"/>
<path id="tophat-02" d="M192.945 238.042L192.372 236.834L192.012 238.122C191.21 240.987 191.234 244.334 192.372 248.218C194.106 254.141 199.096 258.798 206.374 261.686C213.654 264.575 223.268 265.718 234.377 264.596C256.599 262.353 284.884 251.044 312.653 226.336C340.422 201.628 352.567 176.941 355.3 157.014C358.028 137.122 351.37 121.886 341.395 116.307C339.822 115.426 338.32 114.846 336.889 114.535L336.49 115.429C339.896 117.888 341.694 123.078 342.203 129.497C342.709 135.88 341.928 143.329 340.328 150.11C337.357 162.71 327.523 181.295 313.298 198.558C299.077 215.817 280.523 231.686 260.162 238.922C237.808 246.867 222.213 249.268 211.595 248.359C200.997 247.452 195.418 243.26 192.945 238.042Z" fill="black" stroke="#505050"/>
<path id="party" d="M289.5 175V175.713L290.052 176.163C292.608 178.245 298.721 180.874 308.879 182.653C319.109 184.444 333.61 185.403 353.108 183.996C372.62 182.588 385.517 179.187 393.735 175.44C397.845 173.566 400.814 171.591 402.856 169.709C404.875 167.847 406.075 165.993 406.461 164.341L406.545 163.982L406.452 163.625C398.767 133.887 374.062 63.6778 336.628 21.0107L335.212 19.3974L334.183 21.2812C326.725 34.9416 315.564 58.9729 306.265 86.7615C296.97 114.538 289.5 146.17 289.5 175Z" fill="white" stroke="#AFAFAF" stroke-width="3"/>
<circle id="party-color01" cx="335" cy="13" r="11.5" fill="#FFC3F9" stroke="#AFAFAF" stroke-width="3"/>
<path id="party-color02" d="M381.906 99.0876C358.997 101.686 330.673 101.022 306.418 91.0919C311.297 76.0405 316.784 61.9833 322.019 49.9434C332.429 53.9181 345.355 56.9127 360.807 57.6189C368.79 71.1151 375.849 85.3356 381.906 99.0876Z" fill="#FFC3F9"/>
<path id="party-color03" d="M404.078 160.54C376.595 167.066 328.555 171.157 292.402 152.266C294.229 136.686 297.707 120.789 302.027 105.538C319.369 115.99 348.764 125.099 390.316 119.436C396.559 135.554 401.196 150.019 404.078 160.54Z" fill="#FFC3F9"/>
</g>
</svg>
