<svg width="546" height="840" viewBox="0 0 546 840" fill="none" xmlns="http://www.w3.org/2000/svg">
<g id="catsvg">
<path id="tail" d="M237.122 643.481L237.806 640.72L234.977 641.01C225.728 641.959 212.596 639.246 203.253 628.067C193.918 616.898 188.004 596.843 194.15 562.351C194.83 558.534 195.503 554.774 196.167 551.068C210.617 470.402 220.569 414.846 194.037 348.755C179.965 313.704 143.401 289.88 106.139 282.352C68.9203 274.832 30.071 283.433 11.9531 314.492C3.03537 329.78 0.566548 343.09 2.74215 354.084C4.9219 365.098 11.7066 373.492 20.696 379.016C38.5484 389.988 65.4225 389.859 83.8475 376.624C100.857 364.406 122.014 365.605 137.213 377.274C152.365 388.906 161.835 411.179 154.733 441.545C152.444 451.333 149.773 461.359 147.062 471.536C141.258 493.322 135.269 515.801 132.446 538.124C128.287 571.025 130.907 604.054 151.002 635.087C166.879 659.606 181.524 676.404 193.42 687.453C205.26 698.45 214.502 703.866 219.6 705.414L221.615 706.026L222.122 703.981L237.122 643.481Z" fill="white" stroke="#AFAFAF" stroke-width="4"/>
<path id="tail-shadow" fill-rule="evenodd" clip-rule="evenodd" d="M222.699 693.344L220.181 703.5C210.847 700.667 184.281 682.8 152.681 634C119.498 582.756 134.657 525.865 148.951 472.222C151.672 462.01 154.362 451.915 156.681 442C171.181 380 118.181 349.5 82.6807 375C47.1807 400.5 -21.3193 375.5 13.6807 315.5C16.3899 310.856 19.5844 306.723 23.1857 303.084C13.6807 329.5 8.5 378 62.5 356C118.346 330.043 158 343 168.5 376C179 409 165.5 472.5 147.5 548.5C142 613.546 188.833 668.5 218.5 690.5L222.699 693.344Z" fill="#EBEBEB"/>
<path id="paw-leg" d="M430.12 814.42L428.681 814V812.5V745.5V743.858L430.291 743.538C440.9 741.433 457.262 739.48 471.894 740.492C479.203 740.998 486.209 742.251 491.88 744.679C497.442 747.06 501.926 750.667 503.943 755.996C509.344 762.639 516.198 773.308 519.398 784.107C522.634 795.024 522.286 806.796 511.83 814.137C506.783 817.68 500.275 819.746 493.198 820.82C486.104 821.896 478.305 821.996 470.568 821.509C455.097 820.535 439.649 817.203 430.12 814.42Z" fill="#EBEBEB" stroke="#AFAFAF" stroke-width="4"/>
<path id="paw-right" d="M316.241 814.42L317.681 814V812.5V745.5V743.858L316.07 743.538C305.461 741.433 289.1 739.48 274.468 740.492C267.158 740.998 260.152 742.251 254.481 744.679C248.919 747.06 244.435 750.667 242.419 755.996C237.017 762.639 230.164 773.308 226.963 784.107C223.728 795.024 224.076 806.796 234.531 814.137C239.578 817.68 246.086 819.746 253.163 820.82C260.258 821.896 268.056 821.996 275.794 821.509C291.265 820.535 306.712 817.203 316.241 814.42Z" fill="#EBEBEB" stroke="#AFAFAF" stroke-width="4"/>
<path id="body-back" d="M251.39 506.595L250.68 506.823L250.292 507.46C233.851 534.47 212.802 581.277 205.71 631.797C198.617 682.319 205.453 736.853 245.21 778.856C272.33 809.029 317.616 819.502 378.73 817.999C409.321 817.247 442.521 813.723 470.701 805.143C498.811 796.584 522.352 782.86 532.973 761.387C538.267 750.685 541.595 735.078 542.758 716.421C543.923 697.725 542.921 675.816 539.444 652.414C532.49 605.621 515.614 552.697 486.177 507.41L485.796 506.824L485.133 506.603L371.314 468.603L370.694 468.396L370.071 468.595L251.39 506.595Z" fill="white" stroke="#AFAFAF" stroke-width="4"/>
<path id="body-back-shadow" d="M214.321 599.024C199.205 657.485 198.686 726.812 246.681 777.5C273.181 807 317.681 817.5 378.681 816C439.681 814.5 510.681 801.946 531.181 760.5C544.963 732.635 545.556 669.011 526.686 602.956C534.686 665.755 545.261 744.414 496 772C471 786 421 800.5 300.5 787.5C221.648 778.993 209.012 672.867 214.321 599.024Z" fill="#EBEBEB"/>
<path id="body-front-shadow" d="M353 587.5C352.6 612.7 357.167 689 359.5 724L339 716L304 566L322 468.5L451.5 490.5L438.5 696L383.5 724C386.167 688.667 391.9 611.9 393.5 587.5C395.5 557 388.5 539.5 371.5 539.5C354.5 539.5 353.5 556 353 587.5Z" fill="#EBEBEB"/>
<path id="body-front" d="M496.999 472.939C495.993 440 486.96 377.53 466.623 323.236C456.455 296.09 443.412 270.852 427.028 252.369C410.644 233.886 390.795 222.03 367.09 222C338.832 219.469 316.625 229.843 299.352 247.899C282.127 265.903 269.822 291.515 261.091 319.53C243.625 375.57 240.248 441.937 241 478.541C241.605 507.954 251.189 563.635 262.865 621.111C274.428 678.033 288.087 736.92 297.259 774.262C279.121 789.406 270.448 800.998 268.006 810.107C266.74 814.828 267.14 818.914 268.794 822.404C270.429 825.851 273.202 828.539 276.391 830.664C278.173 831.852 280.808 832.825 283.88 833.631C286.997 834.448 290.734 835.136 294.84 835.678C303.051 836.763 312.858 837.283 322.359 837.062C331.84 836.842 341.129 835.881 348.264 833.954C351.823 832.993 354.963 831.761 357.338 830.179C359.67 828.626 361.48 826.585 361.952 823.949C364.147 816.349 364.874 802.576 364.75 785.454C364.624 768.149 363.622 747.137 362.246 725.001C360.958 704.27 359.346 682.591 357.815 662.007C356.07 638.538 354.43 616.491 353.497 598.894C352.981 589.169 352.375 580.106 351.818 571.779C351.432 566.006 351.07 560.588 350.778 555.548C350.059 543.151 349.756 532.923 350.492 524.742C351.23 516.53 352.993 510.688 356.144 506.818C359.216 503.046 363.857 500.854 371.098 500.498C378.065 500.155 382.917 502.703 386.396 507.441C389.976 512.319 392.186 519.646 393.327 528.932C395.608 547.484 393.515 572.752 391.009 598.809C388.509 624.809 383.383 678.573 379.506 727.028C377.568 751.253 375.941 774.169 375.112 791.632C374.697 800.359 374.48 807.752 374.525 813.275C374.548 816.034 374.636 818.36 374.804 820.169C374.887 821.072 374.993 821.877 375.129 822.558C375.258 823.206 375.439 823.878 375.73 824.432C377.328 827.467 381.192 830.036 386.084 832.045C391.098 834.105 397.622 835.75 405.131 836.673C420.152 838.518 439.335 837.499 458.647 830.892C466.598 828.172 471.085 823.967 472.365 818.557C473.608 813.303 471.643 807.584 468.359 802.185C462.015 791.76 449.877 781.107 440.299 774.185C455.425 719.293 470.036 660.644 480.649 607.517C491.34 553.999 498.006 505.933 496.999 472.939Z" fill="white" stroke="#AFAFAF" stroke-width="4"/>
<path id="body-front-shadow-left" d="M283.774 708.396C268.554 624.312 250 516.818 250 497C247.2 351.8 278.833 291.833 295 280L282.604 273.969C248.012 333.684 242.026 431.087 243 478.5C243.911 522.838 265.438 627.812 283.774 708.396Z" fill="#EBEBEB"/>
<path id="neck-shadow" fill-rule="evenodd" clip-rule="evenodd" d="M279.921 278.781C300.899 290.589 328.237 299.53 359.5 297C396.209 294.029 421.511 283.445 439.263 271.872C420.716 243.417 396.926 224 367 224C326.373 220.323 298.656 243.885 279.921 278.781Z" fill="#EBEBEB"/>
<g id="paws-front-shadow">
<path d="M470.012 810.532C455.845 821.472 440.22 821.332 409 820.5C389.006 819.967 380.042 812.001 376.633 804.181C376.352 814.749 376.576 821.745 377.5 823.5C382.5 833 420 842 458 829C469.61 825.028 472.255 818.207 470.012 810.532Z" fill="#EBEBEB"/>
<path d="M362.279 807.312C356.705 813.807 344.409 819.995 320.5 822.5C293.849 825.292 278.405 818.232 269.952 810.57C267.609 819.226 271.487 824.992 277.5 829C289.5 837 357.5 839 360 823.5C361.113 819.704 361.848 814.185 362.279 807.312Z" fill="#EBEBEB"/>
</g>
<path id="ear-left-outside" d="M232.522 167.297L234.082 169.129L235.598 167.26L307.553 78.5551L308.677 77.1693L307.428 75.895C270.355 38.0816 218.02 36.5378 196.414 40.4794L194.935 40.7491L194.783 42.2446C188.914 99.9737 217.451 149.601 232.522 167.297Z" fill="white" stroke="#AFAFAF" stroke-width="4"/>
<path id="ear-left-outside-shadow" d="M202.831 41.5939C205.624 109.726 224.761 144.726 239.443 159.345L234.045 166C219.205 148.576 190.975 99.4714 196.773 42.4469C198.582 42.117 200.61 41.8264 202.831 41.5939Z" fill="#ECECEC"/>
<path id="ear-left-inside" d="M203.383 60C199.883 105 221.217 138.667 232.383 157C243.583 114.6 270.55 90.1667 281.383 83.5C245.783 59.5 214.55 57.8334 203.383 60Z" fill="#FFC4F9"/>
<path id="ear-left-inside-shadow" d="M216.5 82.5C233.007 62.4203 265.608 91.609 277 102.177L238.311 157C226.06 144.891 199.993 102.58 216.5 82.5Z" fill="#F7B1F0"/>
<path id="ear-right-outside" d="M438.965 3.24682L438.076 2.75885L437.157 3.18743C428.218 7.35667 414.399 16.2116 401.723 29.3095C389.04 42.4146 377.406 59.8676 373.04 81.237L372.795 82.4401L373.756 83.2037L458.607 150.566L461.247 152.663L461.821 149.34C465.312 129.137 468.406 97.6544 466.329 68.8143C465.291 54.3972 462.954 40.5425 458.671 29.0573C454.395 17.591 448.091 8.25664 438.965 3.24682Z" fill="white" stroke="#AFAFAF" stroke-width="4"/>
<path id="ear-right-inside" d="M399.383 73.5C438.383 86 454.217 118.167 458.383 131.5C465.583 59.5 450.383 34.5 439.883 25C422.883 37.5 406.883 57.5 399.383 73.5Z" fill="#FFC3F9"/>
<path id="ear-right-inside-shadow" d="M440.026 48.5469C425.04 41.4827 412.431 60.3205 408 70.6225L454.528 103C455.938 87.7924 455.012 55.6111 440.026 48.5469Z" fill="#F7B1F0"/>
<path id="head" d="M346.867 59.2637C269.818 63.1162 227.371 120.086 232.78 181.948C235.23 216.991 248.108 245.371 272.646 263.247C297.152 281.1 332.924 288.21 380.612 281.525C428.531 274.807 452.85 254.205 464.743 231.231C476.538 208.447 475.91 183.696 474.699 168.896C474.688 163.696 473.678 157.839 471.928 150.26C470.834 145.525 469.433 140.038 467.776 133.553C466.769 129.612 465.668 125.301 464.484 120.567C457.921 94.3124 423.548 55.4296 346.867 59.2637Z" fill="white" stroke="#AFAFAF" stroke-width="4"/>
<path id="head-shadow-left" d="M234.774 181.791C239.61 251.072 285.551 292.831 380.334 279.544C389.516 278.257 397.809 276.457 405.296 274.231C375.416 280.492 326.912 284.306 285.5 263C233.759 236.38 234.353 167.117 241.082 132.874C235.478 148.11 233.283 164.764 234.774 181.791Z" fill="#EBEBEB"/>
<path id="whisker-left-1" d="M206.319 234.125C235.519 202.925 263.819 195.625 280.819 193.625C291.319 192.625 296.319 192.625 298.319 195.125C300.193 197.467 302.819 201.625 284.819 201.125C253.619 201.125 219.486 223.125 206.319 234.125Z" fill="#AFAFAF"/>
<path id="whisker-left-2" d="M215.819 252.625C235.819 221.125 271.319 208.397 288.319 206.397C298.819 205.397 303.319 205.125 305.319 206.397C307.845 208.004 310.319 214.397 292.319 213.897C261.119 213.897 228.986 241.625 215.819 252.625Z" fill="#AFAFAF"/>
<path id="whisker-left-3" d="M226.819 269.125C249.362 232.822 273.724 226.699 290.006 221.416C300.108 218.384 305.012 217.408 307.462 219.469C309.757 221.4 313.145 224.965 295.394 227.99C264.795 234.085 237.583 255.764 226.819 269.125Z" fill="#AFAFAF"/>
<path id="whisker-right-1" d="M516.883 218C492.167 193.723 468.213 188.042 453.824 186.486C444.937 185.708 440.704 185.708 439.012 187.653C437.425 189.476 435.203 192.711 450.438 192.322C476.847 192.322 505.739 209.441 516.883 218Z" fill="#AFAFAF"/>
<path id="whisker-right-2" d="M508.883 233C492.008 208.246 462.054 198.244 447.71 196.672C438.851 195.886 435.054 195.672 433.366 196.672C431.235 197.935 429.147 202.959 444.335 202.566C470.661 202.566 497.774 224.356 508.883 233Z" fill="#AFAFAF"/>
<path id="whisker-right-3" d="M499.562 246C480.516 217.387 459.931 212.561 446.174 208.397C437.639 206.008 433.496 205.238 431.426 206.862C429.486 208.385 426.624 211.194 441.622 213.579C467.476 218.383 490.467 235.47 499.562 246Z" fill="#AFAFAF"/>
<path id="mouth" d="M372.383 219.5C374.383 211.9 373.217 197.333 372.383 191L377.383 190C377.217 197.167 377.383 213.5 379.383 221.5C381.883 231.5 400.383 233 410.383 229.5C420.981 225.791 429.717 220.833 432.383 217C431.55 220.667 425.983 229.4 410.383 235C394.783 240.6 380.883 232.667 375.883 228C374.883 230.5 365.383 243.5 342.883 245.5C324.883 247.1 312.717 233.833 308.883 227C313.717 232.333 327.283 242.7 342.883 241.5C362.383 240 369.883 229 372.383 219.5Z" fill="#AFAFAF"/>
<path id="nose" d="M361.883 179C357.483 184.2 368.717 192.167 374.883 195.5C383.883 191.5 388.983 183.4 387.383 179C385.383 173.5 367.383 172.5 361.883 179Z" fill="#FFC3F9"/>
<path id="eye-right-shadow" d="M438.961 103.652C403.111 92.3671 389.596 141.66 387.319 167.717C404.295 186.636 430.984 184.177 443.559 167.717C453.802 154.31 465.849 114.819 438.961 103.652Z" fill="#AFAFAF"/>
<path id="eye-right-base" d="M436.69 113.401C405.584 103.83 393.858 145.635 391.883 167.734C406.612 183.78 429.768 181.694 440.68 167.734C449.567 156.364 460.019 122.872 436.69 113.401Z" fill="white"/>
<path id="eye-right-color" d="M396.821 143.61C396.82 143.74 396 145.87 396 146C396 161.464 405.44 172 416.075 172C426.709 172 435.33 159.464 435.33 144C435.33 128.536 426.709 116 416.075 116C415.583 116 415.095 116.027 414.612 116.08C406.164 121.721 400.447 132.474 396.821 143.61Z" fill="#0BF86A"/>
<path id="eye-right-pupil" d="M396.516 144.563C397.745 155.574 404.576 164 412.819 164C421.932 164 429.319 153.703 429.319 141C429.319 128.297 421.932 118 412.819 118C412.556 118 412.294 118.009 412.034 118.026C404.759 124.179 399.754 134.265 396.516 144.563Z" fill="black"/>
<path id="eye-right-light" fill-rule="evenodd" clip-rule="evenodd" d="M400.215 134.795C401.345 136.713 403.432 138 405.819 138C409.409 138 412.319 135.09 412.319 131.5C412.319 127.91 409.409 125 405.819 125C405.794 125 405.769 125 405.744 125C403.637 127.97 401.802 131.292 400.215 134.795Z" fill="white"/>
<path id="eye-left-shadow" d="M292.085 111.673C339.784 100.245 356.291 150.162 359.319 176.549C336.734 195.707 302.699 193.217 285.966 176.549C272.338 162.972 256.31 122.981 292.085 111.673Z" fill="#AFAFAF"/>
<path id="eye-left-base" d="M295.048 122.405C337.048 112.805 352.881 154.739 355.548 176.905C335.661 193 304.394 190.908 289.661 176.905C277.661 165.5 263.548 131.905 295.048 122.405Z" fill="white"/>
<path id="eye-left-color" d="M324.828 125.077C336.253 130.732 343.982 141.528 348.882 152.71C348.883 152.806 348.883 152.903 348.883 153C348.883 168.464 337.243 181 322.883 181C308.524 181 296.883 168.464 296.883 153C296.883 137.536 308.524 125 322.883 125C323.538 125 324.186 125.026 324.828 125.077Z" fill="#0BF86A"/>
<path id="eye-left-pupil" fill-rule="evenodd" clip-rule="evenodd" d="M329.801 128.007C338.088 133.719 344.076 142.28 348.214 151.226C347.208 161.777 339.132 170 329.319 170C318.826 170 310.319 160.598 310.319 149C310.319 137.402 318.826 128 329.319 128C329.48 128 329.641 128.002 329.801 128.007Z" fill="black"/>
<circle id="eye-left-light" cx="317.819" cy="137.5" r="6.5" fill="white"/>
</g>
</svg>
