<svg width="546" height="841" viewBox="0 0 546 841" fill="none" xmlns="http://www.w3.org/2000/svg">
<g filter="url(#filter0_d)">
<path d="M192.181 557C179.781 626.6 215.681 640 235.181 638L220.181 698.5C210.847 695.667 184.281 677.8 152.681 629C113.181 568 142.181 499 156.681 437C171.181 375 118.181 344.5 82.6807 370C47.1807 395.5 -21.3193 370.5 13.6807 310.5C48.6807 250.5 164.681 276 192.181 344.5C219.681 413 207.681 470 192.181 557Z" fill="#623F3F"/>
</g>
<path fill-rule="evenodd" clip-rule="evenodd" d="M222.699 688.344L220.181 698.5C210.847 695.667 184.281 677.8 152.681 629C119.498 577.756 134.657 520.865 148.951 467.222C151.672 457.01 154.362 446.915 156.681 437C171.181 375 118.181 344.5 82.6807 370C47.1807 395.5 -21.3193 370.5 13.6807 310.5C16.3899 305.856 19.5844 301.723 23.1857 298.084C13.6807 324.5 8.5 373 62.5 351C118.346 325.043 158 338 168.5 371C179 404 165.5 467.5 147.5 543.5C142 608.546 188.833 663.5 218.5 685.5L222.699 688.344Z" fill="#412828"/>
<g filter="url(#filter1_d)">
<path d="M235.681 807.5C216.881 794.3 233.514 765 244.181 752C250.981 732.8 294.681 736.333 315.681 740.5V807.5C296.847 813 254.481 820.7 235.681 807.5Z" fill="#412828"/>
</g>
<g filter="url(#filter2_d)">
<path d="M510.681 807.5C529.481 794.3 512.847 765 502.181 752C495.381 732.8 451.681 736.333 430.681 740.5V807.5C449.514 813 491.881 820.7 510.681 807.5Z" fill="#412828"/>
</g>
<g filter="url(#filter3_d)">
<path d="M246.681 772.5C168.281 689.7 219.333 557.167 252 503.5L370.681 465.5L484.5 503.5C543 593.5 551.681 714.054 531.181 755.5C510.681 796.946 439.681 809.5 378.681 811C317.681 812.5 273.181 802 246.681 772.5Z" fill="#EBEBEB"/>
</g>
<g filter="url(#filter4_d)">
<path d="M495 468C493 402.5 459 219 367 219C256.5 209 241.5 400.5 243 473.5C244.2 531.9 281.167 695.5 299.5 770C262 801 265.5 816 277.5 824C289.5 832 357.5 834 360 818.5C368.5 789.5 355 660 351.5 594C348 528 340.5 495 371 493.5C401.5 492 398 542 393 594C388 646 372.5 809 377.5 818.5C382.5 828 420 837 458 824C488.4 813.6 457.333 783.667 438 770C468.5 659.5 497 533.5 495 468Z" fill="#EBEBEB"/>
</g>
<g filter="url(#filter5_d)">
<path d="M388.681 76.6373C397.217 34.8529 434.239 8.13559 451.683 0C485.827 18.7444 480.475 103.81 473.531 144L388.681 76.6373Z" fill="#623F3F"/>
</g>
<g filter="url(#filter6_d)">
<path d="M210.454 37.4469C204.656 94.4714 232.886 143.576 247.726 161L319.681 72.2952C283.237 35.1237 231.678 33.5749 210.454 37.4469Z" fill="#623F3F"/>
</g>
<path d="M413.064 68.5C452.064 81 467.897 113.167 472.064 126.5C479.264 54.5 464.064 29.5 453.564 20C436.564 32.5 420.564 52.5 413.064 68.5Z" fill="black"/>
<path d="M217.064 55C213.564 100 234.897 133.667 246.064 152C257.264 109.6 284.231 85.1667 295.064 78.5C259.464 54.5 228.231 52.8334 217.064 55Z" fill="black"/>
<g filter="url(#filter7_d)">
<path d="M482.681 167C488.181 234.5 476.681 279 367.681 288C290.681 292.5 242.181 248 242.181 176.5C248.181 104.5 290.681 63.5 352.681 60C444.681 60 471.181 86 482.681 167Z" fill="#EBEBEB"/>
</g>
<path d="M301 250.5C209.5 141.5 296 79.0001 349 72.5001C386 66.0001 408 74.0001 428.5 79.0001C501 111 475.5 210 460.5 233.5C445.5 257 338 292 301 250.5Z" fill="#623F3F"/>
<path d="M305.765 106.673C353.465 95.2452 369.971 145.162 373 171.549C350.414 190.707 316.379 188.217 299.647 171.549C286.019 157.972 269.991 117.981 305.765 106.673Z" fill="black"/>
<path d="M308.729 117.405C350.729 107.805 366.562 149.739 369.229 171.905C349.341 188 318.074 185.908 303.341 171.905C291.341 160.5 277.229 126.905 308.729 117.405Z" fill="white"/>
<mask id="mask0" mask-type="alpha" maskUnits="userSpaceOnUse" x="289" y="116" width="81" height="68">
<path d="M308.729 117.405C350.729 107.805 366.562 149.739 369.229 171.905C349.341 188 318.074 185.908 303.341 171.905C291.341 160.5 277.229 126.905 308.729 117.405Z" fill="white"/>
</mask>
<g mask="url(#mask0)">
<ellipse cx="336.564" cy="148" rx="26" ry="28" fill="#05F0FF"/>
<ellipse cx="343" cy="144" rx="19" ry="21" fill="black"/>
<circle cx="331.5" cy="132.5" r="6.5" fill="white"/>
</g>
<path d="M452.642 98.6519C416.791 87.3671 403.276 136.66 401 162.717C417.975 181.636 444.664 179.177 457.24 162.717C467.483 149.31 479.529 109.819 452.642 98.6519Z" fill="black"/>
<path d="M450.371 108.401C419.265 98.8304 407.539 140.635 405.564 162.734C420.292 178.78 443.449 176.694 454.36 162.734C463.248 151.364 473.7 117.872 450.371 108.401Z" fill="white"/>
<mask id="mask1" mask-type="alpha" maskUnits="userSpaceOnUse" x="405" y="107" width="60" height="68">
<path d="M450.371 108.405C419.265 98.8053 407.539 140.739 405.564 162.905C420.292 179 443.449 176.908 454.36 162.905C463.248 151.5 473.7 117.905 450.371 108.405Z" fill="white"/>
</mask>
<g mask="url(#mask1)">
<ellipse rx="19.2557" ry="28" transform="matrix(-1 0 0 1 429.755 139)" fill="#05F0FF"/>
<ellipse cx="426.5" cy="136" rx="16.5" ry="23" fill="black"/>
<circle cx="419.5" cy="126.5" r="6.5" fill="white"/>
</g>
<g filter="url(#filter8_d)">
<path d="M220 229.125C249.2 197.925 277.5 190.625 294.5 188.625C305 187.625 310 187.625 312 190.125C313.874 192.467 316.5 196.625 298.5 196.125C267.3 196.125 233.167 218.125 220 229.125Z" fill="black"/>
</g>
<g filter="url(#filter9_d)">
<path d="M530.564 213C505.848 188.723 481.894 183.042 467.505 181.486C458.617 180.708 454.385 180.708 452.692 182.653C451.106 184.476 448.883 187.711 464.119 187.322C490.528 187.322 519.419 204.441 530.564 213Z" fill="black"/>
</g>
<g filter="url(#filter10_d)">
<path d="M240.5 264.125C263.043 227.822 287.405 221.699 303.687 216.416C313.789 213.384 318.693 212.408 321.143 214.469C323.438 216.4 326.826 219.965 309.075 222.99C278.476 229.085 251.264 250.764 240.5 264.125Z" fill="black"/>
</g>
<g filter="url(#filter11_d)">
<path d="M513.243 241C494.196 212.387 473.612 207.561 459.855 203.397C451.319 201.008 447.176 200.238 445.106 201.862C443.167 203.385 440.305 206.194 455.303 208.579C481.156 213.383 504.148 230.47 513.243 241Z" fill="black"/>
</g>
<g filter="url(#filter12_d)">
<path d="M229.5 247.625C249.5 216.125 285 203.397 302 201.397C312.5 200.397 317 200.125 319 201.397C321.526 203.004 324 209.397 306 208.897C274.8 208.897 242.667 236.625 229.5 247.625Z" fill="black"/>
</g>
<g filter="url(#filter13_d)">
<path d="M522.564 228C505.689 203.246 475.735 193.244 461.391 191.672C452.531 190.886 448.734 190.672 447.047 191.672C444.916 192.935 442.828 197.959 458.016 197.566C484.341 197.566 511.454 219.356 522.564 228Z" fill="black"/>
</g>
<path d="M386.064 214.5C388.064 206.9 386.897 192.333 386.064 186L391.064 185C390.897 192.167 391.064 208.5 393.064 216.5C395.564 226.5 414.064 228 424.064 224.5C434.662 220.791 443.397 215.833 446.064 212C445.231 215.667 439.664 224.4 424.064 230C408.464 235.6 394.564 227.667 389.564 223C388.564 225.5 379.064 238.5 356.564 240.5C338.564 242.1 326.397 228.833 322.564 222C327.397 227.333 340.964 237.7 356.564 236.5C376.064 235 383.564 224 386.064 214.5Z" fill="black"/>
<path d="M375.564 174C371.164 179.2 382.397 187.167 388.564 190.5C397.564 186.5 402.664 178.4 401.064 174C399.064 168.5 381.064 167.5 375.564 174Z" fill="black"/>
<defs>
<filter id="filter0_d" x="0" y="276.792" width="239.181" height="429.708" filterUnits="userSpaceOnUse" color-interpolation-filters="sRGB">
<feFlood flood-opacity="0" result="BackgroundImageFix"/>
<feColorMatrix in="SourceAlpha" type="matrix" values="0 0 0 0 0 0 0 0 0 0 0 0 0 0 0 0 0 0 127 0"/>
<feOffset dy="4"/>
<feGaussianBlur stdDeviation="2"/>
<feColorMatrix type="matrix" values="0 0 0 0 0 0 0 0 0 0 0 0 0 0 0 0 0 0 0.25 0"/>
<feBlend mode="normal" in2="BackgroundImageFix" result="effect1_dropShadow"/>
<feBlend mode="normal" in="SourceGraphic" in2="effect1_dropShadow" result="shape"/>
</filter>
<filter id="filter1_d" x="223.157" y="737.217" width="96.5239" height="85.5712" filterUnits="userSpaceOnUse" color-interpolation-filters="sRGB">
<feFlood flood-opacity="0" result="BackgroundImageFix"/>
<feColorMatrix in="SourceAlpha" type="matrix" values="0 0 0 0 0 0 0 0 0 0 0 0 0 0 0 0 0 0 127 0"/>
<feOffset dy="4"/>
<feGaussianBlur stdDeviation="2"/>
<feColorMatrix type="matrix" values="0 0 0 0 0 0 0 0 0 0 0 0 0 0 0 0 0 0 0.25 0"/>
<feBlend mode="normal" in2="BackgroundImageFix" result="effect1_dropShadow"/>
<feBlend mode="normal" in="SourceGraphic" in2="effect1_dropShadow" result="shape"/>
</filter>
<filter id="filter2_d" x="426.681" y="737.217" width="96.5239" height="85.5712" filterUnits="userSpaceOnUse" color-interpolation-filters="sRGB">
<feFlood flood-opacity="0" result="BackgroundImageFix"/>
<feColorMatrix in="SourceAlpha" type="matrix" values="0 0 0 0 0 0 0 0 0 0 0 0 0 0 0 0 0 0 127 0"/>
<feOffset dy="4"/>
<feGaussianBlur stdDeviation="2"/>
<feColorMatrix type="matrix" values="0 0 0 0 0 0 0 0 0 0 0 0 0 0 0 0 0 0 0.25 0"/>
<feBlend mode="normal" in2="BackgroundImageFix" result="effect1_dropShadow"/>
<feBlend mode="normal" in="SourceGraphic" in2="effect1_dropShadow" result="shape"/>
</filter>
<filter id="filter3_d" x="201.252" y="465.5" width="343.97" height="353.639" filterUnits="userSpaceOnUse" color-interpolation-filters="sRGB">
<feFlood flood-opacity="0" result="BackgroundImageFix"/>
<feColorMatrix in="SourceAlpha" type="matrix" values="0 0 0 0 0 0 0 0 0 0 0 0 0 0 0 0 0 0 127 0"/>
<feOffset dy="4"/>
<feGaussianBlur stdDeviation="2"/>
<feColorMatrix type="matrix" values="0 0 0 0 0 0 0 0 0 0 0 0 0 0 0 0 0 0 0.25 0"/>
<feBlend mode="normal" in2="BackgroundImageFix" result="effect1_dropShadow"/>
<feBlend mode="normal" in="SourceGraphic" in2="effect1_dropShadow" result="shape"/>
</filter>
<filter id="filter4_d" x="238.904" y="218.623" width="260.195" height="621.867" filterUnits="userSpaceOnUse" color-interpolation-filters="sRGB">
<feFlood flood-opacity="0" result="BackgroundImageFix"/>
<feColorMatrix in="SourceAlpha" type="matrix" values="0 0 0 0 0 0 0 0 0 0 0 0 0 0 0 0 0 0 127 0"/>
<feOffset dy="6"/>
<feGaussianBlur stdDeviation="2"/>
<feColorMatrix type="matrix" values="0 0 0 0 0 0 0 0 0 0 0 0 0 0 0 0 0 0 0.25 0"/>
<feBlend mode="normal" in2="BackgroundImageFix" result="effect1_dropShadow"/>
<feBlend mode="normal" in="SourceGraphic" in2="effect1_dropShadow" result="shape"/>
</filter>
<filter id="filter5_d" x="384.681" y="0" width="98" height="152" filterUnits="userSpaceOnUse" color-interpolation-filters="sRGB">
<feFlood flood-opacity="0" result="BackgroundImageFix"/>
<feColorMatrix in="SourceAlpha" type="matrix" values="0 0 0 0 0 0 0 0 0 0 0 0 0 0 0 0 0 0 127 0"/>
<feOffset dy="4"/>
<feGaussianBlur stdDeviation="2"/>
<feColorMatrix type="matrix" values="0 0 0 0 0 0 0 0 0 0 0 0 0 0 0 0 0 0 0.25 0"/>
<feBlend mode="normal" in2="BackgroundImageFix" result="effect1_dropShadow"/>
<feBlend mode="normal" in="SourceGraphic" in2="effect1_dropShadow" result="shape"/>
</filter>
<filter id="filter6_d" x="205.681" y="36" width="118" height="133" filterUnits="userSpaceOnUse" color-interpolation-filters="sRGB">
<feFlood flood-opacity="0" result="BackgroundImageFix"/>
<feColorMatrix in="SourceAlpha" type="matrix" values="0 0 0 0 0 0 0 0 0 0 0 0 0 0 0 0 0 0 127 0"/>
<feOffset dy="4"/>
<feGaussianBlur stdDeviation="2"/>
<feColorMatrix type="matrix" values="0 0 0 0 0 0 0 0 0 0 0 0 0 0 0 0 0 0 0.25 0"/>
<feBlend mode="normal" in2="BackgroundImageFix" result="effect1_dropShadow"/>
<feBlend mode="normal" in="SourceGraphic" in2="effect1_dropShadow" result="shape"/>
</filter>
<filter id="filter7_d" x="238.181" y="60" width="249.608" height="236.312" filterUnits="userSpaceOnUse" color-interpolation-filters="sRGB">
<feFlood flood-opacity="0" result="BackgroundImageFix"/>
<feColorMatrix in="SourceAlpha" type="matrix" values="0 0 0 0 0 0 0 0 0 0 0 0 0 0 0 0 0 0 127 0"/>
<feOffset dy="4"/>
<feGaussianBlur stdDeviation="2"/>
<feColorMatrix type="matrix" values="0 0 0 0 0 0 0 0 0 0 0 0 0 0 0 0 0 0 0.25 0"/>
<feBlend mode="normal" in2="BackgroundImageFix" result="effect1_dropShadow"/>
<feBlend mode="normal" in="SourceGraphic" in2="effect1_dropShadow" result="shape"/>
</filter>
<filter id="filter8_d" x="216" y="188" width="101.333" height="49.1247" filterUnits="userSpaceOnUse" color-interpolation-filters="sRGB">
<feFlood flood-opacity="0" result="BackgroundImageFix"/>
<feColorMatrix in="SourceAlpha" type="matrix" values="0 0 0 0 0 0 0 0 0 0 0 0 0 0 0 0 0 0 127 0"/>
<feOffset dy="4"/>
<feGaussianBlur stdDeviation="2"/>
<feColorMatrix type="matrix" values="0 0 0 0 0 0 0 0 0 0 0 0 0 0 0 0 0 0 0.25 0"/>
<feBlend mode="normal" in2="BackgroundImageFix" result="effect1_dropShadow"/>
<feBlend mode="normal" in="SourceGraphic" in2="effect1_dropShadow" result="shape"/>
</filter>
<filter id="filter9_d" x="447.564" y="181" width="87" height="40" filterUnits="userSpaceOnUse" color-interpolation-filters="sRGB">
<feFlood flood-opacity="0" result="BackgroundImageFix"/>
<feColorMatrix in="SourceAlpha" type="matrix" values="0 0 0 0 0 0 0 0 0 0 0 0 0 0 0 0 0 0 127 0"/>
<feOffset dy="4"/>
<feGaussianBlur stdDeviation="2"/>
<feColorMatrix type="matrix" values="0 0 0 0 0 0 0 0 0 0 0 0 0 0 0 0 0 0 0.25 0"/>
<feBlend mode="normal" in2="BackgroundImageFix" result="effect1_dropShadow"/>
<feBlend mode="normal" in="SourceGraphic" in2="effect1_dropShadow" result="shape"/>
</filter>
<filter id="filter10_d" x="236.5" y="213.378" width="90.5135" height="58.7465" filterUnits="userSpaceOnUse" color-interpolation-filters="sRGB">
<feFlood flood-opacity="0" result="BackgroundImageFix"/>
<feColorMatrix in="SourceAlpha" type="matrix" values="0 0 0 0 0 0 0 0 0 0 0 0 0 0 0 0 0 0 127 0"/>
<feOffset dy="4"/>
<feGaussianBlur stdDeviation="2"/>
<feColorMatrix type="matrix" values="0 0 0 0 0 0 0 0 0 0 0 0 0 0 0 0 0 0 0.25 0"/>
<feBlend mode="normal" in2="BackgroundImageFix" result="effect1_dropShadow"/>
<feBlend mode="normal" in="SourceGraphic" in2="effect1_dropShadow" result="shape"/>
</filter>
<filter id="filter11_d" x="439.526" y="201.003" width="77.7175" height="47.9974" filterUnits="userSpaceOnUse" color-interpolation-filters="sRGB">
<feFlood flood-opacity="0" result="BackgroundImageFix"/>
<feColorMatrix in="SourceAlpha" type="matrix" values="0 0 0 0 0 0 0 0 0 0 0 0 0 0 0 0 0 0 127 0"/>
<feOffset dy="4"/>
<feGaussianBlur stdDeviation="2"/>
<feColorMatrix type="matrix" values="0 0 0 0 0 0 0 0 0 0 0 0 0 0 0 0 0 0 0.25 0"/>
<feBlend mode="normal" in2="BackgroundImageFix" result="effect1_dropShadow"/>
<feBlend mode="normal" in="SourceGraphic" in2="effect1_dropShadow" result="shape"/>
</filter>
<filter id="filter12_d" x="225.5" y="200.542" width="99.2575" height="55.0827" filterUnits="userSpaceOnUse" color-interpolation-filters="sRGB">
<feFlood flood-opacity="0" result="BackgroundImageFix"/>
<feColorMatrix in="SourceAlpha" type="matrix" values="0 0 0 0 0 0 0 0 0 0 0 0 0 0 0 0 0 0 127 0"/>
<feOffset dy="4"/>
<feGaussianBlur stdDeviation="2"/>
<feColorMatrix type="matrix" values="0 0 0 0 0 0 0 0 0 0 0 0 0 0 0 0 0 0 0.25 0"/>
<feBlend mode="normal" in2="BackgroundImageFix" result="effect1_dropShadow"/>
<feBlend mode="normal" in="SourceGraphic" in2="effect1_dropShadow" result="shape"/>
</filter>
<filter id="filter13_d" x="441.564" y="191" width="85" height="45" filterUnits="userSpaceOnUse" color-interpolation-filters="sRGB">
<feFlood flood-opacity="0" result="BackgroundImageFix"/>
<feColorMatrix in="SourceAlpha" type="matrix" values="0 0 0 0 0 0 0 0 0 0 0 0 0 0 0 0 0 0 127 0"/>
<feOffset dy="4"/>
<feGaussianBlur stdDeviation="2"/>
<feColorMatrix type="matrix" values="0 0 0 0 0 0 0 0 0 0 0 0 0 0 0 0 0 0 0.25 0"/>
<feBlend mode="normal" in2="BackgroundImageFix" result="effect1_dropShadow"/>
<feBlend mode="normal" in="SourceGraphic" in2="effect1_dropShadow" result="shape"/>
</filter>
</defs>
</svg>
