<svg width="110" height="110" viewBox="0 0 110 110" fill="none" xmlns="http://www.w3.org/2000/svg">
<mask id="mask0" mask-type="alpha" maskUnits="userSpaceOnUse" x="0" y="0" width="110" height="110">
<rect width="110" height="110" fill="white"/>
</mask>
<g mask="url(#mask0)">
<path d="M-16.5283 109.939H141.011V-47.2856H-16.5283V109.939Z" fill="#E7E4B9"/>
<path d="M133.044 66.0404H-9.16083C-10.5929 66.0404 -11.7544 67.7879 -11.7544 69.9448V74.4071C-11.7544 76.5632 -10.5929 78.3118 -9.16083 78.3118H-3.50838C-3.65166 78.8195 -3.73417 79.385 -3.73417 79.9855V84.4478C-3.73417 84.9041 -3.68497 85.3412 -3.59957 85.7491H-5.10984C-6.46016 85.7491 -7.55575 87.4973 -7.55575 89.6538V94.1162C-7.55575 96.2727 -6.46016 98.021 -5.10984 98.021H128.994C130.344 98.021 131.439 96.2727 131.439 94.1162V89.6538C131.439 87.4973 130.344 85.7491 128.994 85.7491H127.483C127.569 85.3412 127.618 84.9041 127.618 84.4478V79.9855C127.618 79.385 127.535 78.8195 127.393 78.3118H133.044C134.477 78.3118 135.638 76.5632 135.638 74.4071V69.9448C135.638 67.7879 134.477 66.0404 133.044 66.0404" fill="#BCA18A"/>
<path d="M0.317043 0.321023H-3.97856C-4.08086 0.321023 -4.16382 0.403743 -4.16382 0.505665C-4.16382 0.607588 -4.08086 0.690308 -3.97856 0.690308H0.317043C0.41923 0.690308 0.502298 0.607588 0.502298 0.505665C0.502298 0.403743 0.41923 0.321023 0.317043 0.321023Z" fill="#5A3114"/>
<path d="M109.188 34.9377H113.285V20.5174H109.188V34.9377Z" fill="#2D94B6"/>
<path d="M109.188 33.3783H111.306V20.5174H109.188V33.3783Z" fill="#1D7797"/>
<path d="M117.713 34.6115C117.713 35.2922 117.361 35.8439 116.926 35.8439H105.547C105.113 35.8439 104.76 35.2922 104.76 34.6115C104.76 33.9311 105.113 33.3783 105.547 33.3783H116.926C117.361 33.3783 117.713 33.9311 117.713 34.6115" fill="#65BED9"/>
<path d="M117.685 34.9377H104.788C104.77 34.8338 104.76 34.7247 104.76 34.6115C104.76 33.9312 105.113 33.3784 105.547 33.3784H107.833C107.872 33.3998 107.907 33.4213 107.95 33.4379C110.456 34.4093 113.022 34.653 115.642 34.653C116.329 34.653 117.019 34.6359 117.713 34.6112C117.713 34.6115 117.713 34.6115 117.713 34.6115C117.713 34.7247 117.703 34.8338 117.685 34.9377" fill="#4197B3"/>
<path d="M118.797 36.1708C118.797 36.852 118.387 37.4037 117.88 37.4037H104.594C104.087 37.4037 103.676 36.852 103.676 36.1708C103.676 35.4897 104.087 34.9377 104.594 34.9377H117.88C118.387 34.9377 118.797 35.4897 118.797 36.1708Z" fill="#65BED9"/>
<path d="M118.045 37.3833H104.427C104.049 37.2901 103.753 36.8826 103.691 36.3694H118.782C118.72 36.8826 118.424 37.2901 118.045 37.3833Z" fill="#4197B3"/>
<path d="M108.951 1.24171L100.135 18.8391H122.339L113.523 1.24171H108.951" fill="#80CC28"/>
<path d="M113.647 18.8391H100.135L108.951 1.24171H109.866C107.534 7.17688 108.925 14.3604 113.647 18.8391Z" fill="#52A127"/>
<path d="M110.558 68.4395C109.811 68.4395 109.075 68.4366 108.353 68.4314V66.4336C109.075 66.4284 109.811 66.4254 110.558 66.4254C120.127 66.4254 127.887 66.8762 127.887 67.4327C127.887 67.9892 120.127 68.4395 110.558 68.4395Z" fill="#96806E"/>
<path d="M97.596 67.4323H96.0629V63.0405H99.1296L97.596 67.4323Z" fill="#813D31"/>
<path d="M95.264 64.4989H125.209V59.8327H95.264V64.4989Z" fill="#813D31"/>
<path d="M93.7715 62.8948H126.702V39.424H93.7715V62.8948Z" fill="#A47343"/>
<path d="M95.8662 50.1026H124.608V41.9022H95.8662V50.1026Z" fill="#845333"/>
<path d="M113.684 43.2884L113.639 43.277H106.887L106.869 43.2818L106.846 43.277C106.321 43.277 105.896 43.7011 105.896 44.2254C105.896 44.7494 106.321 45.1743 106.846 45.1743C107.356 45.1743 107.764 44.7712 107.787 44.268H112.686C112.709 44.7712 113.118 45.1743 113.628 45.1743C114.153 45.1743 114.578 44.7494 114.578 44.2254C114.578 43.7214 114.181 43.3188 113.684 43.2884" fill="#FDDD10"/>
<path d="M95.8662 60.708H124.608V52.5076H95.8662V60.708Z" fill="#845333"/>
<path d="M113.684 53.8943L113.639 53.8832H106.887L106.869 53.8872L106.846 53.8832C106.321 53.8832 105.896 54.3073 105.896 54.8312C105.896 55.3556 106.321 55.7797 106.846 55.7797C107.356 55.7797 107.764 55.377 107.787 54.8738H112.686C112.709 55.377 113.118 55.7797 113.628 55.7797C114.153 55.7797 114.578 55.3556 114.578 54.8312C114.578 54.3273 114.181 53.9242 113.684 53.8943" fill="#FDDD10"/>
<path d="M92.781 40.1533H127.692V37.3834H92.781V40.1533Z" fill="#A47343"/>
<path d="M97.5961 48.916H123.517V45.1743H97.5961V48.916Z" fill="#6F3C26"/>
<path d="M123.517 59.4119H106.256L101.674 55.6706H106.402C106.535 55.7401 106.686 55.7797 106.846 55.7797C107.006 55.7797 107.156 55.7401 107.287 55.6706H113.187C113.318 55.7401 113.468 55.7797 113.628 55.7797C113.788 55.7797 113.939 55.7401 114.072 55.6706H123.517V59.4119Z" fill="#6F3C26"/>
<path d="M113.628 55.7797C113.468 55.7797 113.318 55.7402 113.187 55.6708H114.071C113.939 55.7402 113.788 55.7797 113.628 55.7797ZM106.846 55.7797C106.686 55.7797 106.535 55.7402 106.402 55.6708H107.287C107.155 55.7402 107.006 55.7797 106.846 55.7797Z" fill="#CE9A0F"/>
<path d="M126.009 38.7681H94.4647C94.082 38.7681 93.7715 38.4583 93.7715 38.0755C93.7715 37.6932 94.082 37.3833 94.4647 37.3833H126.009C126.391 37.3833 126.702 37.6932 126.702 38.0755C126.702 38.4583 126.391 38.7681 126.009 38.7681Z" fill="#C4914C"/>
<path d="M112.822 92.6006H-3.97864L-0.573844 88.8485H6.76035V85.4898H102.214V88.8485H109.558V88.6891L112.822 92.6006Z" fill="#9C8572"/>
<path d="M90.2376 49.6031V22.3696C90.2376 22.3696 89.7304 11.1119 76.6259 9.92684H58.6577H50.7588H32.7899C19.6868 11.1119 19.1788 22.3696 19.1788 22.3696V49.6031H90.2376" fill="#A77055"/>
<path d="M84.3581 49.6031V26.876C84.3581 26.876 83.9353 17.4809 72.999 16.4921H58.0041H51.4128H36.4168C25.482 17.4809 25.0585 26.876 25.0585 26.876V49.6031H84.3581" fill="#E3BAAA"/>
<path d="M90.2376 46.3317L87.7767 44.322V24.5042C87.7767 24.5042 87.3047 14.0264 75.1075 12.9238H58.3842H51.0333H34.3082C22.1133 14.0264 21.6405 24.5042 21.6405 24.5042V44.0783L19.1788 46.0884V22.3695C19.1788 22.3695 19.6868 11.1119 32.7899 9.92677H50.7588H58.6577H76.6259C89.7304 11.1119 90.2376 22.3695 90.2376 22.3695V46.3317" fill="#9D644C"/>
<path d="M80.0859 38.0426L108.402 61.1636H0.717285L29.0331 38.0426H80.0859Z" fill="white"/>
<path d="M86.6406 43.3943H22.4781L0.717285 61.1636H108.402L86.6406 43.3943" fill="#76D3F6"/>
<path d="M95.8174 50.888H13.3015L14.3508 50.0313H94.7681L95.8174 50.888Z" fill="#5FA9C8"/>
<path d="M94.768 50.0312L86.6406 43.3943H22.478L14.3508 50.0312H94.768Z" fill="#37B0BD"/>
<path d="M108.353 70.1175C108.353 71.0626 107.585 71.8284 106.639 71.8284H2.33519C1.38791 71.8284 0.62085 71.0626 0.62085 70.1175V61.4822C0.62085 60.5375 1.38791 59.7717 2.33519 59.7717H106.639C107.585 59.7717 108.353 60.5375 108.353 61.4822V70.1175Z" fill="#CAE0E9"/>
<path d="M1.19588 70.1175H0.62085V61.4823C0.62085 61.1033 0.745896 60.7538 0.956048 60.4706C0.820442 60.6555 0.720997 60.8681 0.667904 61.0988C0.744154 60.7705 0.913218 60.4783 1.14838 60.252C1.09051 60.4233 1.05216 60.6037 1.05216 60.7952V69.4305C1.05216 69.6749 1.10351 69.9071 1.19588 70.1175V70.1175ZM0.657752 61.1317C0.633595 61.2445 0.62085 61.3621 0.62085 61.4823C0.62085 61.3621 0.633892 61.2453 0.657752 61.1317Z" fill="#A8B9C1"/>
<path d="M0.62085 61.4823C0.62085 61.3623 0.633595 61.2448 0.657752 61.1322C0.633891 61.2456 0.62085 61.3623 0.62085 61.4823Z" fill="#89A9B6"/>
<path d="M2.29236 59.7725C2.29236 59.7725 2.29251 59.7725 2.29265 59.7725C2.29251 59.7725 2.29251 59.7725 2.29236 59.7725ZM2.30526 59.7721C2.3057 59.7721 2.30626 59.7721 2.30685 59.7721C2.30626 59.7721 2.30585 59.7721 2.30526 59.7721ZM2.30974 59.7721C2.31048 59.7721 2.31134 59.7721 2.31208 59.7721C2.31134 59.7721 2.31048 59.7721 2.30974 59.7721ZM2.31482 59.7721C2.31552 59.7721 2.31641 59.7721 2.31727 59.7721C2.31641 59.7721 2.31552 59.7721 2.31482 59.7721ZM2.3199 59.7717C2.32075 59.7717 2.3216 59.7717 2.32264 59.7717C2.32175 59.7717 2.32075 59.7717 2.3199 59.7717ZM2.32494 59.7717C2.32598 59.7717 2.32698 59.7717 2.32798 59.7717C2.32698 59.7717 2.32598 59.7717 2.32494 59.7717ZM2.33016 59.7717C2.33191 59.7717 2.3335 59.7717 2.33524 59.7717C2.3335 59.7717 2.33191 59.7717 2.33016 59.7717Z" fill="#BDCFB1"/>
<path d="M108.353 70.1175H1.19588C1.10352 69.9071 1.05216 69.6749 1.05216 69.4305V60.7952C1.05216 60.6037 1.09051 60.4232 1.14839 60.252C1.07836 60.3193 1.01393 60.3926 0.956055 60.4706C1.25928 60.0575 1.74294 59.7858 2.29233 59.7725C2.29248 59.7725 2.29248 59.7725 2.29263 59.7725C2.29682 59.7721 2.30104 59.7721 2.30523 59.7721C2.30582 59.7721 2.30623 59.7721 2.30682 59.7721C2.30782 59.7721 2.30871 59.7721 2.30971 59.7721C2.31045 59.7721 2.3113 59.7721 2.31204 59.7721C2.3129 59.7721 2.31379 59.7721 2.31479 59.7721C2.31549 59.7721 2.31638 59.7721 2.31723 59.7721C2.31812 59.7721 2.31897 59.7721 2.31986 59.7717C2.32071 59.7717 2.32171 59.7717 2.3226 59.7717C2.32331 59.7717 2.3242 59.7717 2.3249 59.7717C2.32594 59.7717 2.32694 59.7717 2.32794 59.7717C2.32868 59.7717 2.32938 59.7717 2.33012 59.7717C2.33187 59.7717 2.33346 59.7717 2.3352 59.7717H106.639C107.585 59.7717 108.353 60.5375 108.353 61.4823V61.9167H4.48152C4.01116 61.9167 3.61994 62.2447 3.51979 62.6829L3.51401 62.7003C3.50097 62.7654 3.4933 62.833 3.4933 62.9022V67.8796C3.4933 68.4239 3.93517 68.8658 4.48152 68.8658H108.353V70.1175Z" fill="#A4CBDB"/>
<path d="M1.19594 70.1175C1.10358 69.9071 1.05222 69.6749 1.05222 69.4305C1.05222 69.6749 1.10358 69.9071 1.19594 70.1175ZM0.667969 61.0988C0.721063 60.8681 0.820508 60.6555 0.956114 60.4706C1.01399 60.3926 1.07842 60.3193 1.14845 60.252C0.913283 60.4783 0.74422 60.7705 0.667969 61.0988" fill="#89A9B6"/>
<path d="M-0.58313 70.1176V88.8486H6.76047V85.4899H102.214V88.8486H109.558V85.4899V81.2539V70.1176H-0.58313Z" fill="#A77055"/>
<path d="M109.558 88.8486H102.214V85.4899H6.76047V88.8486H-0.58313V85.4899V81.2539V70.1176H3.97732L3.97832 81.1093L109.558 81.2539V85.4899V88.8486Z" fill="#9D644C"/>
<path d="M6.3418 79.483H102.63V73.0768H6.3418V79.483Z" fill="#9A674E"/>
<path d="M102.631 79.483H6.3418V73.0768H7.22031V78.2746H102.631V79.483" fill="#8E5A44"/>
<path d="M25.9649 27.2395C25.9649 27.2395 38.5259 23.2548 53.0343 27.2395C53.0343 27.2395 56.0525 36.6656 53.0343 43.9542C53.0343 43.9542 38.5259 47.5498 25.9649 43.9542C25.9649 43.9542 23.4332 34.8194 25.9649 27.2395Z" fill="white"/>
<path d="M52.4417 27.086C51.4965 26.84 50.5606 26.627 49.6359 26.4438C49.7359 26.4759 49.8326 26.5066 49.9334 26.5394C50.7085 26.7935 51.5947 27.1196 52.4417 27.086" fill="white"/>
<path d="M38.5653 45.5523H38.5642H38.5653ZM38.5664 45.5523C46.5854 45.5515 53.0341 43.9541 53.0341 43.9541C53.0341 43.9541 46.5865 45.5519 38.5664 45.5523ZM26.068 43.9837C26.0629 43.9819 26.0588 43.9808 26.0532 43.9793C26.0588 43.9808 26.0629 43.9819 26.068 43.9837Z" fill="#2D9EAB"/>
<path d="M53.2526 43.3942C53.3033 43.2561 53.3522 43.1176 53.3989 42.9784C53.3522 43.1176 53.3033 43.2561 53.2526 43.3942Z" fill="#CDDEE5"/>
<path d="M53.0386 43.943C53.1138 43.7617 53.1849 43.5789 53.2527 43.395C53.1853 43.5789 53.1138 43.7617 53.0386 43.943Z" fill="#2D9EAB"/>
<path d="M38.5653 45.5523H38.5642C34.5872 45.5519 30.2237 45.1592 26.0681 43.9837C26.0629 43.9819 26.0588 43.9808 26.0533 43.9793C26.0355 43.9745 26.0166 43.9689 25.9992 43.9637C25.9877 43.9608 25.9762 43.9575 25.9647 43.9541C25.9647 43.9541 25.9099 43.7563 25.8247 43.3943C25.5231 42.1182 24.8402 38.8025 24.8398 34.9454C24.8395 32.468 25.1207 29.7672 25.9647 27.2395C25.9647 27.2395 31.5461 25.4723 39.5639 25.4723C41.0733 25.4723 42.6695 25.5348 44.3308 25.6838C43.9837 25.6528 43.6317 25.6391 43.2756 25.6391C41.4861 25.6391 39.6031 25.9808 37.8651 26.1401C36.9088 26.2285 35.9655 26.5032 35.0551 26.7891C33.645 27.2321 30.2419 28.2193 30.396 30.2605C30.4816 31.3949 31.8695 31.6837 32.7547 31.9651C33.4131 32.1914 34.7502 32.6155 33.9173 33.1465C33.7272 33.2678 33.4649 33.3026 33.1785 33.3026C32.9866 33.3026 32.7843 33.287 32.5857 33.2715C32.3871 33.256 32.1922 33.2404 32.0162 33.2404C31.9114 33.2404 31.8132 33.2456 31.7246 33.26C29.0496 33.6923 27.4286 37.1855 28.2374 39.6193C28.6687 40.9187 29.7991 42.1304 30.9873 42.7609C32.9492 43.8029 35.3994 44.0266 37.7617 44.0266C38.848 44.0266 39.9155 43.9793 40.9084 43.9427C44.3119 43.8162 47.8288 43.3791 50.9696 41.9884C52.5213 41.3007 53.5743 40.1777 54.2568 38.8313C54.1197 40.2209 53.8525 41.6261 53.399 42.9779C53.3524 43.1173 53.3035 43.256 53.2527 43.3943C53.1849 43.5784 53.1138 43.7615 53.0385 43.943C53.0371 43.9467 53.0356 43.9504 53.0341 43.9541C53.0341 43.9541 46.5854 45.5515 38.5665 45.5523C38.5657 45.5523 38.5661 45.5523 38.5653 45.5523" fill="#CDDEE5"/>
<path d="M57.2325 27.2395C57.2325 27.2395 69.7935 23.2548 84.3023 27.2395C84.3023 27.2395 87.3205 36.6656 84.3023 43.9542C84.3023 43.9542 69.7935 47.5498 57.2325 43.9542C57.2325 43.9542 54.7005 34.8194 57.2325 27.2395" fill="white"/>
<path d="M83.7097 27.086C82.7645 26.84 81.829 26.627 80.9038 26.4438C81.0031 26.4759 81.1006 26.5066 81.201 26.5394C81.9764 26.7935 82.8631 27.1196 83.7097 27.086" fill="white"/>
<path d="M69.8334 45.5523H69.8322H69.8334ZM69.8348 45.5523C77.8534 45.5515 84.3025 43.9541 84.3025 43.9541C84.3025 43.9541 77.8545 45.5519 69.8348 45.5523ZM57.3361 43.9834C57.3316 43.9822 57.3279 43.9811 57.3235 43.98C57.3279 43.9811 57.3316 43.9822 57.3361 43.9834Z" fill="#2D9EAB"/>
<path d="M69.8335 45.5523H69.8324C65.8554 45.5519 61.4919 45.1592 57.3363 43.9833C57.3318 43.9822 57.3281 43.9811 57.3237 43.98C57.3066 43.9752 57.2881 43.97 57.2714 43.9652C57.2585 43.9615 57.2459 43.9578 57.2329 43.9541C57.2329 43.9541 57.1781 43.7563 57.0925 43.3943C56.7909 42.1182 56.108 38.8025 56.1077 34.9454C56.1073 32.468 56.3885 29.7672 57.2329 27.2395C57.2329 27.2395 62.8146 25.4723 70.8324 25.4723C72.3419 25.4723 73.9377 25.5348 75.599 25.6838C75.2522 25.6528 74.8999 25.6391 74.5435 25.6391C72.7539 25.6391 70.8713 25.9808 69.1329 26.1401C68.1774 26.2285 67.2337 26.5032 66.323 26.7891C64.9132 27.2321 61.5104 28.2193 61.6642 30.2605C61.7498 31.3949 63.1373 31.6837 64.0229 31.9651C64.6809 32.1914 66.0188 32.6155 65.1859 33.1465C64.9958 33.2678 64.7335 33.3026 64.4471 33.3026C64.2552 33.3026 64.0525 33.287 63.8539 33.2715C63.6553 33.256 63.4608 33.2404 63.2844 33.2404C63.1799 33.2404 63.0818 33.2456 62.9932 33.26C60.317 33.6923 58.696 37.1855 59.506 39.6193C59.9372 40.9187 61.0677 42.1304 62.2559 42.7609C64.217 43.8029 66.6675 44.0266 69.0299 44.0266C70.1159 44.0266 71.1833 43.9793 72.1763 43.9427C75.5805 43.8162 79.0974 43.3791 82.2378 41.9884C83.7895 41.3007 84.8425 40.1777 85.5246 38.8313C85.3538 40.5589 84.9826 42.3112 84.3027 43.9541C84.3027 43.9541 77.8536 45.5515 69.835 45.5523C69.8343 45.5523 69.8343 45.5523 69.8335 45.5523" fill="#CDDEE5"/>
</g>
</svg>
