<svg width="546" height="840" viewBox="0 0 546 840" fill="none" xmlns="http://www.w3.org/2000/svg">
<g id="catsvg">
<path id="tail" d="M237.122 643.481L237.806 640.72L234.977 641.01C225.728 641.959 212.596 639.246 203.253 628.067C193.918 616.898 188.004 596.843 194.15 562.351C194.83 558.534 195.503 554.774 196.167 551.068C210.617 470.402 220.569 414.846 194.037 348.755C179.965 313.704 143.401 289.88 106.139 282.352C68.9203 274.832 30.071 283.433 11.9531 314.492C3.03537 329.78 0.566548 343.09 2.74215 354.084C4.9219 365.098 11.7066 373.492 20.696 379.016C38.5484 389.988 65.4225 389.859 83.8475 376.624C100.857 364.406 122.014 365.605 137.213 377.274C152.365 388.906 161.835 411.179 154.733 441.545C152.444 451.333 149.773 461.359 147.062 471.536C141.258 493.322 135.269 515.801 132.446 538.124C128.287 571.025 130.907 604.054 151.002 635.087C166.879 659.606 181.524 676.404 193.42 687.453C205.26 698.45 214.502 703.866 219.6 705.414L221.615 706.026L222.122 703.981L237.122 643.481Z" fill="#3E3E4D" stroke="#3E3E4D" stroke-width="4"/>
<path id="tail-shadow" fill-rule="evenodd" clip-rule="evenodd" d="M222.699 693.344L220.181 703.5C210.847 700.667 184.281 682.8 152.681 634C119.498 582.756 134.657 525.865 148.951 472.222C151.672 462.01 154.362 451.915 156.681 442C171.181 380 118.181 349.5 82.6807 375C47.1807 400.5 -21.3193 375.5 13.6807 315.5C16.3899 310.856 19.5844 306.723 23.1857 303.084C13.6807 329.5 8.5 378 62.5 356C118.346 330.043 158 343 168.5 376C179 409 165.5 472.5 147.5 548.5C142 613.546 188.833 668.5 218.5 690.5L222.699 693.344Z" fill="#3E3E4D" fill-opacity="0.1"/>
<path id="paw-left" d="M430.12 814.419L428.681 813.999V812.5V745.5V743.857L430.291 743.538C440.9 741.433 457.262 739.48 471.894 740.492C479.203 740.997 486.209 742.25 491.88 744.678C497.442 747.059 501.926 750.667 503.943 755.995C509.344 762.638 516.198 773.308 519.398 784.106C522.634 795.023 522.286 806.795 511.83 814.136C506.783 817.68 500.275 819.745 493.198 820.819C486.104 821.896 478.305 821.995 470.568 821.508C455.097 820.535 439.649 817.202 430.12 814.419Z" fill="#3E3E4D" stroke="#3E3E4D" stroke-width="4"/>
<path id="paw-right" d="M316.241 814.419L317.681 813.999V812.5V745.5V743.857L316.07 743.538C305.461 741.433 289.1 739.48 274.468 740.492C267.158 740.997 260.152 742.25 254.481 744.678C248.919 747.059 244.435 750.667 242.419 755.995C237.017 762.638 230.164 773.308 226.963 784.106C223.728 795.023 224.076 806.795 234.531 814.136C239.578 817.68 246.086 819.745 253.163 820.819C260.258 821.896 268.056 821.995 275.794 821.508C291.265 820.535 306.712 817.202 316.241 814.419Z" fill="#3E3E4D" stroke="#3E3E4D" stroke-width="4"/>
<path id="paw-left-shadow" d="M510.681 812.5C529.481 799.3 512.847 770 502.181 757C495.381 737.8 451.681 741.333 430.681 745.5V812.5C449.514 818 491.881 825.7 510.681 812.5Z" fill="#3E3E4D" fill-opacity="0.1"/>
<path id="paw-right-shadow" d="M235.681 812.5C216.881 799.3 233.514 770 244.181 757C250.981 737.8 294.681 741.333 315.681 745.5V812.5C296.847 818 254.481 825.7 235.681 812.5Z" fill="#3E3E4D" fill-opacity="0.1"/>
<path id="body-back" d="M251.39 506.595L250.68 506.823L250.292 507.46C233.851 534.47 212.802 581.277 205.71 631.797C198.617 682.319 205.453 736.853 245.21 778.856C272.33 809.029 317.616 819.502 378.73 817.999C409.321 817.247 442.521 813.723 470.701 805.143C498.811 796.584 522.352 782.86 532.973 761.387C538.267 750.685 541.595 735.078 542.758 716.421C543.923 697.725 542.921 675.816 539.444 652.414C532.49 605.621 515.614 552.697 486.177 507.41L485.796 506.824L485.133 506.603L371.314 468.603L370.694 468.396L370.071 468.595L251.39 506.595Z" fill="#3E3E4D" stroke="#3E3E4D" stroke-width="4"/>
<path id="body-back-shadow" d="M214.321 599.023C199.205 657.485 198.686 726.811 246.681 777.5C273.181 807 317.681 817.5 378.681 816C439.681 814.5 510.681 801.945 531.181 760.5C544.963 732.635 545.556 669.011 526.686 602.955C534.686 665.754 545.261 744.413 496 772C471 786 421 800.5 300.5 787.5C221.648 778.993 209.012 672.867 214.321 599.023Z" fill="#3E3E4D" fill-opacity="0.1"/>
<path id="body-front-shadow" d="M353 587.5C352.6 612.7 357.167 689 359.5 724L339 716L304 566L322 468.5L451.5 490.5L438.5 696L383.5 724C386.167 688.667 391.9 611.9 393.5 587.5C395.5 557 388.5 539.5 371.5 539.5C354.5 539.5 353.5 556 353 587.5Z" fill="#3E3E4D" fill-opacity="0.1"/>
<path id="body-front" d="M496.999 472.939C495.993 440 486.96 377.53 466.623 323.236C456.455 296.09 443.412 270.853 427.028 252.369C410.644 233.886 390.795 222.03 367.09 222C338.832 219.469 316.625 229.844 299.352 247.899C282.127 265.903 269.822 291.515 261.091 319.53C243.625 375.571 240.248 441.937 241 478.541C241.605 507.954 251.189 563.636 262.865 621.111C274.428 678.034 288.087 736.921 297.259 774.262C279.121 789.407 270.448 800.999 268.006 810.107C266.74 814.828 267.14 818.915 268.794 822.404C270.429 825.851 273.202 828.539 276.391 830.664C278.173 831.852 280.808 832.826 283.88 833.631C286.997 834.449 290.734 835.136 294.84 835.678C303.051 836.763 312.858 837.283 322.359 837.062C331.84 836.842 341.129 835.881 348.264 833.955C351.823 832.993 354.963 831.761 357.338 830.18C359.67 828.626 361.48 826.585 361.952 823.95C364.147 816.349 364.874 802.577 364.75 785.455C364.624 768.149 363.622 747.137 362.246 725.001C360.958 704.27 359.346 682.591 357.815 662.008C356.07 638.538 354.43 616.492 353.497 598.894C352.981 589.17 352.375 580.106 351.818 571.78C351.432 566.007 351.07 560.588 350.778 555.549C350.059 543.151 349.756 532.924 350.492 524.742C351.23 516.53 352.993 510.688 356.144 506.818C359.216 503.046 363.857 500.854 371.098 500.498C378.065 500.155 382.917 502.704 386.396 507.442C389.976 512.319 392.186 519.647 393.327 528.932C395.608 547.484 393.515 572.752 391.009 598.809C388.509 624.809 383.383 678.573 379.506 727.028C377.568 751.253 375.941 774.169 375.112 791.632C374.697 800.359 374.48 807.752 374.525 813.276C374.548 816.034 374.636 818.36 374.804 820.169C374.887 821.073 374.993 821.878 375.129 822.558C375.258 823.206 375.439 823.878 375.73 824.432C377.328 827.467 381.192 830.036 386.084 832.046C391.098 834.105 397.622 835.75 405.131 836.673C420.152 838.519 439.335 837.5 458.647 830.893C466.598 828.172 471.085 823.967 472.365 818.558C473.608 813.304 471.643 807.585 468.359 802.186C462.015 791.76 449.877 781.108 440.299 774.186C455.425 719.293 470.036 660.645 480.649 607.517C491.34 553.999 498.006 505.933 496.999 472.939Z" fill="#3E3E4D" stroke="#3E3E4D" stroke-width="4"/>
<path id="neck-shadow" fill-rule="evenodd" clip-rule="evenodd" d="M279.921 278.781C280.796 277.152 281.69 275.548 282.604 273.97C301.271 241.745 328.27 220.495 367 224C396.926 224 420.716 243.417 439.263 271.873C421.511 283.445 396.209 294.03 359.5 297C333.24 299.125 309.75 293.157 290.472 284.195C273.6 302.889 247.443 364.406 250 497C250 516.818 268.554 624.312 283.774 708.397C265.438 627.812 243.911 522.838 243 478.5C242.051 432.34 247.7 338.797 279.921 278.781Z" fill="#3E3E4D" fill-opacity="0.1"/>
<g id="paws-front-shadow">
<path d="M470.012 810.532C455.845 821.472 440.22 821.333 409 820.5C389.006 819.967 380.042 812.001 376.633 804.181C376.352 814.749 376.576 821.745 377.5 823.5C382.5 833 420 842 458 829C469.61 825.028 472.255 818.208 470.012 810.532Z" fill="#3E3E4D" fill-opacity="0.1"/>
<path d="M362.279 807.312C356.705 813.807 344.409 819.995 320.5 822.5C293.849 825.292 278.405 818.232 269.952 810.57C267.609 819.226 271.487 824.992 277.5 829C289.5 837 357.5 839 360 823.5C361.113 819.704 361.848 814.185 362.279 807.312Z" fill="#3E3E4D" fill-opacity="0.1"/>
</g>
<path id="ear-left-outside" d="M232.522 167.297L234.082 169.129L235.598 167.26L307.553 78.5551L308.677 77.1693L307.428 75.895C270.355 38.0816 218.02 36.5378 196.414 40.4794L194.935 40.7491L194.783 42.2446C188.914 99.9737 217.451 149.601 232.522 167.297Z" fill="#3E3E4D" stroke="#3E3E4D" stroke-width="4"/>
<path id="ear-left-outside-shadow" d="M202.831 41.5938C205.624 109.725 224.761 144.726 239.443 159.345L234.045 166C219.205 148.576 190.975 99.4712 196.773 42.4467C198.582 42.1168 200.61 41.8263 202.831 41.5938Z" fill="#3E3E4D" fill-opacity="0.1"/>
<path id="ear-right-outside" d="M438.965 3.24682L438.076 2.75885L437.157 3.18743C428.218 7.35667 414.399 16.2116 401.723 29.3095C389.04 42.4146 377.406 59.8676 373.04 81.237L372.795 82.4401L373.756 83.2037L458.607 150.566L461.247 152.663L461.821 149.34C465.312 129.137 468.406 97.6544 466.329 68.8143C465.291 54.3972 462.954 40.5425 458.671 29.0573C454.395 17.591 448.091 8.25664 438.965 3.24682Z" fill="#3E3E4D" stroke="#3E3E4D" stroke-width="4"/>
<path id="head" d="M346.867 59.2637C269.818 63.1162 227.371 120.086 232.78 181.948C235.23 216.991 248.108 245.371 272.646 263.247C297.152 281.1 332.924 288.21 380.612 281.525C428.531 274.807 452.85 254.205 464.743 231.231C476.538 208.447 475.91 183.696 474.699 168.896C474.688 163.696 473.678 157.839 471.928 150.26C470.834 145.525 469.433 140.038 467.776 133.553C466.769 129.612 465.668 125.301 464.484 120.567C457.921 94.3123 423.548 55.4296 346.867 59.2637Z" fill="#3E3E4D" stroke="#3E3E4D" stroke-width="4"/>
<path id="head-shadow-left" d="M234.774 181.791C239.61 251.072 285.551 292.831 380.334 279.544C389.516 278.257 397.809 276.457 405.296 274.23C375.416 280.491 326.912 284.306 285.5 263C233.759 236.379 234.353 167.117 241.082 132.874C235.478 148.11 233.283 164.764 234.774 181.791Z" fill="#3E3E4D" fill-opacity="0.1"/>
<path id="whisker-left-1" d="M206.319 234.125C235.519 202.925 263.819 195.625 280.819 193.625C291.319 192.625 296.319 192.625 298.319 195.125C300.193 197.467 302.819 201.625 284.819 201.125C253.619 201.125 219.486 223.125 206.319 234.125Z" fill="#3E3E4D"/>
<path id="whisker-left-2" d="M215.819 252.625C235.819 221.125 271.319 208.397 288.319 206.397C298.819 205.397 303.319 205.125 305.319 206.397C307.845 208.004 310.319 214.397 292.319 213.897C261.119 213.897 228.986 241.625 215.819 252.625Z" fill="#3E3E4D"/>
<path id="whisker-left-3" d="M226.819 269.124C249.362 232.821 273.724 226.698 290.006 221.416C300.108 218.384 305.012 217.407 307.462 219.469C309.757 221.4 313.145 224.964 295.394 227.99C264.795 234.085 237.583 255.764 226.819 269.124Z" fill="#3E3E4D"/>
<path id="whisker-right-1" d="M516.883 218C492.167 193.723 468.213 188.042 453.824 186.486C444.937 185.708 440.704 185.708 439.012 187.653C437.425 189.476 435.203 192.711 450.438 192.322C476.847 192.322 505.739 209.441 516.883 218Z" fill="#3E3E4D"/>
<path id="whisker-right-2" d="M508.883 233C492.008 208.246 462.054 198.244 447.71 196.672C438.851 195.886 435.054 195.672 433.366 196.672C431.235 197.935 429.147 202.959 444.335 202.566C470.661 202.566 497.774 224.356 508.883 233Z" fill="#3E3E4D"/>
<path id="whisker-right-3" d="M499.562 246C480.516 217.387 459.931 212.561 446.174 208.397C437.639 206.008 433.496 205.238 431.426 206.862C429.486 208.385 426.624 211.194 441.622 213.579C467.476 218.383 490.467 235.47 499.562 246Z" fill="#3E3E4D"/>
</g>
</svg>
