<svg width="110" height="110" viewBox="0 0 110 110" fill="none" xmlns="http://www.w3.org/2000/svg">
<path fill-rule="evenodd" clip-rule="evenodd" d="M65.4371 81.0554C87.4187 72.6134 99.4262 57.4905 102 38.1163C81.5506 26.9136 61.8126 22.6459 41.5411 28.8696C18.7801 38.1162 11.5738 58.3959 9 77.7702C31.761 85.9499 46.6979 85.4164 65.4371 81.0554ZM12.9405 75.3774C33.3398 82.2576 47.0973 81.6482 64.39 77.6475C84.2148 69.9653 95.0864 56.7814 98.0978 40.0596C79.041 30.0736 61.04 26.6523 42.7351 32.2235C22.9368 40.3355 15.7634 57.4922 12.9405 75.3774Z" fill="#808183"/>
<path fill-rule="evenodd" clip-rule="evenodd" d="M54.046 29C52.6973 32.7815 50 43.3224 50 55.2341C50 67.1458 53.0194 78.0412 54.5291 82C55.9783 78.573 58.9011 68.4221 58.9977 55.2341C59.1185 38.7492 54.4083 29 54.046 29Z" fill="#808183"/>
</svg>
