<svg width="110" height="110" viewBox="0 0 110 110" fill="none" xmlns="http://www.w3.org/2000/svg">
<path d="M94.9961 41.5275C94.6287 62.2892 68.5644 83.0408 55.5 90.8734C42.4356 83.0408 16.3713 62.2892 16.0039 41.5275C15.5556 16.1943 53.5388 12.4739 55.5 34.3491C57.4612 12.4739 95.4444 16.1943 94.9961 41.5275Z" fill="#808183"/>
<path d="M44.8132 61.2956L42.9693 56.604H35.6636L33.8197 61.2956H31.5556L38.1144 45.237H40.5885L47.0306 61.2956H44.8132ZM39.3281 46.8709L39.2114 47.1976C39.0247 47.8356 38.7446 48.6448 38.3711 49.6251L36.3171 54.9001H42.3158L40.2618 49.6018C40.0439 49.0727 39.8338 48.4814 39.6316 47.8279L39.3281 46.8709Z" fill="white"/>
<path d="M61.409 56.7674C61.409 58.199 60.8877 59.3116 59.8451 60.1052C58.8026 60.8988 57.3555 61.2956 55.5037 61.2956H48.9916V45.237H54.8269C58.5925 45.237 60.4754 46.5363 60.4754 49.1349C60.4754 50.0841 60.2108 50.8855 59.6818 51.5391C59.1527 52.177 58.398 52.605 57.4177 52.8228C58.6937 52.9784 59.674 53.4063 60.3586 54.1066C61.0589 54.8068 61.409 55.6937 61.409 56.7674ZM58.2813 49.3917C58.2813 48.5359 57.9857 47.9212 57.3944 47.5478C56.803 47.1743 55.9472 46.9876 54.8269 46.9876H51.1623V52.0526H54.8269C55.9939 52.0526 56.8575 51.8347 57.4177 51.399C57.9934 50.9633 58.2813 50.2942 58.2813 49.3917ZM59.2149 56.604C59.2149 54.7056 57.8845 53.7564 55.2236 53.7564H51.1623V59.545H55.387C56.7252 59.545 57.6978 59.3038 58.3046 58.8214C58.9115 58.3235 59.2149 57.5844 59.2149 56.604Z" fill="white"/>
<path d="M71.6327 46.7775C69.8588 46.7775 68.4739 47.3533 67.478 48.5047C66.4977 49.6407 66.0075 51.2045 66.0075 53.1963C66.0075 55.1569 66.521 56.7363 67.548 57.9345C68.575 59.1326 69.9677 59.7317 71.726 59.7317C73.9668 59.7317 75.6551 58.6191 76.791 56.394L78.5649 57.2809C77.9114 58.6658 76.9855 59.7239 75.7874 60.4553C74.5892 61.1711 73.1965 61.529 71.6093 61.529C69.991 61.529 68.5906 61.1944 67.408 60.5253C66.2409 59.8406 65.3462 58.8759 64.7238 57.631C64.1013 56.3862 63.7901 54.9079 63.7901 53.1963C63.7901 50.6288 64.4826 48.6214 65.8675 47.1743C67.2524 45.7272 69.1663 45.0036 71.6093 45.0036C73.321 45.0036 74.7448 45.3382 75.8807 46.0073C77.0322 46.6764 77.8803 47.6645 78.4249 48.9716L76.3709 49.6484C75.9974 48.7148 75.3983 48.0068 74.5736 47.5244C73.7489 47.0265 72.7686 46.7775 71.6327 46.7775Z" fill="white"/>
</svg>
