<svg width="110" height="110" viewBox="0 0 110 110" fill="none" xmlns="http://www.w3.org/2000/svg">
<path d="M107.259 40.1939C100.468 36.4411 87.1363 23 56.5774 23C31.2724 23 7.48036 33.4626 2 40.1939C10.6375 38.7047 32.3445 35.7263 50.0723 35.7263C87.7796 35.7263 114.05 43.9468 107.259 40.1939Z" fill="#808183"/>
<path d="M3.14488 56.2585C9.91472 53.4228 10.985 41 60.154 41C85.3806 41 102.614 51.1723 108.077 56.2585C99.4666 55.1332 77.8269 52.8827 60.154 52.8827C22.5636 52.8827 -3.62495 59.0941 3.14488 56.2585Z" fill="#808183"/>
<path d="M107.01 72.2989C100.24 69.6179 93.8265 59.532 53.7419 58C28.5153 58 7.54073 67.4901 2.07735 72.2989C10.6881 71.235 32.3278 69.1072 50.0007 69.1072C87.5911 69.1072 113.78 74.98 107.01 72.2989Z" fill="#808183"/>
<path d="M107.01 86.3924C100.24 84.0688 93.8265 75.3278 53.7419 74C28.5153 74 7.54072 82.2247 2.07735 86.3924C10.6881 85.4703 32.3278 83.6262 50.0007 83.6262C87.5911 83.6262 113.78 88.716 107.01 86.3924Z" fill="#808183"/>
</svg>
