<svg width="110" height="110" viewBox="0 0 110 110" fill="none" xmlns="http://www.w3.org/2000/svg">
<path d="M50.8929 19.7455L-3.05176e-05 29.4909L-2.93398e-05 10L50.8929 19.7455Z" fill="#808183"/>
<path d="M50.8929 67.39L-3.05176e-05 77.1354L-2.93398e-05 57.6445L50.8929 67.39Z" fill="#808183"/>
<path d="M50.8929 43.5677L-3.05176e-05 53.3132L-2.93398e-05 33.8223L50.8929 43.5677Z" fill="#808183"/>
<path d="M50.8929 91.2122L-3.05176e-05 100.958L-2.93398e-05 81.4667L50.8929 91.2122Z" fill="#808183"/>
<path d="M59.1069 19.7455L110 29.4909V10L59.1069 19.7455Z" fill="#808183"/>
<path d="M59.1069 67.39L110 77.1354V57.6445L59.1069 67.39Z" fill="#808183"/>
<path d="M59.1069 43.5677L110 53.3132V33.8223L59.1069 43.5677Z" fill="#808183"/>
<path d="M59.1069 91.2122L110 100.958V81.4667L59.1069 91.2122Z" fill="#808183"/>
</svg>
