<svg width="110" height="110" viewBox="0 0 110 110" fill="none" xmlns="http://www.w3.org/2000/svg">
<path fill-rule="evenodd" clip-rule="evenodd" d="M65.4371 81.0554C87.4187 72.6134 99.4262 57.4905 102 38.1163C81.5506 26.9136 61.8126 22.6459 41.5411 28.8696C18.7801 38.1162 11.5738 58.3959 9 77.7702C31.761 85.9499 46.6979 85.4164 65.4371 81.0554ZM12.9405 75.3774C33.3398 82.2576 47.0973 81.6482 64.39 77.6475C84.2148 69.9653 95.0864 56.7814 98.0978 40.0596C79.041 30.0736 61.04 26.6523 42.7351 32.2235C22.9368 40.3355 15.7634 57.4922 12.9405 75.3774Z" fill="#808183"/>
<path fill-rule="evenodd" clip-rule="evenodd" d="M53.277 28.5139C49.3057 32.3074 41.3631 42.8818 41.3631 54.8313C41.3631 66.7808 50.2541 77.7108 54.6996 81.6822C58.9673 78.2443 67.5738 68.0611 67.8583 54.8313C68.2139 38.294 54.3439 28.5139 53.277 28.5139ZM59.8608 49.0788C62.316 49.0788 64.3063 47.0088 64.3063 44.4554C64.3063 41.902 62.316 39.8321 59.8608 39.8321C57.4056 39.8321 55.4153 41.902 55.4153 44.4554C55.4153 47.0088 57.4056 49.0788 59.8608 49.0788Z" fill="#808183"/>
</svg>
