<svg width="110" height="110" viewBox="0 0 110 110" fill="none" xmlns="http://www.w3.org/2000/svg">
<path d="M47.6105 55.499V55.4038V49.405C40.8274 45.8502 25.9989 38.1204 20.9496 35.6393C14.6449 32.5413 8.0145 40.9531 8.00002 55.4514C8.0145 69.9497 14.6449 78.3614 20.9496 75.2635C25.9989 72.7824 40.8274 65.0525 47.6105 61.4977V55.499Z" fill="#808183"/>
<path d="M63.3895 55.499V55.4038V49.405C70.1726 45.8502 85.0011 38.1204 90.0504 35.6393C96.3551 32.5413 102.985 40.9531 103 55.4514C102.985 69.9497 96.3551 78.3614 90.0504 75.2635C85.0011 72.7824 70.1726 65.0525 63.3895 61.4977V55.499Z" fill="#808183"/>
<rect x="49.0251" y="46.8615" width="12.9496" height="17.7377" rx="6.4748" fill="#808183"/>
</svg>
