<svg width="110" height="110" viewBox="0 0 110 110" fill="none" xmlns="http://www.w3.org/2000/svg">
<mask id="mask0" mask-type="alpha" maskUnits="userSpaceOnUse" x="0" y="0" width="110" height="110">
<rect width="110" height="110" fill="white"/>
</mask>
<g mask="url(#mask0)">
<path d="M111.237 71.0962C111.264 71.2063 111.616 76.1086 111.767 78.2457C111.824 79.0255 110.916 79.5256 110.309 79.0285C110.303 79.0225 110.294 79.0166 110.288 79.0106C109.586 78.4124 108.282 70.8492 108.282 70.8492L111.237 71.0962Z" fill="#C49A6C"/>
<path d="M108.282 70.8492C108.282 70.8492 108.499 72.1112 108.803 73.6441C109.469 73.3256 110.362 73.013 111.383 72.9505C111.306 71.9058 111.246 71.1379 111.235 71.0962L108.282 70.8492Z" fill="url(#paint0_linear)"/>
<path d="M181 -38.4647H-72V110.359H181V-38.4647Z" fill="url(#paint1_linear)"/>
<g opacity="0.2">
<path opacity="0.2" d="M0.935443 -38.7623H-5.61279V66.6047H0.935443V-38.7623Z" fill="#BFE2DE"/>
<path opacity="0.2" d="M15.5202 -38.7623H8.97192V66.6047H15.5202V-38.7623Z" fill="#BFE2DE"/>
<path opacity="0.2" d="M30.1077 -38.7623H23.5594V66.6047H30.1077V-38.7623Z" fill="#BFE2DE"/>
<path opacity="0.2" d="M44.6956 -38.7623H38.1473V66.6047H44.6956V-38.7623Z" fill="#BFE2DE"/>
<path opacity="0.2" d="M59.2831 -38.7623H52.7349V66.6047H59.2831V-38.7623Z" fill="#BFE2DE"/>
<path opacity="0.2" d="M73.8709 -38.7623H67.3226V66.6047H73.8709V-38.7623Z" fill="#BFE2DE"/>
<path opacity="0.2" d="M88.4584 -38.7623H81.9102V66.6047H88.4584V-38.7623Z" fill="#BFE2DE"/>
<path opacity="0.2" d="M103.046 -38.7623H96.498V66.6047H103.046V-38.7623Z" fill="#BFE2DE"/>
</g>
<path d="M181 67.7447H-72V110.359H181V67.7447Z" fill="url(#paint2_linear)"/>
<path d="M-71.8632 69.733H180.863" stroke="#D1AB8F" stroke-miterlimit="10"/>
<path d="M-71.8632 71.6439H180.863" stroke="#D1AB8F" stroke-miterlimit="10"/>
<path d="M-71.8632 73.8763H180.863" stroke="#D1AB8F" stroke-miterlimit="10"/>
<path d="M-71.8632 76.7426H180.863" stroke="#D1AB8F" stroke-miterlimit="10"/>
<path d="M-71.8632 79.7667H180.863" stroke="#D1AB8F" stroke-miterlimit="10"/>
<path d="M-71.8632 83.1122H180.863" stroke="#D1AB8F" stroke-miterlimit="10"/>
<path d="M-71.8632 87.0917H180.863" stroke="#D1AB8F" stroke-miterlimit="10"/>
<path d="M-71.8632 91.0743H180.863" stroke="#D1AB8F" stroke-miterlimit="10"/>
<path d="M-71.8632 94.8961H180.863" stroke="#D1AB8F" stroke-miterlimit="10"/>
<path d="M-71.8632 98.3994H180.863" stroke="#D1AB8F" stroke-miterlimit="10"/>
<path d="M-71.8632 102.379H180.863" stroke="#D1AB8F" stroke-miterlimit="10"/>
<path d="M-71.8632 106.361H180.863" stroke="#D1AB8F" stroke-miterlimit="10"/>
<path d="M181 63.0865H-72V67.7418H181V63.0865Z" fill="#F4E9DE"/>
<path d="M1.06628 78.8648L6.68586 71.4266H106.418L111.603 78.6595L1.06628 78.8648Z" fill="url(#paint3_linear)"/>
<path d="M-24.5671 23.812C-23.2218 18.1776 -21.3406 12.4657 -17.4891 8.13792C-13.6375 3.81014 -7.39288 1.17894 -1.90427 3.0303C-0.930965 3.35771 0.17033 4.16136 -0.103506 5.14955C-0.198753 5.49184 -0.445802 5.76568 -0.686896 6.02463C-2.19597 7.65871 -3.70801 9.29279 -5.21708 10.9269C-6.2529 9.79284 -7.70244 9.04575 -9.22936 8.85823C-8.41381 10.4 -7.59528 11.9389 -6.77973 13.4807C-7.84233 14.579 -8.90791 15.6773 -9.97051 16.7727C-10.1759 16.984 -10.408 17.2102 -10.7027 17.237C-11.042 17.2697 -11.3397 17.0257 -11.5957 16.7995C-12.6136 15.8946 -13.6345 14.9898 -14.6525 14.0849C-14.7537 16.3202 -13.8548 18.5853 -12.2416 20.1391C-13.1791 21.163 -14.1138 22.1869 -15.0513 23.2108C-16.3848 22.1154 -17.7212 21.0231 -19.0547 19.9277C-18.888 21.7523 -18.1737 23.5233 -17.0307 24.952C-18.3999 26.2111 -20.528 26.1902 -22.1145 27.1605C-23.7903 28.1845 -24.6207 30.1489 -25.1981 32.0241C-27.0882 38.1527 -26.7072 43.9568 -26.7489 50.2193C-29.1687 42.1679 -26.4512 31.7235 -24.5671 23.812Z" fill="#006838"/>
<path d="M-28.7847 38.5545C-28.8948 31.4943 -27.8679 24.3031 -24.8022 17.9424C-24.823 19.3026 -24.8468 20.6599 -24.8677 22.0202C-21.5519 16.1446 -16.9175 11.0161 -11.4051 7.1259C-12.307 8.45638 -13.0005 9.92676 -13.4499 11.4686C-9.05963 7.06637 -2.45187 4.99773 3.66478 6.1139C2.77779 6.7211 1.8908 7.3283 1.00382 7.9355C3.93862 7.85811 6.89128 8.65581 9.38854 10.2006C8.27831 10.4953 7.16809 10.7899 6.05786 11.0846C6.87937 11.7484 7.70088 12.4151 8.52536 13.0788C3.07544 14.5581 -2.25542 16.4631 -7.40769 18.7758C-6.00875 18.627 -4.58897 18.6478 -3.19598 18.8413C-2.95787 18.874 -2.70189 18.9217 -2.53819 19.0943C-2.0173 19.642 -2.91917 20.392 -3.64245 20.6153C-10.0448 22.5887 -16.0901 25.714 -21.4031 29.7917C-19.8702 29.2589 -18.2659 28.9256 -16.6467 28.8006C-23.5104 35.8816 -26.9452 46.1445 -25.7249 55.9311C-25.3766 58.7111 -24.4123 61.9436 -25.2725 64.6998C-27.8412 62.8931 -26.7786 56.7377 -27.2221 53.9607C-28.0376 48.8679 -28.7043 43.7276 -28.7847 38.5545Z" fill="#009444"/>
<path d="M-22.1619 32.1937C-21.2809 32.2324 -20.8493 31.1847 -20.3344 30.4674C-19.9236 29.8929 -19.3462 29.4732 -18.7479 29.0923C-19.6468 29.2649 -20.5338 29.5 -21.4 29.7977C-16.087 25.7199 -10.0418 22.5946 -3.63937 20.6212C-2.91608 20.398 -2.01421 19.6479 -2.53509 19.1002C-2.70178 18.9276 -2.95478 18.88 -3.1929 18.8472C-4.58886 18.6538 -6.00566 18.6329 -7.4046 18.7818C-2.25233 16.469 3.07852 14.5641 8.52844 13.0848C8.47487 13.0431 8.42129 12.9985 8.37069 12.9568C4.78107 13.1056 1.20335 13.7872 -2.33865 14.4629C-0.969474 13.5015 0.396729 12.5401 1.76591 11.5787C-0.150942 11.4477 -2.09458 11.7662 -3.86558 12.5074C-3.20182 11.3465 -2.26424 10.3405 -1.15104 9.60233C-2.35651 9.64697 -3.51138 10.0786 -4.6216 10.5488C-8.91665 12.3675 -12.9289 14.8469 -16.4769 17.871C-15.8012 16.5792 -15.1256 15.2904 -14.4499 13.9986C-16.0989 14.7427 -17.6318 15.7547 -18.9652 16.978C-18.8164 14.5522 -16.0632 12.93 -15.6911 10.5697C-19.3313 13.8646 -22.4477 17.743 -24.8616 22.0231C-24.8408 20.6629 -24.817 19.3056 -24.7961 17.9454C-25.6087 19.633 -26.2754 21.3772 -26.8171 23.1631C-26.2754 26.2765 -25.4301 29.3869 -23.2305 31.5865C-22.9388 31.8842 -22.5846 32.1759 -22.1619 32.1937Z" fill="url(#paint4_linear)"/>
<path d="M94.4472 -21.8917H73.5881V7.48012H94.4472V-21.8917Z" fill="white"/>
<path d="M96.3699 -24.5973H71.6682V10.1827H96.3699V-24.5973Z" stroke="#231F20" stroke-miterlimit="10"/>
<path d="M60.8279 -5.47937H40.7129V14.6356H60.8279V-5.47937Z" fill="white"/>
<path d="M60.8279 14.6356V4.23285C60.5927 4.22392 60.3606 4.22095 60.1314 4.22095C58.661 4.2269 57.1698 4.35191 55.7917 4.86982C52.333 6.17053 50.1364 9.71551 46.7432 11.1799C44.9186 11.9657 42.847 12.0907 40.8974 11.7127C40.8349 11.7008 40.7754 11.683 40.7129 11.6711V14.6326H60.8279V14.6356Z" fill="#E6E7E8"/>
<path d="M62.4353 -7.08969H39.1028V16.2429H62.4353V-7.08969Z" stroke="#231F20" stroke-miterlimit="10"/>
<path d="M60.8279 14.6356V7.61115C59.1968 7.92071 57.5448 8.05167 55.8929 7.9088C50.7942 7.45935 46.2015 4.4293 41.1088 3.92033C40.9778 3.90842 40.8468 3.89949 40.7129 3.89056V14.6386H60.8279V14.6356Z" fill="#E6E7E8"/>
<path d="M56.5658 0.768242C57.9302 0.768242 59.0363 -0.337824 59.0363 -1.70223C59.0363 -3.06663 57.9302 -4.1727 56.5658 -4.1727C55.2014 -4.1727 54.0953 -3.06663 54.0953 -1.70223C54.0953 -0.337824 55.2014 0.768242 56.5658 0.768242Z" fill="#E6E7E8"/>
<path d="M1.80736 71.0962C1.78057 71.2063 1.42934 76.1086 1.27754 78.2457C1.22099 79.0255 2.12881 79.5256 2.73601 79.0285C2.74197 79.0225 2.7509 79.0166 2.75685 79.0106C3.4593 78.4124 4.76299 70.8492 4.76299 70.8492L1.80736 71.0962Z" fill="#C49A6C"/>
<path d="M1.80752 71.0962C1.79859 71.1349 1.74502 71.8106 1.67358 72.7511C2.36115 72.6976 3.32254 72.7154 4.36133 73.016C4.59945 71.7808 4.76019 70.8521 4.76019 70.8521L1.80752 71.0962Z" fill="url(#paint5_linear)"/>
<path d="M111.237 71.0962C111.264 71.2063 111.616 76.1086 111.767 78.2457C111.824 79.0255 110.916 79.5256 110.309 79.0285C110.303 79.0225 110.294 79.0166 110.288 79.0106C109.586 78.4124 108.282 70.8492 108.282 70.8492L111.237 71.0962Z" fill="#C49A6C"/>
<path d="M108.282 70.8492C108.282 70.8492 108.499 72.1112 108.803 73.6441C109.469 73.3256 110.362 73.013 111.383 72.9505C111.306 71.9058 111.246 71.1379 111.235 71.0962L108.282 70.8492Z" fill="url(#paint6_linear)"/>
<path d="M7.08494 65.0807C7.05816 65.1909 6.70693 70.0931 6.55513 72.2302C6.49858 73.01 7.4064 73.5101 8.0136 73.013C8.01955 73.0071 8.02849 73.0011 8.03444 72.9952C8.73689 72.3969 10.0406 64.8337 10.0406 64.8337L7.08494 65.0807Z" fill="#C49A6C"/>
<path d="M105.96 65.0807C105.987 65.1909 106.338 70.0931 106.49 72.2302C106.547 73.01 105.639 73.5101 105.031 73.013C105.026 73.0071 105.017 73.0011 105.011 72.9952C104.308 72.3969 103.005 64.8337 103.005 64.8337L105.96 65.0807Z" fill="#C49A6C"/>
<path d="M121.274 43.9865L111.827 41.2184C111.827 41.2184 112.407 35.9471 111.092 30.4912C109.776 25.0353 105.63 26.2259 99.2572 27.1189C92.8846 28.0118 63.858 28.6071 59.7118 28.6071C57.3276 28.6071 56.5508 30.0477 56.3186 31.274C56.0864 30.0477 55.3066 28.6071 52.9254 28.6071C48.7792 28.6071 19.7497 28.0118 13.3801 27.1189C7.00743 26.2259 2.86121 25.0353 1.54561 30.4912C0.230008 35.9471 0.810419 41.2184 0.810419 41.2184L-8.63689 43.9865C-8.63689 43.9865 -10.4258 44.7277 -10.2025 51.0348C-9.97929 57.3419 -8.58034 71.5159 -2.26427 69.736C-2.26427 69.736 -2.54406 71.4921 1.17355 71.4921H56.274H56.3633H111.464C115.181 71.4921 114.902 69.736 114.902 69.736C121.218 71.5189 122.617 57.3419 122.84 51.0348C123.063 44.7277 121.274 43.9865 121.274 43.9865Z" fill="#2B3990"/>
<path d="M9.18026 47.8619C11.4483 46.8648 13.9367 46.5046 16.4012 46.2933C27.1314 45.3676 38.0342 47.0433 48.6572 45.2545C51.2021 44.8259 53.8928 44.0966 55.5775 42.1113C57.6283 44.4717 60.9976 45.0491 64.0932 45.2098C67.025 45.3616 69.9717 45.2694 72.8886 44.939C79.9518 44.1353 86.8334 43.7424 93.9353 43.9657C97.3433 44.0728 100.838 44.3199 103.939 45.7575C103.823 46.4986 103.707 47.2428 103.591 47.9839C103.555 48.2161 103.508 48.4691 103.338 48.6298C103.177 48.7846 102.942 48.8173 102.722 48.8441C101.51 48.9929 100.293 49.112 99.0786 49.2132C87.3692 50.1716 75.5407 49.2668 63.8908 50.7967C63.6288 50.8324 63.361 50.8681 63.1288 50.9931C62.855 51.139 62.6496 51.389 62.465 51.642C61.3399 53.2076 60.7893 55.184 60.9351 57.1157C61.1048 59.3302 63.6527 60.3958 65.766 60.9673C67.8792 61.5388 70.2068 61.8424 71.8112 63.3514C70.7158 63.6848 69.555 63.7175 68.4091 63.7443C59.8517 63.9378 51.2884 63.8723 42.737 63.5449C41.9036 63.5122 41.0612 63.4764 40.2516 63.2711C39.0134 62.9556 37.9092 62.262 36.8257 61.5774C32.5843 58.9046 28.2862 56.2525 23.6132 54.4726C21.2082 53.5559 19.1633 51.6033 16.7167 50.7996C14.273 49.996 11.743 49.3739 9.47494 48.1506C9.27552 48.0434 9.05228 47.8797 9.07609 47.6535C9.22194 47.5999 9.04335 47.9214 9.18026 47.8619Z" fill="url(#paint7_linear)"/>
<path d="M-9.20251 44.5551C-9.20251 44.5551 -8.64591 43.3585 -7.26483 44.8349C-5.88375 46.3112 -2.77631 53.5619 -2.55605 56.8866C-2.3358 60.2143 -2.11553 63.4765 -1.89825 63.792C-1.67799 64.1045 -1.64823 64.1998 -1.14521 63.8247C-0.642182 63.4467 33.9444 63.6045 41.1653 63.5122C48.3833 63.417 47.41 47.4422 47.41 47.4422L9.7338 46.969C9.7338 46.969 4.47139 41.1976 1.42646 41.2601C1.42646 41.2601 0.735924 41.2929 0.640677 41.3226C0.54543 41.3554 -7.80357 43.7723 -7.80357 43.7723C-7.80357 43.7723 -8.85724 43.927 -9.20251 44.5551Z" fill="#1F2D75"/>
<path d="M-1.89814 63.7919C-1.67789 64.1045 -1.64812 64.1997 -1.1451 63.8247C-0.642074 63.4467 33.9445 63.6044 41.1654 63.5121C46.8951 63.4377 47.4636 53.3564 47.4547 49.2013L12.758 48.8947C12.758 48.8947 12.1865 48.0583 11.368 46.9868L9.73687 46.9659C9.73687 46.9659 8.06708 45.1324 6.06094 43.543C4.90012 45.692 1.84328 50.5109 -3.39233 53.151C-2.93991 54.5708 -2.62143 55.9013 -2.55595 56.8865C-2.33866 60.2112 -2.1184 63.4764 -1.89814 63.7919Z" fill="url(#paint8_linear)"/>
<path d="M121.789 44.5551C121.789 44.5551 121.233 43.3585 119.852 44.8349C118.47 46.3112 115.363 53.5619 115.143 56.8866C114.922 60.2143 114.702 63.4765 114.485 63.792C114.265 64.1045 114.235 64.1998 113.732 63.8247C113.229 63.4467 78.6423 63.6045 71.4214 63.5122C64.2034 63.417 65.1767 47.4422 65.1767 47.4422L102.853 46.969C102.853 46.969 108.115 41.1976 111.16 41.2601C111.16 41.2601 111.851 41.2929 111.946 41.3226C112.041 41.3554 120.39 43.7723 120.39 43.7723C120.39 43.7723 121.444 43.927 121.789 44.5551Z" fill="#1F2D75"/>
<path d="M114.449 63.7919C114.229 64.1045 114.199 64.1997 113.696 63.8247C113.193 63.4467 78.6064 63.6044 71.3855 63.5121C65.6557 63.4377 65.0872 53.3564 65.0962 49.2013L99.7929 48.8947C99.7929 48.8947 100.364 48.0583 101.183 46.9868L102.814 46.9659C102.814 46.9659 104.484 45.1324 106.49 43.543C107.651 45.692 110.708 50.5109 115.943 53.151C115.491 54.5708 115.172 55.9013 115.107 56.8865C114.887 60.2112 114.669 63.4764 114.449 63.7919Z" fill="url(#paint9_linear)"/>
<path d="M-2.16619 56.077C-2.28524 58.6843 -1.59172 62.9347 -1.59172 62.9347C-1.59172 62.9347 -1.01727 63.6878 0.31024 63.0687C1.63775 62.4496 18.7138 63.5122 33.0455 63.4229C47.3772 63.3336 55.6071 63.7324 55.872 63.3336C56.1369 62.9347 56.3155 51.6122 55.5178 48.2488C54.7201 44.8884 10.2189 47.0553 9.73375 46.966C9.24858 46.8767 -0.130277 53.2463 -0.395182 53.4249C-0.395182 53.4219 -2.07689 54.1303 -2.16619 56.077Z" fill="#324293"/>
<path d="M-1.58867 62.9318C-1.58867 62.9318 -1.01422 63.6848 0.31329 63.0657C1.6408 62.4466 18.7168 63.5092 33.0485 63.4199C47.3802 63.3306 55.6102 63.7295 55.8751 63.3306C56.0358 63.0895 56.1638 58.8242 56.0626 54.7554C55.631 54.5977 54.3124 54.4161 50.3001 54.6751C44.1686 55.0739 17.2554 55.5501 11.8412 55.3924C7.04606 55.2525 1.75092 53.675 -1.55296 54.3685C-1.86549 54.7792 -2.12742 55.3388 -2.16016 56.077C-2.28219 58.6844 -1.58867 62.9318 -1.58867 62.9318Z" fill="#253377"/>
<path d="M115.116 56.077C115.235 58.6843 114.541 62.9347 114.541 62.9347C114.541 62.9347 113.967 63.6878 112.639 63.0687C111.312 62.4496 94.2359 63.5122 79.9042 63.4229C65.5725 63.3336 57.3426 63.7324 57.0777 63.3336C56.8128 62.9347 56.6342 51.6122 57.4319 48.2488C58.2296 44.8884 102.731 47.0553 103.216 46.966C103.701 46.8767 113.08 53.2463 113.345 53.4249C113.348 53.4219 115.03 54.1303 115.116 56.077Z" fill="#324293"/>
<path d="M57.0776 63.3306C57.3425 63.7294 65.5694 63.3306 79.9041 63.4199C94.2358 63.5092 111.312 62.4466 112.639 63.0657C113.967 63.6848 114.541 62.9317 114.541 62.9317C114.541 62.9317 115.235 58.6813 115.116 56.0739C115.026 54.1273 113.348 53.4189 113.348 53.4189C113.333 53.41 113.288 53.3802 113.226 53.3356C107.558 53.5678 85.1606 54.4637 79.7047 54.3238C74.2518 54.1839 61.316 54.2881 56.899 54.4756C56.7829 58.6307 56.9138 63.0835 57.0776 63.3306Z" fill="#253377"/>
<path d="M1.67957 37.3311L2.5606 41.4774C2.5606 41.4774 6.23952 45.4152 4.37327 50.4425C4.37327 50.4425 4.787 53.1898 7.84384 51.892C10.9007 50.5973 19.711 51.1152 21.3689 50.9604C23.0268 50.8056 23.7888 50.8146 23.2798 50.2639C22.7708 49.7162 1.67957 37.3311 1.67957 37.3311Z" fill="url(#paint10_linear)"/>
<path d="M-0.0883892 35.0482C-0.0883892 35.0482 2.25409 39.2807 3.87329 40.3612C3.87329 40.3612 5.87348 45.6414 5.94491 45.7635C5.94491 45.7635 5.49547 48.8263 5.94491 51.8861C5.94491 51.8861 6.03421 52.5171 8.01653 51.7045C9.99886 50.8949 12.2491 50.4425 13.6004 50.624C14.9517 50.8056 18.6425 50.7133 19.4551 50.8056C20.2647 50.8949 23.4168 50.7163 22.9674 50.1746C22.5179 49.6329 20.2647 44.68 19.9968 43.6918C19.726 42.7007 17.8359 37.0275 17.3865 35.8578C16.937 34.688 16.8448 33.1551 15.044 33.8754C13.2432 34.5958 8.65052 35.4054 6.12945 35.2268C3.60541 35.0482 -1.07658 33.6969 -0.0883892 35.0482Z" fill="#F29232"/>
<path d="M-0.0884513 35.0482C-0.0884513 35.0482 2.25403 39.2807 3.87323 40.3612C3.87323 40.3612 5.87342 45.6414 5.94485 45.7635C5.94485 45.7635 5.4954 48.8263 5.94485 51.8861C5.94485 51.8861 6.03414 52.5171 8.01647 51.7045C9.9988 50.8949 12.249 50.4425 13.6003 50.624C14.9517 50.8056 18.6425 50.7133 19.4551 50.8056C20.1605 50.883 22.6369 50.758 22.9732 50.3681C21.0266 50.0853 18.958 50.5199 16.9608 50.4097C16.8239 50.4008 16.675 50.3889 16.5679 50.3026C16.1988 50.0139 16.6512 49.3471 16.3744 48.9691C16.2196 49.746 15.5142 50.377 14.7254 50.4455C14.1867 50.4931 13.6599 50.3026 13.133 50.1865C11.7936 49.8948 10.353 50.0942 9.14456 50.7372C8.81714 50.9098 8.45997 51.1241 8.10279 51.0229C7.83491 50.9485 7.64441 50.7104 7.49559 50.4722C7.064 49.7847 6.811 49.0346 6.73659 48.225C6.66516 47.4571 6.84672 46.6386 7.3676 46.0701C7.8736 45.5135 8.62665 45.2634 9.341 45.0313C8.70404 44.7991 7.98374 45.0283 7.32594 44.8646C6.57587 44.6771 6.03415 43.9895 5.79901 43.2513C5.56387 42.5132 5.58768 41.7244 5.61149 40.9505C5.61744 40.7809 5.62339 40.6023 5.71864 40.4594C5.81091 40.3195 5.96568 40.2391 6.12046 40.1766C6.94197 39.8433 7.87658 39.8314 8.65939 39.4147C8.79928 39.3402 8.95108 39.1825 8.86477 39.0486C7.7724 39.3135 6.65326 39.5367 5.53113 39.4563C4.65604 39.3968 3.78096 39.1468 3.05172 38.6557C2.32249 38.1675 1.74505 37.4294 1.52777 36.5781C1.45336 36.2804 1.42062 35.9709 1.31346 35.6851C1.22417 35.444 1.08725 35.2238 0.950334 35.0035C0.831275 34.813 0.709243 34.6196 0.572325 34.441C-0.100357 34.441 -0.424792 34.5868 -0.0884513 35.0482Z" fill="#D1782F"/>
<path d="M111.874 40.8017C111.874 40.8017 112.014 42.5876 110.088 43.668C110.088 43.668 108.023 48.0851 106.847 48.9304C106.847 48.9304 104.781 53.4874 104.263 53.9101C103.746 54.3327 103.135 54.8953 100.882 53.6749C98.626 52.4546 93.3666 51.0437 91.676 50.6211C89.9854 50.1984 85.6159 50.1508 89.0448 48.8352C92.4737 47.5196 110.136 40.004 111.874 40.8017Z" fill="url(#paint11_linear)"/>
<path d="M113.449 38.9235C113.449 38.9235 110.279 42.5757 108.469 43.296C108.469 43.296 105.416 48.0434 105.32 48.1506C105.32 48.1506 105.124 51.2402 104.046 54.1392C104.046 54.1392 103.826 54.7375 102.058 53.532C100.29 52.3266 98.1798 51.4188 96.8225 51.3146C95.4652 51.2104 91.8696 50.3532 91.06 50.2728C90.2475 50.1924 87.2025 49.362 87.7561 48.9274C88.3098 48.4929 91.5393 44.1145 92.0095 43.2037C92.4798 42.2899 95.5099 37.1347 96.1915 36.084C96.8761 35.0333 97.2809 33.554 98.8941 34.6315C100.507 35.7119 104.829 37.4591 107.332 37.8044C109.839 38.1556 114.699 37.8074 113.449 38.9235Z" fill="#F29232"/>
<path d="M91.06 50.2787C91.8726 50.3591 95.4652 51.2133 96.8224 51.3205C98.1797 51.4247 100.29 52.3325 102.058 53.538C103.826 54.7434 104.046 54.1452 104.046 54.1452C105.124 51.2431 105.32 48.1565 105.32 48.1565C105.415 48.0494 108.469 43.3019 108.469 43.3019C110.279 42.5816 113.449 38.9294 113.449 38.9294C114.05 38.3937 113.238 38.1943 111.955 38.096C111.681 38.6348 111.541 39.236 111.217 39.7599C110.797 40.4355 110.243 41.0308 109.589 41.4892C108.282 42.406 106.597 42.7631 105.032 42.4536C105.627 42.7393 106.222 43.0251 106.817 43.3108C106.913 43.3555 107.011 43.409 107.056 43.5013C107.121 43.6472 107.023 43.8109 106.928 43.9389C106.252 44.8467 105.573 45.7575 104.898 46.6653C104.793 46.8022 104.686 46.9451 104.534 47.0255C104.356 47.1207 104.142 47.1118 103.942 47.0909C103.344 47.0284 102.758 46.8588 102.219 46.5879C101.802 46.3796 101.24 46.1355 100.933 46.4837C101.656 46.8558 102.379 47.2308 103.103 47.6029C103.296 47.7041 103.499 47.8083 103.63 47.9839C103.787 48.1922 103.82 48.469 103.838 48.731C103.93 49.9632 103.844 51.2104 103.582 52.4188C103.496 52.8206 103.344 53.2731 102.96 53.4249C102.472 53.6154 101.981 53.2046 101.582 52.8653C99.5846 51.1717 96.8433 50.7193 94.2418 50.4305C92.0244 50.1865 89.7206 49.987 87.7025 49.0881C87.8543 49.5406 90.3397 50.2073 91.06 50.2787Z" fill="#D1782F"/>
<path opacity="0.7" d="M56.4437 94.5776C98.4443 94.5776 132.493 91.7445 132.493 88.2496C132.493 84.7548 98.4443 81.9217 56.4437 81.9217C14.4431 81.9217 -19.6051 84.7548 -19.6051 88.2496C-19.6051 91.7445 14.4431 94.5776 56.4437 94.5776Z" fill="url(#paint12_radial)"/>
<path d="M56.4347 93.0953C98.4353 93.0953 132.484 90.4301 132.484 87.1424C132.484 83.8546 98.4353 81.1894 56.4347 81.1894C14.4341 81.1894 -19.6141 83.8546 -19.6141 87.1424C-19.6141 90.4301 14.4341 93.0953 56.4347 93.0953Z" fill="white"/>
<path d="M56.3157 92.0506C94.5831 92.0506 125.605 89.8531 125.605 87.1424C125.605 84.4317 94.5831 82.2342 56.3157 82.2342C18.0483 82.2342 -12.9735 84.4317 -12.9735 87.1424C-12.9735 89.8531 18.0483 92.0506 56.3157 92.0506Z" stroke="#383838" stroke-miterlimit="10"/>
<path d="M55.5269 90.997C88.1115 90.997 114.527 89.2712 114.527 87.1424C114.527 85.0136 88.1115 83.2879 55.5269 83.2879C22.9424 83.2879 -3.47266 85.0136 -3.47266 87.1424C-3.47266 89.2712 22.9424 90.997 55.5269 90.997Z" stroke="#383838" stroke-miterlimit="10"/>
<path d="M55.5269 88.8568C70.0257 88.8568 81.7794 88.0893 81.7794 87.1424C81.7794 86.1955 70.0257 85.4279 55.5269 85.4279C41.0281 85.4279 29.2744 86.1955 29.2744 87.1424C29.2744 88.0893 41.0281 88.8568 55.5269 88.8568Z" stroke="#383838" stroke-miterlimit="10"/>
</g>
<defs>
<linearGradient id="paint0_linear" x1="109.647" y1="70.4212" x2="110.241" y2="73.5398" gradientUnits="userSpaceOnUse">
<stop stop-color="#C49A6C"/>
<stop offset="0.9981" stop-color="#C49A6C" stop-opacity="0"/>
</linearGradient>
<linearGradient id="paint1_linear" x1="170.244" y1="10.9047" x2="-55.3719" y2="59.7189" gradientUnits="userSpaceOnUse">
<stop stop-color="#BFE2DE"/>
<stop offset="1" stop-color="#A1CBC8"/>
</linearGradient>
<linearGradient id="paint2_linear" x1="54.5" y1="26.1247" x2="54.5" y2="118.568" gradientUnits="userSpaceOnUse">
<stop stop-color="#E9CFB9"/>
<stop offset="1" stop-color="#D8B79E"/>
</linearGradient>
<linearGradient id="paint3_linear" x1="56.335" y1="81.0902" x2="56.335" y2="70.1737" gradientUnits="userSpaceOnUse">
<stop stop-color="white" stop-opacity="0"/>
<stop offset="1"/>
</linearGradient>
<linearGradient id="paint4_linear" x1="7.5396" y1="1.81909" x2="-28.559" y2="33.3507" gradientUnits="userSpaceOnUse">
<stop stop-color="white" stop-opacity="0"/>
<stop offset="1"/>
</linearGradient>
<linearGradient id="paint5_linear" x1="3.31407" y1="70.7699" x2="2.9707" y2="73.1391" gradientUnits="userSpaceOnUse">
<stop stop-color="#C49A6C"/>
<stop offset="0.9981" stop-color="#C49A6C" stop-opacity="0"/>
</linearGradient>
<linearGradient id="paint6_linear" x1="109.647" y1="70.4212" x2="110.241" y2="73.5398" gradientUnits="userSpaceOnUse">
<stop stop-color="#C49A6C"/>
<stop offset="0.9981" stop-color="#C49A6C" stop-opacity="0"/>
</linearGradient>
<linearGradient id="paint7_linear" x1="56.5144" y1="38.8739" x2="56.5144" y2="59.5852" gradientUnits="userSpaceOnUse">
<stop stop-color="white" stop-opacity="0"/>
<stop offset="0.5046" stop-color="#908E8E" stop-opacity="0.5046"/>
<stop offset="1"/>
</linearGradient>
<linearGradient id="paint8_linear" x1="14.3682" y1="27.2119" x2="24.4882" y2="62.4831" gradientUnits="userSpaceOnUse">
<stop stop-color="white" stop-opacity="0"/>
<stop offset="1"/>
</linearGradient>
<linearGradient id="paint9_linear" x1="98.1813" y1="27.2119" x2="88.0614" y2="62.4831" gradientUnits="userSpaceOnUse">
<stop stop-color="white" stop-opacity="0"/>
<stop offset="1"/>
</linearGradient>
<linearGradient id="paint10_linear" x1="13.7569" y1="40.8966" x2="8.57497" y2="54.1106" gradientUnits="userSpaceOnUse">
<stop stop-color="white" stop-opacity="0"/>
<stop offset="1"/>
</linearGradient>
<linearGradient id="paint11_linear" x1="98.6996" y1="41.2328" x2="102.927" y2="56.3587" gradientUnits="userSpaceOnUse">
<stop stop-color="white" stop-opacity="0"/>
<stop offset="1"/>
</linearGradient>
<radialGradient id="paint12_radial" cx="0" cy="0" r="1" gradientUnits="userSpaceOnUse" gradientTransform="translate(56.4436 88.2555) scale(75.7308 6.22085)">
<stop stop-color="#231F20"/>
<stop offset="1" stop-color="white"/>
</radialGradient>
</defs>
</svg>
