<svg width="110" height="110" viewBox="0 0 110 110" fill="none" xmlns="http://www.w3.org/2000/svg">
<ellipse cx="55.5" cy="82.6623" rx="43.6425" ry="6.22054" fill="#808183"/>
<path fill-rule="evenodd" clip-rule="evenodd" d="M55.5 21C35.9004 21 25.4341 23.4685 25.8784 28.8004C26.0062 30.3346 26.5827 33.091 27.3192 36.6132C29.1424 45.3319 31.9469 58.743 31.3584 69.9251C31.2861 71.2996 31.1921 72.7138 31.0848 74.12C38.4199 73.3946 46.7155 72.9859 55.5001 72.9859C64.3045 72.9859 72.6177 73.3965 79.965 74.125C79.8576 72.7171 79.7635 71.3012 79.6911 69.9251C79.1025 58.743 81.907 45.3319 83.7303 36.6132C84.4668 33.091 85.0432 30.3346 85.1711 28.8004C85.6154 23.4685 75.0997 21 55.5 21Z" fill="#808183"/>
</svg>
