<svg width="110" height="110" viewBox="0 0 110 110" fill="none" xmlns="http://www.w3.org/2000/svg">
<path fill-rule="evenodd" clip-rule="evenodd" d="M52.746 110H0V61.4941C0.660316 61.8956 1.2572 62.3188 1.78299 62.757C7.93952 67.8874 25.383 72.5048 42.8265 64.2961C45.306 63.1293 47.6404 61.9417 49.8591 60.813C63.2492 54.0011 72.4269 49.3322 83.8699 64.2961C95.6699 84.3048 78.7396 99.6961 67.9657 102.774C62.8992 104.222 57.7193 106.577 52.746 110Z" fill="#808183"/>
<path fill-rule="evenodd" clip-rule="evenodd" d="M106.213 0C102.452 3.27237 98.8867 7.23519 95.67 11.9657C86.9483 24.7917 76.1744 33.5135 63.3483 38.1309C50.5222 42.7483 36.6699 36.0787 22.8178 15.557C19.706 10.9469 17.4227 5.61202 15.9039 0L106.213 0Z" fill="#808183"/>
</svg>
