<svg width="126" height="126" viewBox="0 0 126 126" fill="none" xmlns="http://www.w3.org/2000/svg">
<path fill-rule="evenodd" clip-rule="evenodd" d="M108.743 91.7371C108.745 91.7372 108.731 91.7493 108.697 91.7732C108.725 91.749 108.742 91.737 108.743 91.7371ZM102.235 93.7043C100.766 93.416 99.0901 93.1376 97.2184 92.8761C88.6854 91.6836 76.7621 90.931 63.5 90.931C50.2379 90.931 38.3146 91.6836 29.7816 92.8761C27.9099 93.1376 26.234 93.416 24.7647 93.7043C26.234 93.9927 27.9099 94.2711 29.7816 94.5326C38.3146 95.7251 50.2379 96.4777 63.5 96.4777C76.7621 96.4777 88.6854 95.7251 97.2184 94.5326C99.0901 94.2711 100.766 93.9927 102.235 93.7043ZM18.2566 91.7371C18.258 91.737 18.2751 91.749 18.3034 91.7733C18.2693 91.7493 18.2551 91.7372 18.2566 91.7371ZM18.2566 95.6716C18.2551 95.6715 18.2693 95.6594 18.3034 95.6354C18.2751 95.6597 18.258 95.6717 18.2566 95.6716ZM108.697 95.6354C108.731 95.6594 108.745 95.6715 108.743 95.6716C108.742 95.6717 108.725 95.6597 108.697 95.6354ZM63.5 100.482C90.2858 100.482 112 97.4475 112 93.7043C112 89.9612 90.2858 86.9268 63.5 86.9268C36.7142 86.9268 15 89.9612 15 93.7043C15 97.4475 36.7142 100.482 63.5 100.482Z" fill="#808183"/>
<path fill-rule="evenodd" clip-rule="evenodd" d="M33.7302 32.8029C32.7791 33.5499 32.5611 34.2023 32.6164 34.8528C32.7451 36.3673 33.3467 39.2084 34.1814 43.1218L34.2046 43.2305C36.2193 52.6759 39.3786 67.4877 38.7106 79.9317C38.6707 80.6747 38.625 81.4275 38.5746 82.1839C46.1862 81.5251 54.6238 81.1593 63.4999 81.1593C72.3974 81.1593 80.8544 81.5268 88.4804 82.1886C88.4299 81.4307 88.3841 80.6763 88.3441 79.9317C87.6761 67.4877 90.8354 52.6758 92.8501 43.2304L92.8733 43.1218C93.708 39.2084 94.3096 36.3673 94.4383 34.8528C94.4932 34.2063 94.276 33.5541 93.3188 32.8052C92.2822 31.9942 90.5112 31.2016 87.8341 30.5309C82.5081 29.1966 74.3508 28.5223 63.4999 28.5223C52.6487 28.5223 44.5058 29.1967 39.1943 30.5306C36.5245 31.2011 34.7613 31.9932 33.7302 32.8029ZM38.1808 26.6516C44.0067 25.1885 52.57 24.5181 63.4999 24.5181C74.4301 24.5181 83.0064 25.1885 88.8453 26.6513C91.7506 27.3792 94.1699 28.3482 95.8663 29.6754C97.642 31.0647 98.7003 32.9272 98.5084 35.1854C98.3558 36.981 97.6979 40.0652 96.9145 43.7376L96.871 43.9414C94.8322 53.5001 91.7852 67.8463 92.4227 79.7212C92.5022 81.2021 92.6057 82.7289 92.724 84.2502L92.9092 86.6304L90.4863 86.3948C82.394 85.6082 73.223 85.1636 63.4999 85.1636C53.7987 85.1636 44.6472 85.6062 36.5682 86.3895L34.146 86.6244L34.3311 84.2449C34.4492 82.7254 34.5526 81.2004 34.632 79.7212C35.2695 67.8462 32.2224 53.5001 30.1836 43.9414L30.1402 43.7375C29.3568 40.0652 28.6989 36.981 28.5463 35.1854C28.3547 32.9312 29.4054 31.0689 31.1769 29.6777C32.8685 28.3492 35.2818 27.3797 38.1808 26.6516Z" fill="#808183"/>
</svg>
