<svg width="126" height="126" viewBox="0 0 126 126" fill="none" xmlns="http://www.w3.org/2000/svg">
<path fill-rule="evenodd" clip-rule="evenodd" d="M74.1641 90.6667C97.9868 81.5176 111 65.128 113.789 44.1311C91.6273 31.9901 70.236 27.365 48.2667 34.11C23.5993 44.1311 15.7894 66.1094 13 87.1063C37.6674 95.9711 53.8553 95.393 74.1641 90.6667ZM17.2706 84.5131C39.3784 91.9695 54.2882 91.3091 73.0294 86.9733C94.5146 78.6477 106.297 64.3596 109.56 46.2372C88.9075 35.4148 69.3987 31.7069 49.5607 37.7447C28.1041 46.5362 20.3299 65.1299 17.2706 84.5131Z" fill="#808183"/>
<path fill-rule="evenodd" clip-rule="evenodd" d="M60.9856 33.7245C56.6816 37.8358 48.0737 49.2958 48.0737 62.2462C48.0737 75.1966 57.7094 87.042 62.5273 91.346C67.1524 87.6202 76.4798 76.5841 76.7881 62.2462C77.1735 44.3238 62.1418 33.7245 60.9856 33.7245ZM68.1208 56.0118C70.7816 56.0118 72.9386 53.7685 72.9386 51.0012C72.9386 48.234 70.7816 45.9907 68.1208 45.9907C65.46 45.9907 63.3029 48.234 63.3029 51.0012C63.3029 53.7685 65.46 56.0118 68.1208 56.0118Z" fill="#808183"/>
</svg>
