<svg width="110" height="69" viewBox="0 0 110 69" fill="none" xmlns="http://www.w3.org/2000/svg">
<path fill-rule="evenodd" clip-rule="evenodd" d="M66.7536 65.1193C92.7533 55.1341 106.956 37.2468 110 14.3311C85.8126 1.0806 62.4665 -3.96719 38.4895 3.39418C11.5679 14.331 3.04433 38.3178 0 61.2335C26.9216 70.9085 44.5889 70.2775 66.7536 65.1193ZM4.66082 58.4033C28.789 66.5412 45.0613 65.8204 65.5151 61.0884C88.9637 52.002 101.823 36.4081 105.385 16.6297C82.8442 4.81821 61.5526 0.771503 39.9018 7.36111C16.4844 16.9559 7.99976 37.2488 4.66082 58.4033Z" fill="#808183"/>
<path fill-rule="evenodd" clip-rule="evenodd" d="M52.3707 2.97351C47.6734 7.46044 38.2789 19.9678 38.2789 34.1016C38.2789 48.2354 48.7952 61.1634 54.0533 65.8607C59.1011 61.7944 69.2808 49.7498 69.6173 34.1016C70.038 14.5414 53.6326 2.97351 52.3707 2.97351ZM60.158 27.2975C63.0619 27.2975 65.4161 24.8492 65.4161 21.829C65.4161 18.8089 63.0619 16.3606 60.158 16.3606C57.254 16.3606 54.8998 18.8089 54.8998 21.829C54.8998 24.8492 57.254 27.2975 60.158 27.2975Z" fill="#808183"/>
</svg>
