<svg width="126" height="126" viewBox="0 0 126 126" fill="none" xmlns="http://www.w3.org/2000/svg">
<path fill-rule="evenodd" clip-rule="evenodd" d="M35.7534 14H37.1246C40.3347 14 42.4895 15.8867 43.8112 17.9806C44.8768 19.6689 45.4813 21.5974 45.7652 23.1321C48.7779 24.2437 51.0542 26.8356 52.6734 29.5533C54.4817 32.5884 55.6334 36.0474 56.1491 38.6255C56.3446 39.6029 56.946 40.9594 57.8797 42.5651C58.7962 44.1414 59.9674 45.8484 61.1998 47.5015C63.6707 50.8158 66.3119 53.8127 67.4732 54.9738C67.8832 55.3838 68.7412 56.0591 69.9744 57.0296C70.3387 57.3164 70.7358 57.6289 71.1637 57.9679C72.9751 59.4031 75.2092 61.2174 77.4502 63.3026C81.8717 67.4165 86.569 72.8059 87.896 78.6442C88.9228 83.1618 88.869 88.3058 88.4137 92.8419C88.1383 95.5853 87.712 98.1446 87.2689 100.262C88.0435 99.4657 88.8343 98.3835 89.5626 96.9791C91.1486 93.9207 92.3293 89.5178 92.3293 83.8539C92.3293 78.3565 90.0277 72.758 87.5954 67.8331C87.0451 66.7189 86.4578 65.5812 85.8972 64.4955C85.2808 63.3016 84.6969 62.1706 84.2305 61.2029C83.7634 60.2337 83.3544 59.3121 83.0605 58.4714C82.7725 57.6476 82.5585 56.8019 82.5585 56.01C82.5585 55.6136 82.543 55.1485 82.5257 54.6314C82.457 52.5799 82.3609 49.7106 83.1014 47.0663C83.5814 45.352 84.4225 43.6473 85.8732 42.1968C87.326 40.7442 89.3152 39.6213 91.9738 38.9567C94.8394 38.2404 97.3198 38.8494 99.2612 40.2082C101.161 41.538 102.479 43.534 103.229 45.5451C103.973 47.5402 104.223 49.7256 103.783 51.5134C103.56 52.4171 103.14 53.299 102.432 53.9671C101.698 54.6589 100.745 55.033 99.6573 55.033C96.9393 55.033 95.3193 55.8312 94.6179 56.8052C93.9775 57.6946 93.7605 59.2369 95.0815 61.6586C95.901 63.1607 96.6694 65.4055 97.3415 67.9468C98.0208 70.5152 98.626 73.4819 99.0905 76.4858C100.008 82.4182 100.419 88.7596 99.6248 92.4652C98.8506 96.0776 96.9385 100.657 94.3199 104.361C91.7596 107.983 88.2016 111.209 84.0241 111.209H39.7913L39.9078 110.51C39.6131 110.692 39.2953 110.853 38.9709 110.995C37.9087 111.459 36.5834 111.798 35.2589 111.934C33.9478 112.069 32.507 112.017 31.2632 111.586C29.9874 111.144 28.7752 110.236 28.3747 108.634C28.1045 107.553 28.1992 106.543 28.657 105.669C29.1 104.823 29.8072 104.25 30.5115 103.865C31.5264 103.312 32.7151 103.052 33.7129 102.954C35.6259 98.4529 35.6036 93.94 34.8277 89.6726C34.2579 86.5391 33.3238 83.6879 32.4584 81.0462C32.0475 79.792 31.6521 78.5851 31.3185 77.4176C31.1321 76.7652 30.9388 76.1053 30.7442 75.441C29.9401 72.6962 29.1137 69.8752 28.6569 67.1853C28.0864 63.826 28.0422 60.4309 29.4393 57.3576C29.9628 56.2061 30.5095 55.1176 31.0004 54.1403C31.0957 53.9505 31.1889 53.7649 31.2794 53.5839C31.8498 52.4432 32.2979 51.5128 32.5688 50.7544C32.7026 50.3798 32.7754 50.0948 32.8043 49.8839C32.8148 49.8077 32.8183 49.7502 32.8187 49.7086C32.7654 49.691 32.6834 49.6702 32.5616 49.6511C28.9626 49.3575 25.973 47.4326 24.1438 45.4681C23.2304 44.4871 22.5187 43.4035 22.1945 42.3892C22.0337 41.8862 21.9317 41.2862 22.054 40.6834C22.1889 40.0184 22.5917 39.411 23.2786 39.0676C23.6127 38.9006 23.7084 38.8147 23.7268 38.7956C23.7383 38.7712 23.7815 38.6579 23.822 38.3143C23.8472 38.0996 23.8688 37.7893 23.8968 37.3872C23.9708 36.3225 24.0896 34.6147 24.4396 32.3397C24.9955 28.7273 26.7137 26.6688 28.6782 25.3592C29.6202 24.7313 30.5941 24.2913 31.4237 23.9347C31.5635 23.8746 31.6971 23.8177 31.8248 23.7632C32.5029 23.4741 33.0175 23.2547 33.4393 23.0016C33.5848 22.9143 33.846 22.6539 34.1492 22.0637C34.4382 21.501 34.6961 20.7756 34.9151 19.9587C35.3527 18.3264 35.5854 16.5195 35.6622 15.368L35.7534 14ZM32.9053 49.75C32.9034 49.7509 32.8922 49.7455 32.8776 49.7315C32.8999 49.7421 32.9072 49.7492 32.9053 49.75ZM43.4817 108.278H57.8687C57.4599 108.007 56.8219 107.51 56.1644 106.981C55.4977 106.445 54.7412 105.82 54.0355 105.228C52.2394 104.827 49.6798 104.636 47.4676 105.225C46.3112 105.532 45.3099 106.036 44.5474 106.775C44.1325 107.177 43.7668 107.669 43.4817 108.278ZM51.7558 101.958C50.1554 101.857 48.3884 101.947 46.7139 102.392C45.2077 102.793 43.7175 103.498 42.5075 104.67C42.4872 104.69 42.4669 104.71 42.4467 104.73C42.6473 103.967 42.8699 103.156 43.1101 102.343C43.5005 101.022 43.9268 99.733 44.3649 98.6701C44.8275 97.5479 45.2254 96.8774 45.489 96.6138L45.7982 96.3046L46.4168 93.3356C47.3699 96.0029 49.0214 98.8927 51.7558 101.958ZM59.9386 108.278H84.0241C86.6862 108.278 89.4792 106.131 91.9264 102.67C94.3153 99.2905 96.0672 95.0776 96.7587 91.8511C97.4301 88.7179 97.1083 82.8471 96.1937 76.9337C95.7423 74.0146 95.1567 71.15 94.5077 68.6961C93.8516 66.2152 93.1545 64.2467 92.5082 63.0621C90.8981 60.1104 90.6811 57.2564 92.2391 55.0927C93.7361 53.0137 96.513 52.1021 99.6573 52.1021C100.036 52.1021 100.258 51.9878 100.421 51.8343C100.609 51.657 100.808 51.3368 100.936 50.8132C101.199 49.7464 101.082 48.1766 100.483 46.5691C99.889 44.9776 98.8864 43.5235 97.5803 42.6093C96.3157 41.7242 94.7046 41.2952 92.6847 41.8001C90.458 42.3567 88.9664 43.2488 87.9459 44.2692C86.9234 45.2916 86.2989 46.5179 85.924 47.8566C85.3197 50.0148 85.3897 52.2538 85.453 54.2793C85.4716 54.8773 85.4898 55.4568 85.4898 56.01C85.4898 56.3172 85.5811 56.7996 85.8275 57.5042C86.0679 58.192 86.4223 58.9992 86.8711 59.9305C87.3559 60.9363 87.889 61.9663 88.4678 63.0848C89.0132 64.1386 89.5992 65.2709 90.2236 66.5353C92.6767 71.5023 95.2605 77.6276 95.2605 83.8539C95.2605 89.9136 93.9985 94.7921 92.1648 98.3283C90.363 101.803 87.8925 104.181 85.3567 104.815L82.8949 105.431L83.592 102.991C84.2196 100.795 85.058 96.9236 85.4971 92.5492C85.9374 88.1622 85.965 83.3736 85.0377 79.2938C83.922 74.3853 79.8256 69.5164 75.4534 65.4482C73.2976 63.4423 71.1348 61.6845 69.3433 60.2651C68.981 59.9781 68.6276 59.7002 68.2889 59.4339C67.0132 58.4308 65.9458 57.5916 65.4005 57.0463C64.119 55.7649 61.3863 52.6557 58.8497 49.2532C57.5784 47.548 56.3374 45.744 55.3456 44.0383C54.3709 42.3619 53.5678 40.6654 53.2748 39.2003C52.8134 36.8935 51.7666 33.7579 50.1552 31.0533C48.5219 28.312 46.4671 26.2724 44.0972 25.68L43.1085 25.4328L42.996 24.4201C42.8507 23.1128 42.3406 21.1424 41.3323 19.5449C40.5897 18.3683 39.6473 17.487 38.4341 17.1193C38.2953 18.2199 38.0729 19.4994 37.7463 20.7176C37.4971 21.647 37.1748 22.5886 36.7565 23.4029C36.3524 24.1896 35.7789 25.016 34.9474 25.5149C34.3356 25.8819 33.598 26.1951 32.929 26.4792C32.8106 26.5294 32.6944 26.5788 32.5814 26.6274C31.7774 26.9729 31.011 27.3268 30.3041 27.7979C28.971 28.6866 27.758 30.0475 27.3368 32.7854C27.0033 34.953 26.9142 36.2784 26.845 37.308C26.8115 37.8062 26.7827 38.2351 26.7331 38.6567C26.6649 39.236 26.5407 39.8899 26.1255 40.4806C25.8102 40.9293 25.4002 41.2376 24.9812 41.4798C24.9829 41.4854 24.9847 41.4911 24.9866 41.497C25.1357 41.9633 25.5537 42.6811 26.2891 43.4709C27.7485 45.0382 30.1121 46.5232 32.8401 46.7331L32.8877 46.7367L32.935 46.7435C34.0859 46.9079 35.1949 47.4588 35.6031 48.7201C35.9337 49.7421 35.6443 50.8584 35.3293 51.7401C34.9895 52.6914 34.4606 53.7761 33.9012 54.8946C33.8066 55.0839 33.7105 55.2751 33.6135 55.4684C33.1228 56.4455 32.6056 57.4754 32.1078 58.5704C31.0622 60.8704 31.0181 63.5814 31.5468 66.6946C31.972 69.1986 32.7356 71.8076 33.5344 74.5372C33.7346 75.2213 33.9371 75.913 34.1369 76.6124C34.4158 77.5884 34.775 78.6871 35.1642 79.8779C36.0561 82.6065 37.1062 85.819 37.7116 89.1483C38.6003 94.0357 38.6232 99.5029 36.0051 105L35.6073 105.836H34.6819C33.8338 105.836 32.6915 106.015 31.9151 106.439C31.5446 106.641 31.348 106.849 31.2536 107.029C31.174 107.181 31.0977 107.44 31.2184 107.923C31.3064 108.275 31.5598 108.587 32.2228 108.817C32.9179 109.058 33.8893 109.128 34.9598 109.019C36.0169 108.91 37.0427 108.639 37.7972 108.309C38.1764 108.144 38.4395 107.984 38.5955 107.858C38.6256 107.834 38.6482 107.814 38.6648 107.798C38.7056 107.632 38.7554 107.425 38.8134 107.185C39.1182 105.919 39.6501 103.709 40.2991 101.513C40.7026 100.147 41.1618 98.7495 41.6549 97.5532C42.0515 96.591 42.5273 95.6113 43.0966 94.9005L45.4605 83.555L48.352 84.0157C48.1185 86.1169 48.0135 88.6958 48.965 91.7181C49.9164 94.7399 51.9611 98.3186 56.2068 102.328C57.964 103.987 59.0364 105.039 59.5964 105.637C59.7375 105.787 59.8607 105.924 59.9593 106.044L59.9648 106.051C60.0266 106.126 60.1987 106.334 60.305 106.588C60.3377 106.666 60.4017 106.834 60.4201 107.055C60.4384 107.277 60.4214 107.724 60.0794 108.132C60.034 108.186 59.9868 108.234 59.9386 108.278Z" fill="#808183"/>
</svg>
