<svg width="95" height="78" viewBox="0 0 95 78" fill="none" xmlns="http://www.w3.org/2000/svg">
<path fill-rule="evenodd" clip-rule="evenodd" d="M91.1118 73.3837C91.1075 73.3852 91.1032 73.3866 91.0989 73.388C83.7961 75.8075 67.0236 77.5 47.5 77.5C27.9764 77.5 11.2039 75.8075 3.90111 73.388C3.89679 73.3866 3.89247 73.3852 3.88816 73.3837C1.3865 72.5533 0 71.6374 0 70.6749C0 69.7125 1.3865 68.7966 3.88816 67.9661C3.89247 67.9647 3.89679 67.9633 3.90111 67.9618C11.2039 65.5423 27.9764 63.8499 47.5 63.8499C67.0236 63.8499 83.7961 65.5423 91.0989 67.9618C91.1032 67.9633 91.1075 67.9647 91.1118 67.9661C93.6135 68.7966 95 69.7125 95 70.6749C95 71.6374 93.6135 72.5533 91.1118 73.3837ZM15.8003 70.6749C24.0027 69.5777 35.1476 68.8903 47.5 68.8903C59.8524 68.8903 70.9973 69.5777 79.1997 70.6749C70.9973 71.7721 59.8524 72.4596 47.5 72.4596C35.1476 72.4596 24.0027 71.7721 15.8003 70.6749Z" fill="#808183"/>
<path fill-rule="evenodd" clip-rule="evenodd" d="M18.6567 9.74034C17.8256 10.4114 17.714 10.9161 17.7515 11.3693C17.8743 12.8548 18.4539 15.6751 19.2753 19.6349L19.3035 19.7704C21.274 29.2691 24.3787 44.2354 23.721 56.8323C23.6919 57.3906 23.6596 57.9543 23.6246 58.5208C30.9426 57.8881 39.0181 57.538 47.4999 57.538C56.0027 57.538 64.097 57.8898 71.4293 58.5255C71.3942 57.9574 71.3618 57.3922 71.3326 56.8323C70.6749 44.2354 73.7797 29.269 75.7502 19.7704L75.7783 19.6349C76.5997 15.6751 77.1794 12.8548 77.3022 11.3693C77.3392 10.9211 77.2294 10.4167 76.3921 9.74324C75.4577 8.99153 73.8026 8.21556 71.2087 7.54737C66.0553 6.2199 58.1175 5.5404 47.4999 5.5404C36.8821 5.5404 28.9586 6.21997 23.8195 7.54701C21.2329 8.21493 19.5856 8.99025 18.6567 9.74034ZM22.5788 2.66426C28.3476 1.17461 36.7857 0.5 47.4999 0.5C58.2144 0.5 66.6652 1.17467 72.4465 2.66389C75.3199 3.40405 77.7687 4.40206 79.5108 5.80349C81.3502 7.28312 82.4896 9.31106 82.2849 11.7879C82.1328 13.6276 81.4838 16.7559 80.7239 20.4186L80.6724 20.6666C78.6726 30.3071 75.7054 44.6869 76.3257 56.5674C76.4033 58.054 76.5044 59.5875 76.6201 61.1163L76.8467 64.1123L73.8806 63.8158C65.973 63.0255 57.0076 62.5784 47.4999 62.5784C38.0138 62.5784 29.0674 63.0234 21.1728 63.8105L18.2074 64.1061L18.434 61.1109C18.5495 59.5839 18.6504 58.0523 18.7279 56.5674C19.3482 44.6869 16.3811 30.3071 14.3812 20.6666L14.3298 20.4186C13.5699 16.7559 12.9208 13.6276 12.7687 11.7879C12.5644 9.31613 13.6954 7.28848 15.5308 5.80639C17.2684 4.40334 19.7115 3.40468 22.5788 2.66426Z" fill="#808183"/>
</svg>
