<svg width="106" height="69" viewBox="0 0 106 69" fill="none" xmlns="http://www.w3.org/2000/svg">
<path fill-rule="evenodd" clip-rule="evenodd" d="M17.5926 27.5457C9.87027 22.9275 4.84259 16.6052 3 10.3361L13.372 4C13.5701 4.67408 15.4727 8.69603 21.9088 12.545C28.113 16.2554 38.0099 19.4445 52.9287 19.1722L53 19.1709L53.0713 19.1722C67.9901 19.4445 77.887 16.2554 84.0912 12.545C90.5273 8.69603 92.4299 4.67408 92.628 4L103 10.3361C101.157 16.6052 96.1297 22.9275 88.4074 27.5457C80.465 32.2956 68.9974 35.6936 53 35.4123C37.0026 35.6936 25.535 32.2956 17.5926 27.5457Z" stroke="#808183" stroke-width="4"/>
<circle cx="53.4941" cy="51.8073" r="14.996" stroke="#808183" stroke-width="4"/>
</svg>
