<svg width="126" height="126" viewBox="0 0 126 126" fill="none" xmlns="http://www.w3.org/2000/svg">
<path fill-rule="evenodd" clip-rule="evenodd" d="M28.3641 25L29.1637 28.2455C29.1631 28.243 29.1637 28.2449 29.1658 28.2512C29.1801 28.2949 29.264 28.5511 29.4793 28.9963C29.7119 29.4775 30.0745 30.1304 30.6076 30.896C31.6715 32.4237 33.414 34.3999 36.16 36.3589C41.4321 40.12 50.0594 43.5155 63.3849 43.2254L63.5 43.2229L63.615 43.2254C76.9405 43.5155 85.5679 40.12 90.8399 36.3589C93.5859 34.3999 95.3285 32.4237 96.3923 30.896C96.9254 30.1304 97.2881 29.4775 97.5207 28.9963C97.7359 28.5512 97.8198 28.2951 97.8342 28.2512C97.8362 28.245 97.8368 28.243 97.8363 28.2454L98.6359 25L112.118 34.8244L111.762 36.2691C109.927 43.7155 104.961 51.1054 97.4427 56.4687C89.6864 62.002 78.6409 65.8458 63.5 65.5368C48.3591 65.8458 37.3135 62.002 29.5572 56.4687C22.0392 51.1054 17.073 43.7155 15.2383 36.2691L14.8823 34.8244L28.3641 25ZM19.9992 36.6279C21.8201 42.5079 25.9669 48.4156 32.1824 52.8497C39.0569 57.7539 49.1325 61.379 63.4525 61.0787L63.5 61.0777L63.5475 61.0787C77.8675 61.379 87.943 57.7539 94.8176 52.8497C101.033 48.4156 105.18 42.5079 107.001 36.6279L100.897 32.1799C99.636 34.3066 97.3499 37.2065 93.4651 39.9779C87.3019 44.3747 77.6882 47.991 63.5163 47.6825L63.5 47.6821L63.4836 47.6825C49.3118 47.991 39.698 44.3747 33.5349 39.9779C29.65 37.2065 27.3639 34.3066 26.1031 32.1799L19.9992 36.6279Z" fill="#808183"/>
<path d="M81.1564 82.0574C81.1564 91.3988 73.5157 99 64.0553 99C54.5948 99 46.9541 91.3988 46.9541 82.0574C46.9541 72.7159 54.5948 65.1147 64.0553 65.1147C73.5157 65.1147 81.1564 72.7159 81.1564 82.0574Z" stroke="#808183" stroke-width="4"/>
</svg>
