<svg width="77" height="77" viewBox="0 0 77 77" fill="none" xmlns="http://www.w3.org/2000/svg">
<path d="M67.375 0H9.625C4.31668 0 0 4.31668 0 9.625V67.375C0 72.6833 4.31668 77 9.625 77H67.375C72.6833 77 77 72.6833 77 67.375V9.625C77 4.31668 72.6833 0 67.375 0ZM9.625 6.41667H67.375C69.1444 6.41667 70.5833 7.85556 70.5833 9.625V32.359L60.0184 21.7941C58.7651 20.5416 56.7349 20.5416 55.4816 21.7941L32.8854 44.3903L24.7267 36.2316C23.4735 34.9791 21.4432 34.9791 20.1899 36.2316L6.41667 50.0049V9.625C6.41667 7.85556 7.85556 6.41667 9.625 6.41667ZM67.375 70.5833H9.625C7.85556 70.5833 6.41667 69.1444 6.41667 67.375V59.0784L22.4583 43.0368L41.0441 61.621C41.6715 62.25 42.4908 62.5625 43.3125 62.5625C44.1342 62.5625 44.9535 62.25 45.5809 61.6226C46.8334 60.3693 46.8334 58.339 45.5809 57.0858L37.4222 48.9271L57.75 28.6008L70.5833 41.4342V67.375C70.5833 69.1444 69.1444 70.5833 67.375 70.5833Z" fill="#808183"/>
<path d="M25.6668 19.2502C25.6668 22.7938 22.7937 25.6668 19.2502 25.6668C15.7066 25.6668 12.8335 22.7938 12.8335 19.2502C12.8335 15.7066 15.7066 12.8335 19.2502 12.8335C22.7937 12.8335 25.6668 15.7066 25.6668 19.2502Z" fill="#808183"/>
</svg>
