<svg width="850" height="501" viewBox="0 0 850 501" fill="none" xmlns="http://www.w3.org/2000/svg">
<g clip-path="url(#clip0)">
<path d="M742.805 281.413C742.954 282.029 744.919 309.446 745.768 321.399C746.084 325.76 741.007 328.557 737.611 325.777C737.577 325.743 737.528 325.71 737.494 325.677C733.566 322.331 726.274 280.032 726.274 280.032L742.805 281.413Z" fill="#C49A6C"/>
<path d="M726.274 280.032C726.274 280.032 727.49 287.09 729.188 295.663C732.916 293.882 737.91 292.134 743.62 291.784C743.187 285.941 742.854 281.646 742.788 281.413L726.274 280.032Z" fill="url(#paint0_linear)"/>
<path d="M1132.97 -331.335H-282V501H1132.97V-331.335Z" fill="url(#paint1_linear)"/>
<g opacity="0.2">
<path opacity="0.2" d="M44.3253 -333H7.70258V256.293H44.3253V-333Z" fill="#BFE2DE"/>
<path opacity="0.2" d="M125.911 -333H89.2881V256.293H125.911V-333Z" fill="#BFE2DE"/>
<path opacity="0.2" d="M207.48 -333H170.857V256.293H207.48V-333Z" fill="#BFE2DE"/>
<path opacity="0.2" d="M289.065 -333H252.442V256.293H289.065V-333Z" fill="#BFE2DE"/>
<path opacity="0.2" d="M370.651 -333H334.028V256.293H370.651V-333Z" fill="#BFE2DE"/>
<path opacity="0.2" d="M452.236 -333H415.614V256.293H452.236V-333Z" fill="#BFE2DE"/>
<path opacity="0.2" d="M533.822 -333H497.199V256.293H533.822V-333Z" fill="#BFE2DE"/>
<path opacity="0.2" d="M615.407 -333H578.785V256.293H615.407V-333Z" fill="#BFE2DE"/>
<path opacity="0.2" d="M696.993 -333H660.37V256.293H696.993V-333Z" fill="#BFE2DE"/>
<path opacity="0.2" d="M778.578 -333H741.956V256.293H778.578V-333Z" fill="#BFE2DE"/>
<path opacity="0.2" d="M860.147 -333H823.524V256.293H860.147V-333Z" fill="#BFE2DE"/>
</g>
<path d="M1132.97 262.669H-282V501H1132.97V262.669Z" fill="url(#paint2_linear)"/>
<path d="M-281.234 273.789H1132.2" stroke="#D1AB8F" stroke-miterlimit="10"/>
<path d="M-281.234 284.476H1132.2" stroke="#D1AB8F" stroke-miterlimit="10"/>
<path d="M-281.234 296.961H1132.2" stroke="#D1AB8F" stroke-miterlimit="10"/>
<path d="M-281.234 312.992H1132.2" stroke="#D1AB8F" stroke-miterlimit="10"/>
<path d="M-281.234 329.905H1132.2" stroke="#D1AB8F" stroke-miterlimit="10"/>
<path d="M-281.234 348.616H1132.2" stroke="#D1AB8F" stroke-miterlimit="10"/>
<path d="M-281.234 370.873H1132.2" stroke="#D1AB8F" stroke-miterlimit="10"/>
<path d="M-281.234 393.146H1132.2" stroke="#D1AB8F" stroke-miterlimit="10"/>
<path d="M-281.234 414.52H1132.2" stroke="#D1AB8F" stroke-miterlimit="10"/>
<path d="M-281.234 434.114H1132.2" stroke="#D1AB8F" stroke-miterlimit="10"/>
<path d="M-281.234 456.37H1132.2" stroke="#D1AB8F" stroke-miterlimit="10"/>
<path d="M-281.234 478.643H1132.2" stroke="#D1AB8F" stroke-miterlimit="10"/>
<path d="M1132.97 236.617H-282V262.652H1132.97V236.617Z" fill="#F4E9DE"/>
<path d="M126.643 324.861L158.072 283.261H715.854L744.852 323.713L126.643 324.861Z" fill="url(#paint3_linear)"/>
<path opacity="0.7" d="M21.6359 277.734C21.6359 282.196 -3.11779 285.825 -33.6645 285.825C-64.2112 285.825 -88.9648 282.212 -88.9648 277.734C-88.9648 273.273 -64.2112 269.644 -33.6645 269.644C-3.11779 269.644 21.6359 273.256 21.6359 277.734Z" fill="url(#paint4_radial)"/>
<path d="M-16.7181 16.9637C-9.19376 -14.5485 1.32696 -46.4935 22.8678 -70.6978C44.4086 -94.9021 79.3334 -109.618 110.03 -99.2636C115.473 -97.4324 121.633 -92.9378 120.101 -87.4111C119.569 -85.4968 118.187 -83.9653 116.838 -82.517C108.399 -73.378 99.942 -64.2389 91.5022 -55.0999C85.7091 -61.4423 77.6022 -65.6206 69.0624 -66.6693C73.6236 -58.0463 78.2014 -49.44 82.7626 -40.817C76.8198 -34.6744 70.8602 -28.5317 64.9174 -22.4057C63.7688 -21.2238 62.4703 -19.9587 60.8223 -19.8089C58.9246 -19.6257 57.2599 -20.9908 55.8283 -22.2559C50.1351 -27.3165 44.4253 -32.3771 38.7321 -37.4377C38.1661 -24.936 43.1934 -12.2679 52.216 -3.57832C46.9722 2.14815 41.7452 7.87463 36.5015 13.6011C29.0437 7.47511 21.5694 1.36575 14.1116 -4.76024C15.0439 5.44419 19.039 15.349 25.4314 23.3394C17.7739 30.381 5.87153 30.2644 -3.00117 35.6913C-12.3733 41.4177 -17.0177 52.4046 -20.2472 62.892C-30.8178 97.1676 -28.6871 129.629 -28.9201 164.653C-42.4539 119.624 -27.2554 61.2107 -16.7181 16.9637Z" fill="#006838"/>
<path d="M-40.3065 99.4149C-40.9224 59.9289 -35.1793 19.7104 -18.0332 -15.8636C-18.1497 -8.25604 -18.2829 -0.665122 -18.3994 6.94242C0.145044 -25.9182 26.064 -54.6005 56.8937 -76.3577C51.8497 -68.9166 47.971 -60.6932 45.4574 -52.0702C70.0113 -76.6907 106.967 -88.2601 141.176 -82.0176C136.215 -78.6217 131.255 -75.2257 126.294 -71.8298C142.707 -72.2626 159.221 -67.8013 173.188 -59.1617C166.978 -57.5136 160.769 -55.8656 154.56 -54.2176C159.154 -50.5054 163.749 -46.7765 168.36 -43.0643C137.88 -34.7909 108.066 -24.137 79.2502 -11.2025C87.0741 -12.0348 95.0146 -11.9183 102.805 -10.8363C104.137 -10.6532 105.569 -10.3868 106.484 -9.42129C109.397 -6.3583 104.353 -2.16333 100.308 -0.914825C64.5012 10.1219 30.6918 27.601 0.97738 50.407C9.55043 47.4272 18.523 45.5628 27.5788 44.8636C-10.8085 84.4661 -30.0188 141.864 -23.1936 196.598C-21.246 212.146 -15.8524 230.225 -20.6633 245.64C-35.0294 235.535 -29.0866 201.11 -31.5669 185.578C-36.1281 157.096 -39.857 128.347 -40.3065 99.4149Z" fill="#009444"/>
<path d="M-3.26753 63.8408C1.65989 64.0572 4.07366 58.1976 6.95354 54.1857C9.25079 50.9729 12.4803 48.6257 15.8262 46.495C10.7989 47.4605 5.83821 48.7756 0.994021 50.4402C30.7084 27.6342 64.5178 10.1552 100.325 -0.881569C104.37 -2.13007 109.414 -6.32504 106.501 -9.38804C105.569 -10.3535 104.154 -10.6199 102.822 -10.803C95.0146 -11.885 87.0908 -12.0016 79.2668 -11.1692C108.082 -24.1037 137.897 -34.7576 168.377 -43.031C168.077 -43.2641 167.777 -43.5138 167.494 -43.7468C147.418 -42.9145 127.409 -39.1024 107.6 -35.3236C115.257 -40.7005 122.898 -46.0774 130.555 -51.4542C119.835 -52.1867 108.965 -50.4055 99.0598 -46.2605C102.772 -52.7527 108.016 -58.3793 114.242 -62.5077C107.5 -62.258 101.041 -59.8442 94.8315 -57.214C70.8103 -47.0429 48.3705 -33.1762 28.5277 -16.2631C32.3065 -23.4878 36.0853 -30.6958 39.8641 -37.9205C30.6418 -33.7588 22.0687 -28.0989 14.611 -21.2571C15.4433 -34.8242 30.8416 -43.8966 32.9224 -57.0975C12.5635 -38.6696 -4.86563 -16.9789 -18.3661 6.95904C-18.2496 -0.648504 -18.1164 -8.2394 -17.9999 -15.8469C-22.5444 -6.40826 -26.2733 3.34671 -29.303 13.3347C-26.2733 30.7472 -21.5456 48.143 -9.24369 60.4449C-7.61232 62.1096 -5.63136 63.741 -3.26753 63.8408Z" fill="url(#paint5_linear)"/>
<path d="M-5.44827 118.891C3.75736 80.4875 6.90359 39.9861 -2.06899 1.53223C-3.60049 8.97331 -5.14864 16.431 -6.68013 23.8721C-17.617 -12.2346 -36.6609 -45.8776 -62.0138 -73.8274C-58.7177 -65.4708 -56.7201 -56.5981 -56.1541 -47.6255C-74.7485 -77.007 -108.308 -96.3504 -143.05 -97.6988C-138.938 -93.3041 -134.843 -88.9093 -130.731 -84.5146C-146.662 -88.5098 -163.758 -87.7607 -179.273 -82.3672C-173.58 -79.4041 -167.87 -76.441 -162.177 -73.4779C-167.471 -70.8477 -172.764 -68.2175 -178.075 -65.5873C-150.141 -50.8716 -123.357 -33.9752 -98.0539 -15.0812C-105.512 -17.5949 -113.286 -19.2096 -121.126 -19.8588C-122.458 -19.9753 -123.923 -20.0253 -125.038 -19.2762C-128.551 -16.9123 -124.539 -11.7186 -120.86 -9.62108C-88.3156 8.95664 -59.1339 33.3607 -35.096 62.1096C-42.8201 57.332 -51.1601 53.5532 -59.8497 50.9063C-31.001 97.9166 -24.7585 158.128 -43.3528 210.049C-48.6298 224.798 -57.8521 241.261 -56.5037 257.359C-40.2732 250.617 -38.5919 215.725 -32.7822 201.126C-22.1116 174.275 -12.1902 147.024 -5.44827 118.891Z" fill="#39B54A"/>
<path d="M-2.06898 1.54887C-3.60048 8.98994 -5.14863 16.4477 -6.68012 23.8887C-7.32934 21.7247 -8.02852 19.5606 -8.74432 17.4132C-8.6278 18.3121 -8.62777 19.2943 -9.29364 19.8935C-10.3923 20.8923 -12.1236 19.8769 -13.2223 18.8781C-20.397 12.3193 -27.0723 5.19449 -33.165 -2.37976C-33.6811 10.0054 -26.8726 22.274 -29.5693 34.3762C-31.6169 32.7614 -32.4492 30.098 -33.3648 27.6509C-37.4432 16.7473 -44.8344 7.45844 -52.0923 -1.63066C-58.468 -9.60443 -64.8604 -17.5949 -71.236 -25.5686C-65.8925 -5.79235 -53.6571 11.8199 -50.1946 31.9957C-53.7237 23.6557 -59.7998 16.4144 -67.4073 11.5203C-67.6237 15.8317 -66.9079 20.1932 -65.3265 24.2217C-68.173 22.557 -71.003 20.8923 -73.8496 19.2443C-73.8496 20.6094 -73.7996 21.9744 -73.7497 23.3228C-59.7831 35.1086 -46.8153 48.0931 -35.096 62.1096C-42.8201 57.332 -51.1601 53.5532 -59.8497 50.9063C-44.3683 76.1427 -35.4123 105.191 -33.2982 134.706C-31.5337 134.323 -29.8024 133.641 -28.2543 132.708C-24.5753 130.511 -21.7121 127.165 -19.0986 123.769C-11.1248 113.348 -4.96552 101.795 0.22825 89.7265C4.57304 60.345 4.65629 30.3643 -2.06898 1.54887Z" fill="url(#paint6_linear)"/>
<path d="M-29.9356 111.434C-22.4113 79.9216 -11.8906 47.9765 9.65028 23.7722C31.1911 -0.432108 66.1159 -15.1478 96.8124 -4.79355C102.256 -2.96241 108.415 1.53219 106.884 7.0589C106.351 8.97327 104.969 10.5048 103.621 11.953C95.181 21.0921 86.7245 30.2311 78.2846 39.3702C72.4916 33.0278 64.3847 28.8494 55.8449 27.8007C60.4061 36.4237 64.9839 45.03 69.5451 53.653C63.6022 59.7957 57.6428 65.9383 51.6999 72.0643C50.5513 73.2462 49.2528 74.5114 47.6048 74.6612C45.7071 74.8443 44.0424 73.4793 42.6108 72.2141C36.9176 67.1535 31.2078 62.0929 25.5146 57.0323C24.9486 69.534 29.9759 82.2021 38.9984 90.8917C33.7547 96.6182 28.5276 102.345 23.2839 108.071C15.8262 101.945 8.35185 95.8358 0.894121 89.7098C1.82634 99.9142 5.82155 109.819 12.2139 117.809C4.5564 124.851 -7.346 124.734 -16.2187 130.161C-25.5908 135.888 -30.2352 146.875 -33.4647 157.362C-44.0353 191.638 -41.9046 224.099 -42.1376 259.123C-55.6714 214.094 -40.4896 155.664 -29.9356 111.434Z" fill="#006838"/>
<path d="M-2.63493 105.774C-6.0475 100.514 -5.13195 92.8561 -0.570752 88.5612C-0.087998 88.1118 0.444692 87.6456 0.594512 86.9964C0.844212 85.8811 -0.18788 84.9322 -0.936982 84.0666C-2.6183 82.1023 -3.151 79.2058 -2.26872 76.7753C2.9084 76.6422 8.10219 77.4079 13.013 79.0226C13.9452 73.8455 17.2246 69.1512 21.7358 66.471C22.3018 63.5745 20.4041 60.8611 19.089 58.2143C17.7739 55.5674 17.2579 51.8053 19.7049 50.1573C21.5028 48.942 23.8999 49.5746 25.9475 50.2571C29.0105 51.2559 32.0734 52.2714 35.1364 53.2702C35.8356 53.5032 36.5847 53.7363 37.3005 53.5698C38.6489 53.2702 39.2981 51.772 39.8142 50.5068C42.3278 44.2976 46.373 38.7043 51.4835 34.3928C52.4823 33.5605 53.5976 32.5783 53.5976 31.2799C53.5976 30.2478 52.8652 29.3822 52.1993 28.5831C49.3527 25.1872 47.0222 21.3585 45.3242 17.2634C44.9913 16.4477 44.675 15.5821 44.8082 14.7164C45.1411 12.6689 47.6048 11.8698 49.6357 11.5036C59.141 9.7557 68.6296 8.00779 78.1349 6.24323C77.2526 -1.06467 68.1136 -3.49509 62.1207 -4.57713C60.0399 -4.96 57.9591 -5.20968 55.8949 -5.3595C38.3159 -0.565245 21.8357 10.0886 9.65032 23.7889C-11.8905 47.9932 -22.4112 79.9382 -29.9355 111.45C-31.9831 120.057 -34.2137 129.196 -36.3778 138.668C-36.2779 138.934 -36.1947 139.184 -36.0948 139.45C-29.7857 124.501 -17.5337 112.166 -2.63493 105.774Z" fill="url(#paint7_linear)"/>
<path d="M-88.0991 180.201C-88.0991 180.201 -31.2173 172.078 16.3923 180.201C16.3923 180.201 15.227 274.239 -18.4327 277.335C-18.4327 277.335 -25.957 279.566 -35.5621 280.015C-48.9794 280.631 -61.8306 274.239 -69.2551 263.052C-78.3941 249.302 -88.7483 223.966 -88.0991 180.201Z" fill="#F15A29"/>
<path d="M56.6939 -108.819L1.31032 284.826C1.09391 286.341 -0.304412 287.406 -1.83591 287.19C-3.33411 286.973 -4.39952 285.591 -4.2164 284.093L44.8914 -110.384C45.2909 -113.647 48.2707 -115.96 51.5334 -115.544C54.7962 -115.145 57.1101 -112.165 56.6939 -108.902C56.6939 -108.886 56.6939 -108.836 56.6939 -108.819Z" fill="#AF8256"/>
<path d="M57.0102 -108.885L25.4314 315.589C25.3149 317.237 23.8833 318.452 22.2519 318.336C20.6372 318.219 19.422 316.804 19.5219 315.189L44.3754 -109.734C44.5751 -113.247 47.5716 -115.927 51.0674 -115.711C54.5465 -115.494 57.21 -112.481 57.0102 -108.969C57.0102 -108.969 57.0102 -108.902 57.0102 -108.885Z" fill="#C49A6C"/>
<path d="M45.1744 -108.819L100.558 284.826C100.774 286.341 102.173 287.406 103.704 287.19C105.202 286.973 106.268 285.592 106.085 284.093L56.977 -110.384C56.5775 -113.646 53.5977 -115.96 50.3349 -115.544C47.0722 -115.145 44.7583 -112.165 45.1744 -108.902C45.1578 -108.885 45.1744 -108.835 45.1744 -108.819Z" fill="#C49A6C"/>
<path d="M928.549 293.299L951.255 311.527L815.634 311.86L788.45 293.948L928.549 293.299Z" fill="url(#paint8_linear)"/>
<path d="M814.968 268.562C814.818 269.178 812.854 296.595 812.005 308.547C811.689 312.909 816.766 315.705 820.162 312.925C820.195 312.892 820.245 312.859 820.278 312.826C824.207 309.48 831.498 267.18 831.498 267.18L814.968 268.562Z" fill="#C49A6C"/>
<path d="M831.482 267.18C831.482 267.18 830.266 274.239 828.568 282.812C824.84 281.03 819.845 279.283 814.136 278.933C814.568 273.09 814.901 268.795 814.968 268.562L831.482 267.18Z" fill="url(#paint9_linear)"/>
<path d="M788.966 252.049C788.816 252.664 786.852 280.082 786.003 292.034C785.686 296.395 790.764 299.192 794.16 296.412C794.193 296.379 794.243 296.345 794.276 296.312C798.205 292.966 805.496 250.667 805.496 250.667L788.966 252.049Z" fill="#C49A6C"/>
<path d="M805.496 250.667C805.496 250.667 804.281 257.725 802.583 266.298C798.854 264.517 793.86 262.769 788.15 262.419C788.583 256.576 788.916 252.282 788.982 252.049L805.496 250.667Z" fill="url(#paint10_linear)"/>
<path d="M958.279 125.583H811.872V274.305H958.279V125.583Z" fill="white"/>
<path d="M811.872 274.322L786.818 255.028V116.811H924.52L958.279 125.583H811.872V274.322Z" fill="#D1D3D4"/>
<path d="M924.52 116.811H786.818L811.872 125.583H958.279L924.52 116.811Z" fill="#E6E7E8"/>
<path d="M950.705 130.86H817.964V179.485H950.705V130.86Z" stroke="#383838" stroke-width="0.2835" stroke-miterlimit="10"/>
<path d="M950.705 182.465H817.964V231.09H950.705V182.465Z" stroke="#383838" stroke-width="0.2835" stroke-miterlimit="10"/>
<path d="M846.397 97.4505C846.397 97.4505 863.909 92.8227 883.286 97.4505C883.286 97.4505 884.002 115.712 870.751 121.805H857.134C857.134 121.805 844.965 112.849 846.397 97.4505Z" fill="#EF6C75"/>
<path d="M857.134 121.805H870.751C872.283 121.105 873.631 120.223 874.813 119.241C855.819 116.777 852.889 102.811 852.656 96.2853C848.744 96.8346 846.397 97.4672 846.397 97.4672C844.965 112.849 857.134 121.805 857.134 121.805Z" fill="#E5616E"/>
<path d="M130.788 281.413C130.639 282.029 128.674 309.446 127.825 321.399C127.509 325.76 132.586 328.557 135.982 325.777C136.015 325.743 136.065 325.71 136.099 325.677C140.027 322.331 147.319 280.032 147.319 280.032L130.788 281.413Z" fill="#C49A6C"/>
<path d="M130.788 281.413C130.738 281.63 130.439 285.408 130.039 290.669C133.885 290.369 139.262 290.469 145.071 292.15C146.403 285.242 147.302 280.048 147.302 280.048L130.788 281.413Z" fill="url(#paint11_linear)"/>
<path d="M742.805 281.413C742.954 282.029 744.919 309.446 745.768 321.399C746.084 325.76 741.007 328.557 737.611 325.777C737.577 325.743 737.528 325.71 737.494 325.677C733.566 322.331 726.274 280.032 726.274 280.032L742.805 281.413Z" fill="#C49A6C"/>
<path d="M726.274 280.032C726.274 280.032 727.49 287.09 729.188 295.663C732.916 293.882 737.91 292.134 743.62 291.784C743.187 285.941 742.854 281.646 742.788 281.413L726.274 280.032Z" fill="url(#paint12_linear)"/>
<path d="M160.303 247.77C160.153 248.386 158.189 275.803 157.34 287.756C157.024 292.117 162.101 294.914 165.497 292.134C165.53 292.1 165.58 292.067 165.613 292.034C169.542 288.688 176.833 246.389 176.833 246.389L160.303 247.77Z" fill="#C49A6C"/>
<path d="M713.29 247.77C713.44 248.386 715.404 275.803 716.253 287.756C716.569 292.117 711.492 294.914 708.096 292.134C708.063 292.1 708.013 292.067 707.98 292.034C704.051 288.688 696.76 246.389 696.76 246.389L713.29 247.77Z" fill="#C49A6C"/>
<path d="M798.937 129.795L746.101 114.314C746.101 114.314 749.347 84.8324 741.989 54.3189C734.631 23.8055 711.442 30.4642 675.802 35.4582C640.161 40.4522 477.822 43.7816 454.633 43.7816C441.299 43.7816 436.955 51.8386 435.656 58.697C434.358 51.8386 429.996 43.7816 416.679 43.7816C393.49 43.7816 231.135 40.4522 195.511 35.4582C159.87 30.4642 136.681 23.8055 129.323 54.3189C121.966 84.8324 125.212 114.314 125.212 114.314L72.3751 129.795C72.3751 129.795 62.3704 133.94 63.6189 169.215C64.8674 204.489 72.6914 283.76 108.016 273.806C108.016 273.806 106.451 283.627 127.243 283.627H435.406H435.906H744.07C764.861 283.627 763.297 273.806 763.297 273.806C798.621 283.777 806.445 204.489 807.693 169.215C808.942 133.94 798.937 129.795 798.937 129.795Z" fill="#2B3990"/>
<path d="M172.022 151.469C184.707 145.892 198.624 143.878 212.407 142.696C272.419 137.519 333.395 146.891 392.808 136.887C407.04 134.489 422.089 130.411 431.511 119.308C442.981 132.508 461.825 135.738 479.137 136.637C495.534 137.486 512.015 136.97 528.328 135.122C567.831 130.627 606.318 128.43 646.037 129.679C665.098 130.278 684.641 131.66 701.987 139.7C701.338 143.845 700.688 148.007 700.039 152.152C699.839 153.45 699.573 154.865 698.624 155.764C697.725 156.63 696.41 156.813 695.178 156.962C688.403 157.795 681.595 158.461 674.803 159.027C609.315 164.387 543.161 159.326 478.005 167.883C476.54 168.083 475.042 168.282 473.744 168.981C472.212 169.797 471.064 171.195 470.032 172.61C463.739 181.367 460.66 192.42 461.475 203.224C462.424 215.609 476.674 221.568 488.493 224.765C500.312 227.961 513.33 229.659 522.302 238.099C516.176 239.963 509.684 240.146 503.275 240.296C455.416 241.378 407.523 241.012 359.697 239.181C355.036 238.997 350.325 238.798 345.797 237.649C338.872 235.885 332.696 232.006 326.637 228.177C302.915 213.228 278.878 198.396 252.742 188.441C239.292 183.314 227.855 172.394 214.172 167.899C200.505 163.405 186.355 159.926 173.67 153.084C172.555 152.485 171.307 151.569 171.44 150.304C172.255 150.004 171.257 151.802 172.022 151.469Z" fill="url(#paint13_linear)"/>
<path d="M69.2122 132.975C69.2122 132.975 72.3252 126.283 80.0492 134.539C87.7733 142.796 105.152 183.348 106.384 201.942C107.616 220.553 108.848 238.798 110.063 240.562C111.295 242.31 111.462 242.843 114.275 240.745C117.088 238.631 310.523 239.514 350.908 238.997C391.276 238.465 385.833 149.122 385.833 149.122L175.119 146.475C175.119 146.475 145.687 114.197 128.658 114.547C128.658 114.547 124.796 114.73 124.263 114.896C123.73 115.079 77.0362 128.597 77.0362 128.597C77.0362 128.597 71.1432 129.462 69.2122 132.975Z" fill="#1F2D75"/>
<path d="M110.063 240.562C111.295 242.31 111.462 242.843 114.275 240.745C117.088 238.631 310.523 239.514 350.908 238.997C382.953 238.581 386.132 182.199 386.082 158.96L192.032 157.246C192.032 157.246 188.835 152.568 184.258 146.575L175.135 146.458C175.135 146.458 165.796 136.204 154.577 127.315C148.084 139.334 130.988 166.285 101.707 181.05C104.237 188.991 106.018 196.432 106.384 201.942C107.6 220.536 108.831 238.798 110.063 240.562Z" fill="url(#paint14_linear)"/>
<path d="M801.817 132.975C801.817 132.975 798.704 126.283 790.98 134.539C783.256 142.796 765.877 183.348 764.645 201.942C763.413 220.553 762.181 238.798 760.966 240.562C759.734 242.31 759.568 242.843 756.755 240.745C753.941 238.631 560.506 239.514 520.122 238.997C479.753 238.465 485.197 149.122 485.197 149.122L695.911 146.475C695.911 146.475 725.342 114.197 742.372 114.547C742.372 114.547 746.234 114.73 746.766 114.896C747.299 115.079 793.993 128.597 793.993 128.597C793.993 128.597 799.886 129.462 801.817 132.975Z" fill="#1F2D75"/>
<path d="M760.766 240.562C759.534 242.31 759.368 242.843 756.555 240.745C753.741 238.631 560.307 239.514 519.922 238.997C487.877 238.581 484.697 182.199 484.747 158.96L678.798 157.246C678.798 157.246 681.994 152.568 686.572 146.575L695.694 146.458C695.694 146.458 705.033 136.204 716.253 127.315C722.745 139.334 739.841 166.285 769.123 181.05C766.593 188.991 764.811 196.432 764.445 201.942C763.213 220.536 761.998 238.798 760.766 240.562Z" fill="url(#paint15_linear)"/>
<path d="M108.565 197.414C107.899 211.997 111.778 235.768 111.778 235.768C111.778 235.768 114.991 239.98 122.415 236.517C129.84 233.055 225.342 238.997 305.496 238.498C385.649 237.999 431.678 240.229 433.159 237.999C434.641 235.768 435.64 172.444 431.178 153.633C426.717 134.839 177.832 146.958 175.119 146.458C172.405 145.959 119.951 181.583 118.47 182.582C118.47 182.565 109.064 186.527 108.565 197.414Z" fill="#324293"/>
<path d="M111.794 235.751C111.794 235.751 115.007 239.963 122.432 236.5C129.856 233.038 225.358 238.981 305.512 238.481C385.666 237.982 431.694 240.213 433.176 237.982C434.075 236.634 434.791 212.779 434.225 190.023C431.811 189.141 424.436 188.125 401.997 189.573C367.704 191.804 217.185 194.468 186.904 193.585C160.087 192.803 130.472 183.98 111.994 187.859C110.246 190.156 108.781 193.286 108.598 197.414C107.916 211.997 111.794 235.751 111.794 235.751Z" fill="#253377"/>
<path d="M764.495 197.414C765.161 211.997 761.282 235.768 761.282 235.768C761.282 235.768 758.07 239.98 750.645 236.517C743.221 233.055 647.719 238.997 567.565 238.498C487.411 237.999 441.383 240.229 439.901 237.999C438.42 235.768 437.421 172.444 441.882 153.633C446.343 134.839 695.228 146.958 697.942 146.458C700.655 145.959 753.109 181.583 754.59 182.582C754.607 182.565 764.013 186.527 764.495 197.414Z" fill="#324293"/>
<path d="M439.901 237.982C441.383 240.213 487.394 237.982 567.565 238.481C647.719 238.981 743.221 233.038 750.645 236.5C758.07 239.963 761.282 235.751 761.282 235.751C761.282 235.751 765.161 211.98 764.495 197.397C763.996 186.51 754.607 182.549 754.607 182.549C754.524 182.499 754.274 182.332 753.925 182.082C722.229 183.381 596.963 188.391 566.449 187.609C535.953 186.827 463.606 187.409 438.902 188.458C438.253 211.697 438.986 236.6 439.901 237.982Z" fill="#253377"/>
<path d="M130.073 92.573L135 115.762C135 115.762 155.575 137.786 145.138 165.902C145.138 165.902 147.452 181.267 164.548 174.009C181.644 166.767 230.918 169.664 240.191 168.798C249.463 167.933 253.724 167.983 250.878 164.903C248.031 161.84 130.073 92.573 130.073 92.573Z" fill="url(#paint16_linear)"/>
<path d="M120.184 79.805C120.184 79.805 133.285 103.477 142.341 109.519C142.341 109.519 153.528 139.051 153.927 139.733C153.927 139.733 151.414 156.863 153.927 173.975C153.927 173.975 154.427 177.505 165.513 172.96C176.6 168.432 189.185 165.902 196.743 166.917C204.3 167.933 224.942 167.417 229.487 167.933C234.015 168.432 251.643 167.433 249.13 164.404C246.616 161.374 234.015 133.674 232.516 128.147C231.002 122.604 220.431 90.8751 217.917 84.3329C215.404 77.7908 214.888 69.2177 204.816 73.2462C194.745 77.2747 169.059 81.8026 154.959 80.8038C140.843 79.805 114.658 72.2474 120.184 79.805Z" fill="#F29232"/>
<path d="M120.184 79.805C120.184 79.805 133.285 103.477 142.341 109.519C142.341 109.519 153.528 139.051 153.927 139.733C153.927 139.733 151.414 156.863 153.927 173.975C153.927 173.975 154.427 177.505 165.513 172.96C176.6 168.432 189.185 165.902 196.743 166.917C204.3 167.933 224.942 167.417 229.487 167.933C233.432 168.366 247.282 167.666 249.163 165.486C238.276 163.904 226.707 166.335 215.537 165.719C214.771 165.669 213.939 165.602 213.339 165.119C211.275 163.505 213.806 159.776 212.257 157.662C211.392 162.006 207.446 165.536 203.035 165.918C200.022 166.185 197.076 165.119 194.129 164.47C186.638 162.839 178.581 163.954 171.823 167.55C169.991 168.515 167.994 169.714 165.996 169.148C164.498 168.732 163.433 167.4 162.6 166.068C160.186 162.223 158.772 158.028 158.355 153.5C157.956 149.205 158.971 144.627 161.884 141.448C164.714 138.335 168.926 136.937 172.921 135.638C169.359 134.34 165.33 135.621 161.651 134.706C157.456 133.657 154.427 129.812 153.112 125.683C151.797 121.555 151.93 117.144 152.063 112.815C152.096 111.867 152.129 110.868 152.662 110.069C153.178 109.286 154.044 108.837 154.909 108.487C159.504 106.623 164.731 106.556 169.109 104.226C169.892 103.81 170.74 102.927 170.258 102.178C164.148 103.66 157.889 104.908 151.613 104.459C146.719 104.126 141.825 102.728 137.747 99.9808C133.668 97.2508 130.439 93.1224 129.224 88.3614C128.807 86.6968 128.624 84.9655 128.025 83.3674C127.526 82.019 126.76 80.7872 125.994 79.5553C125.328 78.4899 124.646 77.4079 123.88 76.4091C120.118 76.4091 118.303 77.2248 120.184 79.805Z" fill="#D1782F"/>
<path d="M746.367 111.983C746.367 111.983 747.149 121.971 736.379 128.014C736.379 128.014 724.826 152.718 718.251 157.445C718.251 157.445 706.698 182.931 703.801 185.295C700.905 187.659 697.492 190.805 684.891 183.98C672.273 177.155 642.858 169.264 633.402 166.901C623.947 164.537 599.51 164.27 618.687 156.913C637.864 149.555 736.645 107.522 746.367 111.983Z" fill="url(#paint17_linear)"/>
<path d="M755.173 101.479C755.173 101.479 737.444 121.905 727.323 125.933C727.323 125.933 710.244 152.485 709.711 153.084C709.711 153.084 708.612 170.363 702.586 186.577C702.586 186.577 701.354 189.923 691.466 183.181C681.578 176.439 669.775 171.362 662.184 170.779C654.594 170.197 634.484 165.402 629.956 164.953C625.412 164.503 608.382 159.859 611.479 157.429C614.575 154.998 632.637 130.511 635.267 125.417C637.897 120.306 654.843 91.4744 658.655 85.5981C662.484 79.7218 664.748 71.4484 673.771 77.4745C682.793 83.5172 706.964 93.2888 720.964 95.2199C734.981 97.1842 762.165 95.2365 755.173 101.479Z" fill="#F29232"/>
<path d="M629.957 164.986C634.501 165.436 654.594 170.213 662.185 170.813C669.775 171.395 681.578 176.472 691.466 183.214C701.354 189.956 702.586 186.61 702.586 186.61C708.612 170.38 709.711 153.117 709.711 153.117C710.244 152.518 727.323 125.966 727.323 125.966C737.444 121.938 755.173 101.512 755.173 101.512C758.536 98.5159 753.991 97.4006 746.816 96.8513C745.285 99.8643 744.502 103.227 742.688 106.157C740.341 109.936 737.245 113.265 733.582 115.828C726.274 120.956 716.852 122.953 708.096 121.222C711.426 122.82 714.755 124.418 718.084 126.016C718.617 126.266 719.166 126.566 719.416 127.082C719.782 127.897 719.233 128.813 718.7 129.529C714.921 134.606 711.126 139.7 707.347 144.777C706.764 145.543 706.165 146.342 705.316 146.791C704.317 147.324 703.119 147.274 702.003 147.158C698.657 146.808 695.378 145.859 692.365 144.344C690.034 143.179 686.888 141.814 685.174 143.762C689.219 145.843 693.264 147.94 697.309 150.021C698.391 150.587 699.523 151.169 700.256 152.152C701.138 153.317 701.321 154.865 701.421 156.33C701.937 163.222 701.454 170.197 699.989 176.955C699.506 179.203 698.657 181.733 696.51 182.582C693.78 183.647 691.033 181.35 688.803 179.452C677.633 169.98 662.301 167.45 647.752 165.835C635.35 164.47 622.465 163.355 611.179 158.328C612.028 160.858 625.928 164.587 629.957 164.986Z" fill="#D1782F"/>
<path opacity="0.7" d="M436.355 412.739C671.255 412.739 861.679 396.894 861.679 377.348C861.679 357.802 671.255 341.957 436.355 341.957C201.456 341.957 11.032 357.802 11.032 377.348C11.032 396.894 201.456 412.739 436.355 412.739Z" fill="url(#paint18_radial)"/>
<path d="M436.305 404.449C671.205 404.449 861.629 389.543 861.629 371.156C861.629 352.768 671.205 337.862 436.305 337.862C201.406 337.862 10.9821 352.768 10.9821 371.156C10.9821 389.543 201.406 404.449 436.305 404.449Z" fill="white"/>
<path d="M435.64 398.606C649.66 398.606 823.158 386.316 823.158 371.156C823.158 355.995 649.66 343.705 435.64 343.705C221.619 343.705 48.1208 355.995 48.1208 371.156C48.1208 386.316 221.619 398.606 435.64 398.606Z" stroke="#383838" stroke-miterlimit="10"/>
<path d="M431.228 392.713C613.466 392.713 761.199 383.062 761.199 371.156C761.199 359.25 613.466 349.598 431.228 349.598C248.99 349.598 101.257 359.25 101.257 371.156C101.257 383.062 248.99 392.713 431.228 392.713Z" stroke="#383838" stroke-miterlimit="10"/>
<path d="M431.228 380.744C512.317 380.744 578.052 376.451 578.052 371.156C578.052 365.86 512.317 361.567 431.228 361.567C350.14 361.567 284.404 365.86 284.404 371.156C284.404 376.451 350.14 380.744 431.228 380.744Z" stroke="#383838" stroke-miterlimit="10"/>
<path opacity="0.3" d="M51.3669 309.513C81.9085 309.513 106.667 301.203 106.667 290.952C106.667 280.701 81.9085 272.391 51.3669 272.391C20.8254 272.391 -3.93344 280.701 -3.93344 290.952C-3.93344 301.203 20.8254 309.513 51.3669 309.513Z" fill="url(#paint19_radial)"/>
</g>
<defs>
<linearGradient id="paint0_linear" x1="733.91" y1="277.638" x2="737.232" y2="295.08" gradientUnits="userSpaceOnUse">
<stop stop-color="#C49A6C"/>
<stop offset="0.9981" stop-color="#C49A6C" stop-opacity="0"/>
</linearGradient>
<linearGradient id="paint1_linear" x1="1072.82" y1="-55.224" x2="-189.003" y2="217.783" gradientUnits="userSpaceOnUse">
<stop stop-color="#BFE2DE"/>
<stop offset="1" stop-color="#A1CBC8"/>
</linearGradient>
<linearGradient id="paint2_linear" x1="425.485" y1="29.8982" x2="425.485" y2="546.914" gradientUnits="userSpaceOnUse">
<stop stop-color="#E9CFB9"/>
<stop offset="1" stop-color="#D8B79E"/>
</linearGradient>
<linearGradient id="paint3_linear" x1="435.748" y1="337.307" x2="435.748" y2="276.254" gradientUnits="userSpaceOnUse">
<stop stop-color="white" stop-opacity="0"/>
<stop offset="1"/>
</linearGradient>
<radialGradient id="paint4_radial" cx="0" cy="0" r="1" gradientUnits="userSpaceOnUse" gradientTransform="translate(-33.6697 277.734) scale(55.0752 7.94821)">
<stop stop-color="#231F20"/>
<stop offset="1" stop-color="white"/>
</radialGradient>
<linearGradient id="paint5_linear" x1="162.846" y1="-106.037" x2="-39.0448" y2="70.3112" gradientUnits="userSpaceOnUse">
<stop stop-color="white" stop-opacity="0"/>
<stop offset="1"/>
</linearGradient>
<linearGradient id="paint6_linear" x1="-43.1304" y1="-27.0434" x2="-16.8899" y2="157.91" gradientUnits="userSpaceOnUse">
<stop stop-color="white" stop-opacity="0"/>
<stop offset="1"/>
</linearGradient>
<linearGradient id="paint7_linear" x1="82.4151" y1="58.0212" x2="-111.248" y2="82.0735" gradientUnits="userSpaceOnUse">
<stop stop-color="white" stop-opacity="0"/>
<stop offset="1"/>
</linearGradient>
<linearGradient id="paint8_linear" x1="1004.66" y1="298.817" x2="740.778" y2="306.494" gradientUnits="userSpaceOnUse">
<stop stop-color="white" stop-opacity="0"/>
<stop offset="1"/>
</linearGradient>
<linearGradient id="paint9_linear" x1="823.85" y1="264.798" x2="820.528" y2="282.24" gradientUnits="userSpaceOnUse">
<stop stop-color="#C49A6C"/>
<stop offset="0.9981" stop-color="#C49A6C" stop-opacity="0"/>
</linearGradient>
<linearGradient id="paint10_linear" x1="797.851" y1="248.275" x2="794.529" y2="265.717" gradientUnits="userSpaceOnUse">
<stop stop-color="#C49A6C"/>
<stop offset="0.9981" stop-color="#C49A6C" stop-opacity="0"/>
</linearGradient>
<linearGradient id="paint11_linear" x1="139.214" y1="279.588" x2="137.294" y2="292.838" gradientUnits="userSpaceOnUse">
<stop stop-color="#C49A6C"/>
<stop offset="0.9981" stop-color="#C49A6C" stop-opacity="0"/>
</linearGradient>
<linearGradient id="paint12_linear" x1="733.91" y1="277.638" x2="737.232" y2="295.08" gradientUnits="userSpaceOnUse">
<stop stop-color="#C49A6C"/>
<stop offset="0.9981" stop-color="#C49A6C" stop-opacity="0"/>
</linearGradient>
<linearGradient id="paint13_linear" x1="436.751" y1="101.202" x2="436.751" y2="217.035" gradientUnits="userSpaceOnUse">
<stop stop-color="white" stop-opacity="0"/>
<stop offset="0.5046" stop-color="#908E8E" stop-opacity="0.5046"/>
<stop offset="1"/>
</linearGradient>
<linearGradient id="paint14_linear" x1="201.037" y1="35.9787" x2="257.636" y2="233.242" gradientUnits="userSpaceOnUse">
<stop stop-color="white" stop-opacity="0"/>
<stop offset="1"/>
</linearGradient>
<linearGradient id="paint15_linear" x1="669.785" y1="35.9787" x2="613.186" y2="233.242" gradientUnits="userSpaceOnUse">
<stop stop-color="white" stop-opacity="0"/>
<stop offset="1"/>
</linearGradient>
<linearGradient id="paint16_linear" x1="197.619" y1="112.514" x2="168.637" y2="186.417" gradientUnits="userSpaceOnUse">
<stop stop-color="white" stop-opacity="0"/>
<stop offset="1"/>
</linearGradient>
<linearGradient id="paint17_linear" x1="672.684" y1="114.394" x2="696.329" y2="198.99" gradientUnits="userSpaceOnUse">
<stop stop-color="white" stop-opacity="0"/>
<stop offset="1"/>
</linearGradient>
<radialGradient id="paint18_radial" cx="0" cy="0" r="1" gradientUnits="userSpaceOnUse" gradientTransform="translate(436.355 377.381) scale(423.545 34.7918)">
<stop stop-color="#231F20"/>
<stop offset="1" stop-color="white"/>
</radialGradient>
<radialGradient id="paint19_radial" cx="0" cy="0" r="1" gradientUnits="userSpaceOnUse" gradientTransform="translate(51.3744 290.954) scale(55.0745 18.2346)">
<stop stop-color="#231F20"/>
<stop offset="1" stop-color="white"/>
</radialGradient>
<clipPath id="clip0">
<rect width="850" height="501" fill="white"/>
</clipPath>
</defs>
</svg>
