<svg width="110" height="110" viewBox="0 0 110 110" fill="none" xmlns="http://www.w3.org/2000/svg">
<path fill-rule="evenodd" clip-rule="evenodd" d="M65.4371 80.0554C87.4187 71.6134 99.4262 56.4905 102 37.1163C81.5506 25.9136 61.8126 21.6459 41.5411 27.8696C18.7801 37.1162 11.5738 57.3959 9 76.7702C31.761 84.9499 46.6979 84.4164 65.4371 80.0554ZM12.9405 74.3774C33.3398 81.2576 47.0973 80.6482 64.39 76.6475C84.2148 68.9653 95.0864 55.7814 98.0978 39.0596C79.041 29.0736 61.04 25.6523 42.7351 31.2235C22.9368 39.3355 15.7634 56.4922 12.9405 74.3774Z" fill="#808183"/>
<path fill-rule="evenodd" clip-rule="evenodd" d="M55 79.3786C67.7025 79.3786 78 67.738 78 53.3786C78 39.0192 67.7025 27.3786 55 27.3786C42.2975 27.3786 32 39.0192 32 53.3786C32 67.738 42.2975 79.3786 55 79.3786ZM66.9259 46.6379C69.2783 46.6379 71.1852 44.4822 71.1852 41.823C71.1852 39.1639 69.2783 37.0082 66.9259 37.0082C64.5736 37.0082 62.6667 39.1639 62.6667 41.823C62.6667 44.4822 64.5736 46.6379 66.9259 46.6379Z" fill="#808183"/>
</svg>
