<svg width="110" height="110" viewBox="0 0 110 110" fill="none" xmlns="http://www.w3.org/2000/svg">
<path fill-rule="evenodd" clip-rule="evenodd" d="M56.8883 25.3035C58.7404 24.5559 60.0473 22.7413 60.0473 20.6214C60.0473 17.8339 57.7876 15.5742 55.0001 15.5742C52.2127 15.5742 49.953 17.8339 49.953 20.6214C49.953 22.7412 51.2598 24.5558 53.1118 25.3034L52.7931 25.8278C48.6713 32.609 42.5095 43.8902 37.3686 55.7811C32.2722 67.5688 28 80.3521 28 89.986V92.5686H82V89.986C82 80.3521 77.7278 67.5688 72.6314 55.7811C67.4905 43.8902 61.3287 32.609 57.2069 25.8278L56.8883 25.3035ZM74.2801 75.1782C75.489 79.3456 76.334 83.2789 76.6715 86.7813L35.8275 74.81C36.7686 71.6115 37.9201 68.2793 39.2177 64.9016L74.2801 75.1782ZM69.2926 61.156L43.936 53.7241C45.4558 50.3968 47.0308 47.1567 48.5862 44.0992L63.6019 48.5002C65.0656 51.515 66.5158 54.6516 67.8903 57.8308C68.3693 58.9386 68.8374 60.048 69.2926 61.156Z" fill="#808183"/>
</svg>
