<svg width="110" height="110" viewBox="0 0 110 110" fill="none" xmlns="http://www.w3.org/2000/svg">
<circle cx="55" cy="55" r="38" fill="#808183"/>
<path d="M43.0958 63L41.0418 57.774H32.9038L30.8498 63H28.3278L35.6338 45.112H38.3898L45.5658 63H43.0958ZM36.9858 46.932L36.8558 47.296C36.6478 48.0067 36.3358 48.908 35.9198 50L33.6318 55.876H40.3138L38.0258 49.974C37.7831 49.3847 37.5491 48.726 37.3238 47.998L36.9858 46.932Z" fill="white"/>
<path d="M61.5822 57.956C61.5822 59.5507 61.0015 60.79 59.8402 61.674C58.6788 62.558 57.0668 63 55.0042 63H47.7502V45.112H54.2502C58.4448 45.112 60.5422 46.5593 60.5422 49.454C60.5422 50.5113 60.2475 51.404 59.6582 52.132C59.0688 52.8427 58.2282 53.3193 57.1362 53.562C58.5575 53.7353 59.6495 54.212 60.4122 54.992C61.1922 55.772 61.5822 56.76 61.5822 57.956ZM58.0982 49.74C58.0982 48.7867 57.7688 48.102 57.1102 47.686C56.4515 47.27 55.4982 47.062 54.2502 47.062H50.1682V52.704H54.2502C55.5502 52.704 56.5122 52.4613 57.1362 51.976C57.7775 51.4907 58.0982 50.7453 58.0982 49.74ZM59.1382 57.774C59.1382 55.6593 57.6562 54.602 54.6922 54.602H50.1682V61.05H54.8742C56.3648 61.05 57.4482 60.7813 58.1242 60.244C58.8002 59.6893 59.1382 58.866 59.1382 57.774Z" fill="white"/>
<path d="M72.9706 46.828C70.9946 46.828 69.4519 47.4693 68.3426 48.752C67.2506 50.0173 66.7046 51.7593 66.7046 53.978C66.7046 56.162 67.2766 57.9213 68.4206 59.256C69.5646 60.5907 71.1159 61.258 73.0746 61.258C75.5706 61.258 77.4512 60.0187 78.7166 57.54L80.6926 58.528C79.9646 60.0707 78.9332 61.2493 77.5986 62.064C76.2639 62.8613 74.7126 63.26 72.9446 63.26C71.1419 63.26 69.5819 62.8873 68.2646 62.142C66.9646 61.3793 65.9679 60.3047 65.2746 58.918C64.5812 57.5313 64.2346 55.8847 64.2346 53.978C64.2346 51.118 65.0059 48.882 66.5486 47.27C68.0912 45.658 70.2232 44.852 72.9446 44.852C74.8512 44.852 76.4372 45.2247 77.7026 45.97C78.9852 46.7153 79.9299 47.816 80.5366 49.272L78.2486 50.026C77.8326 48.986 77.1652 48.1973 76.2466 47.66C75.3279 47.1053 74.2359 46.828 72.9706 46.828Z" fill="white"/>
</svg>
