<svg width="110" height="110" viewBox="0 0 110 110" fill="none" xmlns="http://www.w3.org/2000/svg">
<path d="M36.2511 100.385C28.2332 101.778 16.8654 95.8009 13.417 87.1712C10.8842 77.6663 20.5241 60.2471 25.2511 60.2007C29.978 60.1543 34.3594 71.5208 39.3548 67.2596C44.3501 62.9983 49.7154 60.6454 55.4504 60.2007C61.1855 59.756 66.061 64.0399 69.3698 73.9854C72.6786 83.9308 67.6902 97.901 61.1664 100.385C54.6425 102.869 48.5268 99.8218 46.6049 97.0325C44.683 94.2432 44.2689 98.9917 36.2511 100.385Z" fill="#808183"/>
<path d="M77.2506 13.2041C84.6064 9.72297 88.9334 5.80674 94.5585 13.2041C99.5345 21.6892 92.395 28.2163 87.8517 29.5217C83.3084 30.8271 78.5487 33.873 74.8707 39.3122C71.1928 44.7514 66.6495 48.4501 61.2407 50.4082C55.832 52.3663 49.9905 49.5379 44.1491 40.8352C38.3077 32.1325 39.3894 17.3379 45.0145 13.2041C50.6396 9.07027 57.3464 10.3757 59.9426 12.5514C62.5388 14.727 69.8947 16.6852 77.2506 13.2041Z" fill="#808183"/>
</svg>
